<svg width="74" height="72" viewBox="0 0 74 72" fill="none" xmlns="http://www.w3.org/2000/svg">
<path d="M57.346 25.3076C60.6168 22.0369 60.6167 16.7149 57.3461 13.4442C56.715 12.813 55.6916 12.813 55.0603 13.4442C54.7446 13.7598 54.5869 14.1734 54.5869 14.587C54.5869 15.0006 54.7446 15.4144 55.0603 15.7299C57.0706 17.7401 57.0707 21.0112 55.0603 23.0218C54.4291 23.653 54.4291 24.6764 55.0603 25.3076C55.6914 25.9387 56.7148 25.9387 57.346 25.3076Z" fill="white"/>
<path d="M62.135 30.0966C68.0462 24.1851 68.0462 14.5667 62.1349 8.65555C61.5037 8.0244 60.4803 8.02424 59.8491 8.65555C59.2177 9.28686 59.218 10.3103 59.8491 10.9413C64.5001 15.5922 64.5001 23.1601 59.8491 27.8109C59.5335 28.1265 59.3757 28.5401 59.3757 28.9537C59.3757 29.3673 59.5335 29.7811 59.8491 30.0966C60.4803 30.7277 61.5037 30.7277 62.135 30.0966Z" fill="white"/>
<path d="M67.3166 35.2788C76.0853 26.5098 76.0851 12.2422 67.3166 3.47336C66.6854 2.84221 65.662 2.84221 65.0307 3.47336C64.3995 4.10451 64.3995 5.12793 65.0307 5.75924C72.5394 13.2678 72.5392 25.4848 65.0307 32.9931C64.715 33.3088 64.5573 33.7224 64.5573 34.136C64.5573 34.5496 64.715 34.9633 65.0307 35.2788C65.6619 35.91 66.6853 35.91 67.3166 35.2788Z" fill="white"/>
<path d="M52.5247 20.5196C52.8254 20.219 52.9983 19.802 52.9983 19.3769C52.9983 18.9502 52.8254 18.5348 52.5247 18.2326C52.2241 17.932 51.8071 17.759 51.382 17.759C50.957 17.759 50.54 17.932 50.2393 18.2326C49.9387 18.5348 49.7658 18.9502 49.7658 19.3769C49.7658 19.802 49.9387 20.219 50.2393 20.5196C50.54 20.8202 50.957 20.9916 51.382 20.9916C51.8071 20.9916 52.2241 20.8202 52.5247 20.5196Z" fill="white"/>
<path d="M25.4632 46.1311C25.1481 45.816 24.7111 45.6348 24.2656 45.6348C23.8201 45.6348 23.3831 45.816 23.0681 46.1311C22.753 46.4461 22.5718 46.8831 22.5718 47.3286C22.5718 47.7741 22.753 48.2111 23.0681 48.5262C23.3831 48.8412 23.8201 49.0225 24.2656 49.0225C24.7111 49.0225 25.1481 48.8412 25.4632 48.5262C25.7782 48.2111 25.9595 47.7741 25.9595 47.3286C25.9595 46.8831 25.7782 46.4461 25.4632 46.1311Z" fill="white"/>
<path d="M25.0865 13.2123C24.5757 12.9292 23.9552 12.9292 23.4447 13.2123C23.1312 13.3861 15.7656 17.5607 15.7656 25.6943C15.7656 33.8187 23.1196 38.066 23.4327 38.2428C23.6912 38.3888 23.9784 38.4618 24.2657 38.4618C24.553 38.4618 24.8403 38.3888 25.0987 38.2428C25.4118 38.066 32.7656 33.8187 32.7656 25.6943C32.7656 17.5607 25.4001 13.3861 25.0865 13.2123ZM25.9594 33.2673V27.3864C25.9594 26.4509 25.2011 25.6926 24.2655 25.6926C23.33 25.6926 22.5717 26.4509 22.5717 27.3864V33.2673C20.952 31.6429 19.1532 29.0772 19.1532 25.6944C19.1532 20.9899 22.6364 17.9061 24.2654 16.7214C25.8971 17.908 29.3779 20.9913 29.3779 25.6944C29.3779 29.0772 27.5791 31.6429 25.9594 33.2673Z" fill="white"/>
<path d="M41.14 0H6.42096C2.88062 0 0 2.88007 0 6.42096V65.579C0 69.1194 2.88062 72 6.42096 72H41.14C44.6803 72 47.5604 69.1199 47.5604 65.579V6.42096C47.5604 2.88007 44.6803 0 41.14 0V0ZM6.42096 4.2583H41.14C42.332 4.2583 43.3021 5.22839 43.3021 6.42096V55.1135H4.2583V6.42096C4.2583 5.22839 5.22839 4.2583 6.42096 4.2583ZM41.14 67.7417H6.42096C5.22839 67.7417 4.2583 66.7716 4.2583 65.579V59.3718H43.3021V65.579C43.3021 66.7716 42.332 67.7417 41.14 67.7417Z" fill="white"/>
<path d="M27.7224 61.2871H19.8386C18.6625 61.2871 17.7095 62.2407 17.7095 63.4163C17.7095 64.5923 18.6625 65.5454 19.8386 65.5454H27.7224C28.8979 65.5454 29.8516 64.5923 29.8516 63.4163C29.8516 62.2407 28.8979 61.2871 27.7224 61.2871Z" fill="white"/>
</svg>
