<svg width="72" height="72" viewBox="0 0 72 72" fill="none" xmlns="http://www.w3.org/2000/svg">
<path d="M2.10938 33.5907C3.27448 33.5907 4.21875 32.6464 4.21875 31.4813V22.444C4.21875 21.2789 3.27448 20.3346 2.10938 20.3346C0.944824 20.3346 0 21.2789 0 22.444V31.4813C0 32.6464 0.944824 33.5907 2.10938 33.5907Z" fill="white"/>
<path d="M2.10938 51.666C3.27448 51.666 4.21875 50.7211 4.21875 49.5566V40.5187C4.21875 39.3536 3.27448 38.4093 2.10938 38.4093C0.944824 38.4093 0 39.3536 0 40.5187V49.5566C0 50.7211 0.944824 51.666 2.10938 51.666Z" fill="white"/>
<path d="M69.8906 20.3346C68.7261 20.3346 67.7812 21.2789 67.7812 22.444V31.4813C67.7812 32.6464 68.7261 33.5907 69.8906 33.5907C71.0557 33.5907 72 32.6464 72 31.4813V22.444C72 21.2789 71.0557 20.3346 69.8906 20.3346Z" fill="white"/>
<path d="M69.8906 38.4093C68.7261 38.4093 67.7812 39.3536 67.7812 40.5187V49.5566C67.7812 50.7211 68.7261 51.666 69.8906 51.666C71.0557 51.666 72 50.7211 72 49.5566V40.5187C72 39.3536 71.0557 38.4093 69.8906 38.4093Z" fill="white"/>
<path d="M40.5186 4.21875H49.5565C50.7216 4.21875 51.6658 3.27448 51.6658 2.10938C51.6658 0.944275 50.7216 0 49.5565 0H40.5186C39.354 0 38.4092 0.944275 38.4092 2.10938C38.4092 3.27448 39.354 4.21875 40.5186 4.21875Z" fill="white"/>
<path d="M22.4438 4.21875H31.4812C32.6463 4.21875 33.5906 3.27448 33.5906 2.10938C33.5906 0.944275 32.6463 0 31.4812 0H22.4438C21.2787 0 20.3345 0.944275 20.3345 2.10938C20.3345 3.27448 21.2787 4.21875 22.4438 4.21875Z" fill="white"/>
<path d="M49.5565 67.7812H40.5186C39.354 67.7812 38.4092 68.7255 38.4092 69.8906C38.4092 71.0557 39.354 72 40.5186 72H49.5565C50.7216 72 51.6658 71.0557 51.6658 69.8906C51.6658 68.7255 50.7216 67.7812 49.5565 67.7812Z" fill="white"/>
<path d="M31.4812 67.7812H22.4438C21.2787 67.7812 20.3345 68.7255 20.3345 69.8906C20.3345 71.0557 21.2787 72 22.4438 72H31.4812C32.6463 72 33.5906 71.0557 33.5906 69.8906C33.5906 68.7255 32.6463 67.7812 31.4812 67.7812Z" fill="white"/>
<path d="M58.594 4.21875C63.6598 4.21875 67.7813 8.34027 67.7813 13.4061C67.7813 14.5712 68.7261 15.5154 69.8907 15.5154C71.0558 15.5154 72.0001 14.5712 72.0001 13.4061C72.0001 6.01392 65.9861 0 58.594 0C57.4289 0 56.4846 0.944275 56.4846 2.10938C56.4846 3.27448 57.4289 4.21875 58.594 4.21875Z" fill="white"/>
<path d="M2.10938 15.5154C3.27448 15.5154 4.21875 14.5712 4.21875 13.4061C4.21875 8.34027 8.34027 4.21875 13.4066 4.21875C14.5712 4.21875 15.516 3.27448 15.516 2.10938C15.516 0.944275 14.5712 0 13.4066 0C6.01447 0 0 6.01392 0 13.4061C0 14.5712 0.944824 15.5154 2.10938 15.5154Z" fill="white"/>
<path d="M13.4066 67.7813C8.34027 67.7813 4.21875 63.6598 4.21875 58.594C4.21875 57.4289 3.27448 56.4846 2.10938 56.4846C0.944824 56.4846 0 57.4289 0 58.594C0 65.9861 6.01447 72.0001 13.4066 72.0001C14.5712 72.0001 15.516 71.0558 15.516 69.8907C15.516 68.7256 14.5712 67.7813 13.4066 67.7813Z" fill="white"/>
<path d="M69.8907 56.4846C68.7261 56.4846 67.7813 57.4289 67.7813 58.594C67.7813 63.6598 63.6598 67.7813 58.594 67.7813C57.4289 67.7813 56.4846 68.7256 56.4846 69.8907C56.4846 71.0558 57.4289 72.0001 58.594 72.0001C65.9861 72.0001 72.0001 65.9861 72.0001 58.594C72.0001 57.4289 71.0558 56.4846 69.8907 56.4846Z" fill="white"/>
<path d="M50.8016 36.753C50.6774 36.3288 50.3586 35.9825 49.9349 35.8275C49.8494 35.7963 49.1563 35.551 48.0796 35.3935C52.6792 30.4994 51.1606 24.7814 50.8016 23.6647C50.6774 23.2404 50.3586 22.8941 49.9349 22.7391C49.7375 22.6668 46.2948 21.453 42.3725 22.818C42.594 21.9094 42.7235 20.9106 42.7235 19.8145C42.7235 12.802 37.4131 9.71978 36.3474 9.1726C35.9597 8.96026 35.4891 8.94086 35.0801 9.13098C34.8165 9.25346 28.6214 12.2183 28.6214 19.8145C28.6214 20.9128 28.7514 21.9138 28.9738 22.8238C25.0446 21.4496 21.5926 22.6667 21.3949 22.7391C20.9712 22.8941 20.6524 23.2404 20.5283 23.6647C20.1692 24.7814 18.6506 30.4994 23.2502 35.3935C22.1736 35.551 21.4804 35.7963 21.3949 35.8275C20.9712 35.9825 20.6523 36.329 20.5281 36.7531C20.1616 37.8932 18.5858 43.8281 23.5445 48.7868C26.4141 51.6564 29.599 52.341 31.9851 52.341C32.8685 52.341 33.6407 52.2469 34.2486 52.1352V61.3367C34.2486 62.1133 34.8782 62.743 35.6549 62.743C36.4315 62.743 37.0611 62.1133 37.0611 61.3367V52.1317C37.6718 52.2448 38.4516 52.3408 39.3446 52.3408C41.7306 52.3408 44.9159 51.656 47.7852 48.7867C52.7439 43.8278 51.168 37.893 50.8016 36.753ZM34.2486 47.7515C34.2174 48.3898 34.1278 48.9263 34.0422 49.312C32.539 49.646 28.7782 50.0429 25.5334 46.7979C22.3374 43.6022 22.6724 39.9037 23.0262 38.2899C23.9713 38.0844 25.8156 37.8555 27.8575 38.5181C27.9919 38.5684 28.1259 38.616 28.2593 38.6603C29.3407 39.0703 30.4634 39.7397 31.5275 40.8037C33.5552 42.8313 34.1607 45.0602 34.2486 46.8133V47.7515ZM34.2486 34.6634C34.2174 35.3017 34.1278 35.8382 34.0422 36.2238C33.1108 36.4309 31.3128 36.6609 29.3079 36.0351C29.1047 35.9567 28.9026 35.8855 28.7019 35.8209C27.6532 35.4066 26.5671 34.7434 25.5332 33.7097C22.3374 30.5139 22.6724 26.8154 23.0262 25.2017C24.5279 24.8752 28.2993 24.4874 31.5275 27.7156C31.548 27.7361 31.5666 27.7568 31.5867 27.7772C31.71 27.9155 31.8338 28.0479 31.9574 28.175C33.6405 30.075 34.1673 32.1036 34.2486 33.7252V34.6634ZM35.6747 27.6077C35.234 27.325 34.5989 26.8591 33.9539 26.1857C33.888 26.1136 33.8215 26.0414 33.7532 25.9696C32.5783 24.6644 31.4337 22.6623 31.4337 19.8145C31.4337 15.2306 34.3672 12.8522 35.6653 12.0242C37.0555 12.9138 39.9109 15.2922 39.9109 19.8145C39.9109 22.5019 38.9025 24.4301 37.8067 25.7334C37.5789 25.9615 37.3657 26.1919 37.1647 26.4234C36.6025 26.97 36.0641 27.3596 35.6747 27.6077ZM37.0698 34.2077C37.0679 32.5567 37.4949 30.372 39.2435 28.3202C39.4506 28.1144 39.6589 27.8929 39.8653 27.6548C43.0922 24.4808 46.8092 24.8685 48.3029 25.1989C48.6569 26.8112 48.9941 30.512 45.7963 33.7097C44.7644 34.7417 43.6805 35.4044 42.6335 35.8189C42.4295 35.8845 42.224 35.9569 42.0173 36.0366C40.0127 36.6614 38.2158 36.4307 37.2881 36.2242C37.184 35.7555 37.0738 35.0672 37.0697 34.2435C37.0697 34.2316 37.0698 34.2196 37.0698 34.2077ZM45.7963 46.7979C42.551 50.0434 38.79 49.6459 37.2903 49.3132C36.9634 47.8172 36.5681 44.0378 39.8022 40.8037C40.8369 39.7689 41.9238 39.1056 42.9734 38.6913C43.1737 38.6269 43.3752 38.5561 43.5778 38.4779C45.5783 37.8535 47.3723 38.0813 48.3029 38.287C48.6569 39.8994 48.9941 43.6003 45.7963 46.7979Z" fill="white"/>
</svg>
