<svg width="47" height="54" viewBox="0 0 47 54" fill="none" xmlns="http://www.w3.org/2000/svg">
<path d="M44.2969 41.7656H42.1875V27C42.1875 18.4381 36.4897 11.1826 28.6867 8.82436C29.0917 8.00739 29.3203 7.08865 29.3203 6.11719C29.3203 2.74425 26.5761 0 23.2031 0C19.8302 0 17.0859 2.74425 17.0859 6.11719C17.0859 7.08865 17.3146 8.00739 17.7196 8.82436C9.91653 11.1826 4.21875 18.4381 4.21875 27V41.7656H2.10938C0.944275 41.7656 0 42.7099 0 43.875C0 45.0401 0.944275 45.9844 2.10938 45.9844H12.8779C13.851 50.5583 17.9214 54 22.7812 54H23.625C28.4848 54 32.5552 50.5583 33.5284 45.9844H44.2969C45.462 45.9844 46.4062 45.0401 46.4062 43.875C46.4062 42.7099 45.462 41.7656 44.2969 41.7656ZM21.3047 6.11719C21.3047 5.07033 22.1563 4.21875 23.2031 4.21875C24.25 4.21875 25.1016 5.07033 25.1016 6.11719C25.1016 7.16405 24.25 8.01562 23.2031 8.01562C22.1563 8.01562 21.3047 7.16405 21.3047 6.11719ZM23.625 49.7812H22.7812C20.2673 49.7812 18.1151 48.2025 17.2643 45.9844H29.1419C28.2912 48.2025 26.1389 49.7812 23.625 49.7812ZM8.4375 41.7656V27C8.4375 18.8583 15.0614 12.2344 23.2031 12.2344C31.3448 12.2344 37.9688 18.8583 37.9688 27V41.7656C35.1026 41.7656 9.55234 41.7656 8.4375 41.7656Z" fill="white"/>
</svg>
