<svg width="77" height="77" viewBox="0 0 77 77" fill="none" xmlns="http://www.w3.org/2000/svg">
<path d="M51.7798 24.8615C48.3648 21.4465 43.5436 19.2368 38.3206 19.2368C33.0977 19.2368 28.2765 21.3461 24.8615 24.8615C21.4464 28.2766 19.2367 33.0977 19.2367 38.3207C19.2367 43.5437 21.4464 48.3649 24.8615 51.7799C28.2765 55.1949 33.0977 57.4046 38.3206 57.4046C43.5436 57.4046 48.3648 55.2953 51.7798 51.7799C55.1948 48.3649 57.4045 43.5437 57.4045 38.3207C57.4045 33.0977 55.2952 28.2766 51.7798 24.8615ZM48.1639 48.164C45.6528 50.675 42.1374 52.1816 38.3206 52.1816C34.5038 52.1816 30.9884 50.675 28.4773 48.164C25.9663 45.6529 24.4597 42.1375 24.4597 38.3207C24.4597 34.5039 25.9663 30.9885 28.4773 28.4774C30.9884 25.9664 34.5038 24.4598 38.3206 24.4598C42.1374 24.4598 45.6528 25.9664 48.1639 28.4774C50.6749 30.9885 52.1815 34.5039 52.1815 38.3207C52.1815 42.1375 50.6749 45.6529 48.1639 48.164Z" fill="#DF8D45"/>
<path d="M73.7262 35.7596H65.9922C64.5861 35.7596 63.3808 36.9649 63.3808 38.3711C63.3808 39.7773 64.5861 40.9826 65.9922 40.9826H73.7262C75.1324 40.9826 76.3377 39.7773 76.3377 38.3711C76.3377 36.9649 75.1324 35.7596 73.7262 35.7596Z" fill="#DF8D45"/>
<path d="M38.371 63.3809C36.9648 63.3809 35.7596 64.5862 35.7596 65.9923V73.7263C35.7596 75.1325 36.9648 76.3378 38.371 76.3378C39.7772 76.3378 40.9825 75.1325 40.9825 73.7263V65.9923C40.9825 64.5862 39.7772 63.3809 38.371 63.3809Z" fill="#DF8D45"/>
<path d="M65.1887 61.5729L59.6644 56.0486C58.7605 55.0442 57.053 55.0442 56.0485 56.0486C55.0441 57.053 55.0441 58.6601 56.0485 59.6645L61.5728 65.1888C62.5772 66.1932 64.1843 66.1932 65.1887 65.1888C66.1931 64.1844 66.1931 62.5773 65.1887 61.5729Z" fill="#DF8D45"/>
<path d="M38.371 0.404175C36.9648 0.404175 35.7596 1.60947 35.7596 3.01565V10.7497C35.7596 12.1558 36.9648 13.3611 38.371 13.3611C39.7772 13.3611 40.9825 12.1558 40.9825 10.7497V3.01565C40.9825 1.60947 39.7772 0.404175 38.371 0.404175Z" fill="#DF8D45"/>
<path d="M65.2891 11.5531C64.2847 10.5487 62.6777 10.5487 61.6732 11.5531L56.149 17.0774C55.1445 18.0818 55.1445 19.6889 56.149 20.6933C57.0529 21.6977 58.7604 21.6977 59.7649 20.6933L65.2891 15.169C66.2936 14.1646 66.2936 12.5575 65.2891 11.5531Z" fill="#DF8D45"/>
<path d="M10.7495 35.7596H3.01549C1.60931 35.7596 0.404007 36.9649 0.404007 38.3711C0.404007 39.7773 1.50886 40.9826 3.01549 40.9826H10.7495C12.1557 40.9826 13.361 39.7773 13.361 38.3711C13.361 36.9649 12.1557 35.7596 10.7495 35.7596Z" fill="#DF8D45"/>
<path d="M20.5927 56.0486C19.6888 55.0442 17.9813 55.0442 16.9768 56.0486L11.4526 61.5729C10.4481 62.5773 10.4481 64.1844 11.4526 65.1888C12.457 66.1932 14.064 66.1932 15.0685 65.1888L20.5927 59.6645C21.5972 58.6601 21.5972 57.053 20.5927 56.0486Z" fill="#DF8D45"/>
<path d="M20.5927 17.0774L15.0685 11.5531C14.064 10.5487 12.457 10.5487 11.4526 11.5531C10.4481 12.5575 10.4481 14.1646 11.4526 15.169L16.9768 20.6933C17.9813 21.6977 19.5883 21.6977 20.5927 20.6933C21.5972 19.6889 21.5972 18.0818 20.5927 17.0774Z" fill="#DF8D45"/>
</svg>
