<svg width="96" height="96" viewBox="0 0 96 96" fill="none" xmlns="http://www.w3.org/2000/svg">
<path d="M64.9525 30.9207C60.635 26.6032 54.5398 23.8096 47.9366 23.8096C41.3334 23.8096 35.2382 26.4762 30.9207 30.9207C26.6032 35.2382 23.8096 41.3334 23.8096 47.9366C23.8096 54.5398 26.6032 60.635 30.9207 64.9525C35.2382 69.2699 41.3334 72.0636 47.9366 72.0636C54.5398 72.0636 60.635 69.3969 64.9525 64.9525C69.2699 60.635 72.0636 54.5398 72.0636 47.9366C72.0636 41.3334 69.3969 35.2382 64.9525 30.9207ZM60.381 60.381C57.2064 63.5557 52.762 65.4604 47.9366 65.4604C43.1112 65.4604 38.6667 63.5557 35.4921 60.381C32.3175 57.2064 30.4128 52.762 30.4128 47.9366C30.4128 43.1112 32.3175 38.6667 35.4921 35.4921C38.6667 32.3175 43.1112 30.4128 47.9366 30.4128C52.762 30.4128 57.2064 32.3175 60.381 35.4921C63.5557 38.6667 65.4604 43.1112 65.4604 47.9366C65.4604 52.762 63.5557 57.2064 60.381 60.381Z" fill="#189D6D"/>
<path d="M92.6985 44.6987H82.9207C81.143 44.6987 79.6191 46.2225 79.6191 48.0003C79.6191 49.7781 81.143 51.3019 82.9207 51.3019H92.6985C94.4763 51.3019 96.0001 49.7781 96.0001 48.0003C96.0001 46.2225 94.4763 44.6987 92.6985 44.6987Z" fill="#189D6D"/>
<path d="M48.0001 79.6191C46.2223 79.6191 44.6985 81.143 44.6985 82.9207V92.6985C44.6985 94.4763 46.2223 96.0001 48.0001 96.0001C49.7779 96.0001 51.3017 94.4763 51.3017 92.6985V82.9207C51.3017 81.143 49.7779 79.6191 48.0001 79.6191Z" fill="#189D6D"/>
<path d="M81.9049 77.3332L74.9208 70.3491C73.7779 69.0793 71.6192 69.0793 70.3494 70.3491C69.0795 71.619 69.0795 73.6507 70.3494 74.9205L77.3335 81.9047C78.6033 83.1745 80.6351 83.1745 81.9049 81.9047C83.1748 80.6348 83.1748 78.6031 81.9049 77.3332Z" fill="#189D6D"/>
<path d="M48.0001 0C46.2223 0 44.6985 1.52381 44.6985 3.30159V13.0794C44.6985 14.8572 46.2223 16.381 48.0001 16.381C49.7779 16.381 51.3017 14.8572 51.3017 13.0794V3.30159C51.3017 1.52381 49.7779 0 48.0001 0Z" fill="#189D6D"/>
<path d="M82.0319 14.0952C80.762 12.8254 78.7303 12.8254 77.4604 14.0952L70.4763 21.0793C69.2065 22.3492 69.2065 24.3809 70.4763 25.6508C71.6192 26.9206 73.7779 26.9206 75.0477 25.6508L82.0319 18.6666C83.3017 17.3968 83.3017 15.365 82.0319 14.0952Z" fill="#189D6D"/>
<path d="M13.0794 44.6987H3.30159C1.52381 44.6987 0 46.2225 0 48.0003C0 49.7781 1.39683 51.3019 3.30159 51.3019H13.0794C14.8572 51.3019 16.381 49.7781 16.381 48.0003C16.381 46.2225 14.8572 44.6987 13.0794 44.6987Z" fill="#189D6D"/>
<path d="M25.5241 70.3491C24.3812 69.0793 22.2225 69.0793 20.9526 70.3491L13.9685 77.3332C12.6987 78.6031 12.6987 80.6348 13.9685 81.9047C15.2383 83.1745 17.2701 83.1745 18.5399 81.9047L25.5241 74.9205C26.7939 73.6507 26.7939 71.619 25.5241 70.3491Z" fill="#189D6D"/>
<path d="M25.5241 21.0793L18.5399 14.0952C17.2701 12.8254 15.2383 12.8254 13.9685 14.0952C12.6987 15.365 12.6987 17.3968 13.9685 18.6666L20.9526 25.6508C22.2225 26.9206 24.2542 26.9206 25.5241 25.6508C26.7939 24.3809 26.7939 22.3492 25.5241 21.0793Z" fill="#189D6D"/>
</svg>
