<svg width="96" height="96" viewBox="0 0 96 96" fill="none" xmlns="http://www.w3.org/2000/svg">
<path d="M31.16 50.5197C29.6099 50.5197 28.3533 51.7763 28.3533 53.3264C28.3533 54.874 27.0943 56.1331 25.5466 56.1331C23.999 56.1331 22.74 54.874 22.74 53.3264V42.0998C22.74 40.5522 23.999 39.2931 25.5466 39.2931C27.0943 39.2931 28.3533 40.5522 28.3533 42.0998C28.3533 43.6499 29.6099 44.9065 31.16 44.9065C32.7101 44.9065 33.9667 43.6499 33.9667 42.0998C33.9667 37.4571 30.1895 33.6799 25.5468 33.6799C20.9041 33.6799 17.127 37.4571 17.127 42.0998V53.3264C17.127 57.9691 20.9041 61.7462 25.5468 61.7462C30.1895 61.7462 33.9667 57.9691 33.9667 53.3264C33.9667 51.7763 32.7101 50.5197 31.16 50.5197Z" fill="#189D6D"/>
<path d="M48 33.6797C43.3573 33.6797 39.5801 37.4569 39.5801 42.0996V53.3261C39.5801 57.9688 43.3573 61.746 48 61.746C52.6426 61.746 56.4198 57.9688 56.4198 53.3261V42.0996C56.4198 37.4569 52.6428 33.6797 48 33.6797ZM50.8066 53.3263C50.8066 54.8739 49.5476 56.133 48 56.133C46.4523 56.133 45.1933 54.8739 45.1933 53.3263V42.0997C45.1933 40.5521 46.4523 39.2931 48 39.2931C49.5476 39.2931 50.8066 40.5521 50.8066 42.0997V53.3263Z" fill="#189D6D"/>
<path d="M69.1978 54.2851L74.2186 51.7746C77.0896 50.3391 78.873 47.4535 78.873 44.2437V42.0998C78.873 37.4571 75.096 33.6799 70.4531 33.6799C65.8104 33.6799 62.0332 37.4571 62.0332 42.0998C62.0332 43.6499 63.2898 44.9065 64.8399 44.9065C66.39 44.9065 67.6466 43.6499 67.6466 42.0998C67.6466 40.5522 68.9056 39.2931 70.4533 39.2931C72.0009 39.2931 73.26 40.5522 73.26 42.0998V44.2435C73.26 45.3134 72.6656 46.2752 71.7086 46.7539L66.6877 49.2644C63.8167 50.6999 62.0334 53.5855 62.0334 56.7953V58.9396C62.0334 60.4896 63.29 61.7462 64.8401 61.7462H76.0666C77.6167 61.7462 78.8733 60.4896 78.8733 58.9396C78.8733 57.3895 77.6167 56.1329 76.0666 56.1329H67.7248C67.9147 55.3392 68.4438 54.6621 69.1978 54.2851Z" fill="#189D6D"/>
<path d="M84.4012 26.7694C85.7529 13.806 74.7067 0 59.2265 0C49.7804 0 41.2298 5.33044 36.9267 13.5868C34.3493 12.0487 31.4043 11.2266 28.3533 11.2266C19.498 11.2266 12.217 18.0977 11.5615 26.7881C4.45323 31.5178 0.0998535 39.3964 0.0998535 47.7129C0.0998535 61.6412 11.5154 72.9727 25.5468 72.9727H70.453C84.4844 72.9727 95.9 61.6412 95.9 47.7129C95.9 39.3547 91.5391 31.4919 84.4012 26.7694ZM70.453 67.3596H25.5468C14.6107 67.3596 5.71323 58.5461 5.71323 47.7131C5.71323 40.8654 9.56204 34.3792 15.7578 30.786C16.6852 30.2483 17.2872 29.2026 17.1279 27.9255C17.2038 21.8001 22.2102 16.8399 28.3535 16.8399C31.2571 16.8399 34.0201 17.9634 36.134 20.0038C37.6103 21.4284 40.0694 20.8352 40.7367 18.8983C43.4744 10.9521 50.9049 5.61337 59.2265 5.61337C70.5187 5.61337 80.2598 15.3737 78.6001 27.8438C78.4493 28.9817 79.0066 30.0969 80.0073 30.6593C86.3478 34.2223 90.2868 40.7571 90.2868 47.7129C90.2868 58.5461 81.3894 67.3596 70.453 67.3596Z" fill="#189D6D"/>
<path d="M29.586 88.6613C32.5404 87.4129 34.3042 85.1161 34.3042 82.5179C34.3046 79.9197 32.5406 77.6232 29.586 76.3744C28.1582 75.7711 26.5117 76.4393 25.9082 77.8671C25.3048 79.2949 25.9732 80.9416 27.4011 81.5449C28.4032 81.9683 28.6774 82.4314 28.6914 82.5124C28.6774 82.6043 28.4032 83.0673 27.4011 83.4906C24.4466 84.7392 22.6826 87.0359 22.6826 89.6342C22.6826 92.2324 24.4464 94.5293 27.4009 95.7777C27.7575 95.9284 28.1278 95.9999 28.4921 95.9999C29.5864 95.9999 30.6259 95.3562 31.0785 94.285C31.6821 92.8572 31.0136 91.2106 29.5858 90.6072C28.5838 90.1838 28.3097 89.7209 28.2954 89.6397C28.3097 89.5478 28.5838 89.0849 29.586 88.6613Z" fill="#189D6D"/>
<path d="M49.2324 88.6613C52.1869 87.4129 53.9507 85.1161 53.9507 82.5179C53.951 79.9197 52.187 77.6232 49.2324 76.3744C47.8048 75.7711 46.158 76.4393 45.5546 77.8671C44.9512 79.2949 45.6197 80.9416 47.0475 81.5449C48.0497 81.9683 48.3238 82.4314 48.3379 82.5124C48.3238 82.6043 48.0497 83.0673 47.0475 83.4906C44.093 84.7392 42.3289 87.0359 42.3289 89.6342C42.3289 92.2324 44.0927 94.5293 47.0471 95.7777C47.4037 95.9284 47.774 95.9999 48.1384 95.9999C49.2326 95.9999 50.2721 95.3562 50.7247 94.285C51.3283 92.8572 50.6599 91.2106 49.232 90.6072C48.23 90.1838 47.9559 89.7209 47.9417 89.6397C47.9563 89.5478 48.2302 89.0849 49.2324 88.6613Z" fill="#189D6D"/>
<path d="M68.879 88.6613C71.8334 87.4129 73.5974 85.1161 73.5974 82.5179C73.5978 79.9197 71.8338 77.6232 68.8791 76.3744C67.4513 75.7711 65.8047 76.4393 65.2013 77.8671C64.598 79.2949 65.2664 80.9416 66.6942 81.5449C67.6964 81.9683 67.9705 82.4314 67.9846 82.5124C67.9705 82.6043 67.6964 83.0673 66.6942 83.4906C63.7398 84.7392 61.9756 87.0359 61.9756 89.6343C61.9756 92.2324 63.7394 94.5293 66.694 95.7777C68.1213 96.3809 69.7683 95.7132 70.3717 94.285C70.9752 92.8572 70.3068 91.2106 68.879 90.6072C67.877 90.1838 67.6028 89.7209 67.5886 89.6397C67.6026 89.5478 67.8768 89.0849 68.879 88.6613Z" fill="#189D6D"/>
</svg>
