<svg width="48" height="48" viewBox="0 0 48 48" fill="none" xmlns="http://www.w3.org/2000/svg">
<path d="M42.8571 5.14285H37.7143V1.71432C37.7143 0.767511 36.9468 0 36 0C35.0532 0 34.2857 0.767511 34.2857 1.71432V5.14285H13.7142V1.71432C13.7142 0.767511 12.9467 0 12 0C11.0533 0 10.2857 0.767511 10.2857 1.71432V5.14285H5.14285C2.30253 5.14285 0 7.44539 0 10.2857V42.8571C0 45.6975 2.30253 48 5.14285 48H42.8571C45.6975 48 48 45.6975 48 42.8571V10.2857C48 7.44539 45.6975 5.14285 42.8571 5.14285ZM44.5714 42.8571C44.5714 43.804 43.8039 44.5715 42.857 44.5715H5.14285C4.19605 44.5715 3.42854 43.804 3.42854 42.8571V20.5714H44.5714V42.8571ZM44.5714 17.1429H3.42854V10.2857C3.42854 9.3389 4.19605 8.57139 5.14285 8.57139H10.2857V11.9999C10.2857 12.9467 11.0532 13.7142 12 13.7142C12.9468 13.7142 13.7143 12.9467 13.7143 11.9999V8.57139H34.2858V11.9999C34.2858 12.9467 35.0533 13.7142 36.0001 13.7142C36.9469 13.7142 37.7144 12.9467 37.7144 11.9999V8.57139H42.8572C43.8041 8.57139 44.5716 9.3389 44.5716 10.2857V17.1429H44.5714Z" fill="#748792"/>
<path d="M13.7143 23.9995H10.2857C9.33892 23.9995 8.57141 24.767 8.57141 25.7138C8.57141 26.6606 9.33892 27.4281 10.2857 27.4281H13.7143C14.6611 27.4281 15.4286 26.6606 15.4286 25.7138C15.4286 24.767 14.6611 23.9995 13.7143 23.9995Z" fill="#748792"/>
<path d="M25.7143 23.9995H22.2857C21.3389 23.9995 20.5714 24.767 20.5714 25.7138C20.5714 26.6606 21.3389 27.4281 22.2857 27.4281H25.7143C26.6611 27.4281 27.4286 26.6606 27.4286 25.7138C27.4286 24.767 26.6611 23.9995 25.7143 23.9995Z" fill="#748792"/>
<path d="M37.7143 23.9995H34.2857C33.3389 23.9995 32.5714 24.767 32.5714 25.7138C32.5714 26.6606 33.3389 27.4281 34.2857 27.4281H37.7143C38.6611 27.4281 39.4286 26.6606 39.4286 25.7138C39.4285 24.767 38.661 23.9995 37.7143 23.9995Z" fill="#748792"/>
<path d="M13.7143 30.8574H10.2857C9.33892 30.8574 8.57141 31.6249 8.57141 32.5717C8.57141 33.5185 9.33892 34.286 10.2857 34.286H13.7143C14.6611 34.286 15.4286 33.5185 15.4286 32.5717C15.4286 31.6249 14.6611 30.8574 13.7143 30.8574Z" fill="#748792"/>
<path d="M25.7143 30.8574H22.2857C21.3389 30.8574 20.5714 31.6249 20.5714 32.5717C20.5714 33.5185 21.3389 34.286 22.2857 34.286H25.7143C26.6611 34.286 27.4286 33.5185 27.4286 32.5717C27.4286 31.6249 26.6611 30.8574 25.7143 30.8574Z" fill="#748792"/>
<path d="M37.7143 30.8574H34.2857C33.3389 30.8574 32.5714 31.6249 32.5714 32.5717C32.5714 33.5185 33.3389 34.286 34.2857 34.286H37.7143C38.6611 34.286 39.4286 33.5185 39.4286 32.5717C39.4285 31.6249 38.661 30.8574 37.7143 30.8574Z" fill="#748792"/>
<path d="M13.7143 37.7144H10.2857C9.33892 37.7144 8.57141 38.4819 8.57141 39.4287C8.57141 40.3755 9.33892 41.143 10.2857 41.143H13.7143C14.6611 41.143 15.4286 40.3754 15.4286 39.4286C15.4286 38.4818 14.6611 37.7144 13.7143 37.7144Z" fill="#748792"/>
<path d="M25.7143 37.7144H22.2857C21.3389 37.7144 20.5714 38.4819 20.5714 39.4287C20.5714 40.3755 21.3389 41.1431 22.2857 41.1431H25.7143C26.6611 41.1431 27.4286 40.3755 27.4286 39.4287C27.4286 38.4819 26.6611 37.7144 25.7143 37.7144Z" fill="#748792"/>
<path d="M37.7143 37.7144H34.2857C33.3389 37.7144 32.5714 38.4819 32.5714 39.4287C32.5714 40.3755 33.3389 41.1431 34.2857 41.1431H37.7143C38.6611 41.1431 39.4286 40.3755 39.4286 39.4287C39.4286 38.4819 38.661 37.7144 37.7143 37.7144Z" fill="#748792"/>
</svg>
