<svg width="54" height="54" viewBox="0 0 54 54" fill="none" xmlns="http://www.w3.org/2000/svg">
<path d="M48.7174 0H8.80432C5.89148 0 3.52171 2.36978 3.52171 5.28261V9.39136H1.76091C0.788379 9.39136 0 10.1797 0 11.1522C0 12.1246 0.788379 12.9131 1.76091 12.9131H3.52181V19.9566H1.76091C0.788379 19.9565 0 20.745 0 21.7174C0 22.6898 0.788379 23.4783 1.76091 23.4783H3.52181V30.5218H1.76091C0.788379 30.5217 0 31.3102 0 32.2826C0 33.255 0.788379 34.0435 1.76091 34.0435H3.52181V41.087H1.76091C0.788379 41.0869 0 41.8753 0 42.8478C0 43.8204 0.788379 44.6087 1.76091 44.6087H3.52181V48.7174C3.52171 51.6302 5.89148 54 8.80432 54H48.7174C51.6302 54 54 51.6302 54 48.7174V5.28261C54 2.36978 51.6302 0 48.7174 0ZM14.0869 50.4783H8.80432C7.83337 50.4783 7.04341 49.6883 7.04341 48.7174V44.6087H8.80432C9.77674 44.6087 10.5652 43.8204 10.5652 42.8478C10.5652 41.8753 9.77685 41.0869 8.80432 41.0869H7.04352V34.0434H8.80443C9.77685 34.0434 10.5653 33.255 10.5653 32.2825C10.5653 31.31 9.77695 30.5216 8.80443 30.5216H7.04352V23.4781H8.80443C9.77685 23.4781 10.5653 22.6897 10.5653 21.7172C10.5653 20.7448 9.77695 19.9563 8.80443 19.9563H7.04352V12.9128H8.80443C9.77685 12.9128 10.5653 12.1244 10.5653 11.1518C10.5653 10.1793 9.77695 9.39094 8.80443 9.39094H7.04352V5.28261C7.04352 4.31167 7.83348 3.52171 8.80443 3.52171H14.087V50.4783H14.0869ZM50.4783 48.7174C50.4783 49.6883 49.6883 50.4783 48.7174 50.4783H17.6087V3.52171H48.7174C49.6883 3.52171 50.4783 4.31167 50.4783 5.28261V48.7174Z" fill="white"/>
<path d="M45.1957 9.39136H22.8913C21.9189 9.39136 21.1304 10.1797 21.1304 11.1523C21.1304 12.1248 21.9188 12.9132 22.8913 12.9132H45.1956C46.168 12.9132 46.9565 12.1248 46.9565 11.1523C46.9565 10.1797 46.1681 9.39136 45.1957 9.39136Z" fill="white"/>
<path d="M35.0787 20.4517C34.7941 20.1627 34.4056 20 34 20C33.5944 20 33.2059 20.1626 32.9213 20.4517L28.5103 24.9291C25.1632 28.3266 25.1632 33.8548 28.5103 37.2523L32.4855 41.2874V43.4851C32.4855 44.3217 33.1636 45 34 45C34.8364 45 35.5145 44.3217 35.5145 43.4851V41.2874L39.4897 37.2523C42.8368 33.8548 42.8368 28.3266 39.4897 24.9291L35.0787 20.4517ZM37.3322 35.1256L35.5145 36.9708V29.5837C35.5145 28.7471 34.8364 28.0688 34 28.0688C33.1636 28.0688 32.4855 28.7471 32.4855 29.5837V36.9708L30.6678 35.1256C28.476 32.9008 28.476 29.2806 30.6678 27.0558L34 23.6733L37.3322 27.0558C39.524 29.2806 39.524 32.9008 37.3322 35.1256Z" fill="white"/>
</svg>
