<svg width="54" height="54" viewBox="0 0 54 54" fill="none" xmlns="http://www.w3.org/2000/svg">
<path d="M41.3438 54H12.6562C5.67759 54 0 48.3224 0 41.3438V12.6562C0 5.67759 5.67759 0 12.6562 0H41.3438C48.3224 0 54 5.67759 54 12.6562V41.3438C54 48.3224 48.3224 54 41.3438 54ZM12.6562 4.21875C8.00381 4.21875 4.21875 8.00381 4.21875 12.6562V41.3438C4.21875 45.9962 8.00381 49.7812 12.6562 49.7812H41.3438C45.9962 49.7812 49.7812 45.9962 49.7812 41.3438V12.6562C49.7812 8.00381 45.9962 4.21875 41.3438 4.21875H12.6562ZM14.4492 37.125C13.8953 37.125 13.3572 36.9067 12.9576 36.5073C12.4589 36.0085 12.2425 35.2937 12.3807 34.6023L13.5752 28.626C14.1675 25.6624 15.6102 22.9663 17.7473 20.8291L27.8838 10.6926C30.7498 7.70586 35.9064 7.70586 38.7722 10.6927C41.7591 13.5585 41.7589 18.7153 38.7721 21.581L28.6357 31.7175C26.4985 33.8546 23.8024 35.2972 20.8388 35.8896L14.8626 37.0842C14.7251 37.1116 14.5866 37.125 14.4492 37.125ZM33.3281 12.6562C32.3985 12.6562 31.5244 13.0183 30.8671 13.6756L20.7306 23.8122C19.1845 25.3583 18.1407 27.3087 17.7123 29.4527L17.1378 32.327L20.0122 31.7525C22.1561 31.3241 24.1066 30.2804 25.6526 28.7342L35.7891 18.5977C37.1395 17.3023 37.1393 14.9711 35.7891 13.6757C35.7891 13.6756 35.7891 13.6756 35.7891 13.6756C35.1319 13.0183 34.2577 12.6562 33.3281 12.6562ZM45.1406 43.4531C45.1406 42.2881 44.1963 41.3438 43.0312 41.3438H10.9688C8.17003 41.4551 8.17214 45.4521 10.9688 45.5625H43.0312C44.1963 45.5625 45.1406 44.6181 45.1406 43.4531Z" fill="white"/>
</svg>
