<svg width="72" height="72" viewBox="0 0 72 72" fill="none" xmlns="http://www.w3.org/2000/svg">
<path d="M69.8925 67.7296H63.7883V36.4662C64.3222 36.6049 64.8705 36.6757 65.4208 36.6757C66.4126 36.6756 67.4111 36.4485 68.343 35.9874C70.5987 34.8714 72 32.6146 72 30.0979C72 28.07 71.0424 26.1263 69.4363 24.8902L41.1344 1.81113C41.1159 1.79596 41.0969 1.78106 41.0778 1.76659C38.0933 -0.501598 33.914 -0.515648 30.9142 1.73231C30.8947 1.74692 30.8754 1.76196 30.8565 1.77727L2.65189 24.4842C0.990507 25.7451 0 27.7389 0 29.8257C0 32.394 1.42998 34.6971 3.73189 35.8359C5.15654 36.5408 6.73292 36.7091 8.21165 36.3662V67.7294H2.10746C0.943581 67.7294 0 68.673 0 69.8369C0 71.0008 0.943581 71.9443 2.10746 71.9443H69.8925C71.0564 71.9443 72 71.0008 72 69.8369C72 68.673 71.0564 67.7296 69.8925 67.7296ZM5.60107 32.0583C4.73308 31.6288 4.21492 30.7942 4.21492 29.8257C4.21492 29.0456 4.58766 28.3006 5.21203 27.8325C5.23156 27.8179 5.25081 27.803 5.26978 27.7877L33.4683 5.08556C34.9587 3.98701 37.0188 3.9939 38.5015 5.10284L66.7978 28.1773C66.8163 28.1925 66.8353 28.2074 66.8544 28.2218C67.4371 28.6645 67.7849 29.366 67.7849 30.0979C67.7849 31.0141 67.2947 31.8035 66.4737 32.2097C65.6527 32.6162 64.7279 32.527 63.9994 31.971L37.2785 11.5801C36.607 11.0625 35.5218 10.9564 34.7215 11.5801L8.21671 31.8059C7.44692 32.3935 6.4692 32.4878 5.60107 32.0583ZM12.4266 67.7296V34.4637L36.0001 15.9359L59.5736 34.4637V67.7294H12.4266V67.7296Z" fill="white"/>
<path d="M37.5012 27.8846C37.1052 27.4826 36.5645 27.2563 36.0002 27.2563C35.4358 27.2563 34.8951 27.4825 34.4991 27.8846L28.361 34.1133C23.7035 38.8396 23.7035 46.5299 28.361 51.2562L33.8927 56.8695V59.9267C33.8927 61.0906 34.8363 62.0342 36.0002 62.0342C37.164 62.0342 38.1076 61.0906 38.1076 59.9267V56.8695L43.6393 51.2562C48.2968 46.5299 48.2968 38.8396 43.6393 34.1133L37.5012 27.8846ZM40.637 48.2977L38.1076 50.8646V40.5884C38.1076 39.4245 37.164 38.4809 36.0002 38.4809C34.8363 38.4809 33.8927 39.4245 33.8927 40.5884V50.8646L31.3633 48.2977C28.3134 45.2027 28.3134 40.1667 31.3633 37.0717L36.0002 32.3663L40.637 37.0717C43.6869 40.1667 43.6869 45.2027 40.637 48.2977Z" fill="white"/>
</svg>
