<svg width="60" height="80" viewBox="0 0 60 80" fill="none" xmlns="http://www.w3.org/2000/svg">
<path d="M43.885 17.63C39.795 12.41 35.565 7.02 32.155 1.23C31.705 0.47 30.885 0 30 0C29.115 0 28.295 0.47 27.85 1.23C24.44 7.015 20.21 12.41 16.12 17.625C7.83 28.195 0 38.18 0 50C0 66.545 13.455 80 30 80C46.545 80 60 66.545 60 50C60 38.185 52.175 28.2 43.885 17.63ZM30 75C16.215 75 5 63.785 5 50C5 39.905 12.31 30.585 20.055 20.71C23.435 16.4 26.905 11.975 30 7.235C33.095 11.975 36.565 16.405 39.945 20.715C47.69 30.585 55 39.91 55 50C55 63.785 43.785 75 30 75Z" fill="#22AFE5"/>
<path d="M22.5 30C18.365 30 15 33.365 15 37.5C15 41.635 18.365 45 22.5 45C26.635 45 30 41.635 30 37.5C30 33.365 26.635 30 22.5 30ZM22.5 40C21.12 40 20 38.88 20 37.5C20 36.12 21.12 35 22.5 35C23.88 35 25 36.12 25 37.5C25 38.88 23.88 40 22.5 40Z" fill="#22AFE5"/>
<path d="M37.5 55C33.365 55 30 58.365 30 62.5C30 66.635 33.365 70 37.5 70C41.635 70 45 66.635 45 62.5C45 58.365 41.635 55 37.5 55ZM37.5 65C36.125 65 35 63.875 35 62.5C35 61.125 36.125 60 37.5 60C38.875 60 40 61.125 40 62.5C40 63.875 38.875 65 37.5 65Z" fill="#22AFE5"/>
<path d="M44.2651 35.7352C43.2901 34.7602 41.7051 34.7602 40.7301 35.7352L15.7302 60.7351C14.7552 61.7101 14.7552 63.2951 15.7302 64.2701C16.2202 64.7551 16.8602 65.0001 17.5002 65.0001C18.1401 65.0001 18.7802 64.7551 19.2652 64.2701L44.2651 39.2702C45.2401 38.2952 45.2401 36.7102 44.2651 35.7352Z" fill="#22AFE5"/>
</svg>
