<svg width="80" height="80" viewBox="0 0 80 80" fill="none" xmlns="http://www.w3.org/2000/svg">
<path d="M53.885 17.63C49.795 12.41 45.565 7.02 42.155 1.23C41.705 0.47 40.885 0 40 0C39.115 0 38.295 0.47 37.85 1.23C34.44 7.015 30.21 12.41 26.12 17.625C17.83 28.195 10 38.18 10 50C10 66.545 23.455 80 40 80C56.545 80 70 66.545 70 50C70 38.185 62.175 28.2 53.885 17.63ZM40 75C26.215 75 15 63.785 15 50C15 39.905 22.31 30.585 30.055 20.71C33.435 16.4 36.905 11.975 40 7.235C43.095 11.975 46.565 16.405 49.945 20.715C57.69 30.585 65 39.91 65 50C65 63.785 53.785 75 40 75Z" fill="#189D6D"/>
<path d="M32.5 30C28.365 30 25 33.365 25 37.5C25 41.635 28.365 45 32.5 45C36.635 45 40 41.635 40 37.5C40 33.365 36.635 30 32.5 30ZM32.5 40C31.12 40 30 38.88 30 37.5C30 36.12 31.12 35 32.5 35C33.88 35 35 36.12 35 37.5C35 38.88 33.88 40 32.5 40Z" fill="#189D6D"/>
<path d="M47.5 55C43.365 55 40 58.365 40 62.5C40 66.635 43.365 70 47.5 70C51.635 70 55 66.635 55 62.5C55 58.365 51.635 55 47.5 55ZM47.5 65C46.125 65 45 63.875 45 62.5C45 61.125 46.125 60 47.5 60C48.875 60 50 61.125 50 62.5C50 63.875 48.875 65 47.5 65Z" fill="#189D6D"/>
<path d="M54.265 35.7352C53.29 34.7602 51.705 34.7602 50.73 35.7352L25.73 60.7351C24.755 61.7101 24.755 63.2951 25.73 64.2701C26.22 64.7551 26.86 65.0001 27.5 65.0001C28.14 65.0001 28.78 64.7551 29.265 64.2701L54.265 39.2702C55.24 38.2952 55.24 36.7102 54.265 35.7352Z" fill="#189D6D"/>
</svg>
