<svg width="54" height="54" viewBox="0 0 54 54" fill="none" xmlns="http://www.w3.org/2000/svg">
<path d="M42.5455 29.4545H8.38031L16.463 37.5372C17.4215 38.4956 17.4215 40.0498 16.463 41.0084C15.9837 41.4875 15.3555 41.7273 14.7273 41.7273C14.0991 41.7273 13.4709 41.4875 12.9917 41.0083L0.719017 28.7355C-0.239563 27.7771 -0.239563 26.2229 0.719017 25.2643L12.9917 12.9916C13.9502 12.0332 15.5044 12.0332 16.463 12.9916C17.4215 13.95 17.4215 15.5042 16.463 16.4628L8.38031 24.5455H42.5455C43.901 24.5455 45 25.6444 45 27C45 28.3556 43.901 29.4545 42.5455 29.4545Z" fill="white"/>
</svg>
