<svg width="72" height="72" viewBox="0 0 72 72" fill="none" xmlns="http://www.w3.org/2000/svg">
<path d="M60.75 0H11.25C5.04675 0 0 5.04675 0 11.25V14.0625C0 15.6158 1.25916 16.875 2.8125 16.875C4.36584 16.875 5.625 15.6158 5.625 14.0625V11.25C5.625 8.14837 8.14837 5.625 11.25 5.625H60.75C63.8516 5.625 66.375 8.14837 66.375 11.25V60.75C66.375 63.8516 63.8516 66.375 60.75 66.375H11.25C8.14837 66.375 5.625 63.8516 5.625 60.75V57.9375C5.625 56.3842 4.36584 55.125 2.8125 55.125C1.25916 55.125 0 56.3842 0 57.9375V60.75C0 66.9532 5.04675 72 11.25 72H60.75C66.9532 72 72 66.9532 72 60.75V11.25C72 5.04675 66.9532 0 60.75 0Z" fill="white"/>
<path d="M6.46749 38.0078C6.4613 38.0013 6.45497 37.995 6.44865 37.9887C5.35205 36.8921 5.35205 35.1078 6.45441 34.0055L16.9006 23.4985C17.9958 22.397 17.9906 20.6163 16.8891 19.5211C15.7876 18.426 14.0068 18.4311 12.9116 19.5326L2.47121 30.0338C-0.815056 33.3201 -0.818571 38.6652 2.46094 41.9558L12.8987 52.5945C13.4494 53.1561 14.1775 53.4375 14.9064 53.4375C15.6171 53.4375 16.3285 53.1697 16.8757 52.6327C17.9845 51.5448 18.0016 49.764 16.9137 48.6554L6.46749 38.0078Z" fill="white"/>
<path d="M46.8281 33.1875H16.875C15.3217 33.1875 14.0625 34.4467 14.0625 36C14.0625 37.5533 15.3217 38.8125 16.875 38.8125H46.8281C48.3815 38.8125 49.6406 37.5533 49.6406 36C49.6406 34.4467 48.3815 33.1875 46.8281 33.1875Z" fill="white"/>
</svg>
