<svg width="54" height="54" viewBox="0 0 54 54" fill="none" xmlns="http://www.w3.org/2000/svg">
<path d="M45.5625 0H37.5469C32.8944 0 29.1094 3.78506 29.1094 8.4375V16.4531C29.1094 21.1056 32.8944 24.8906 37.5469 24.8906H45.5625C50.2149 24.8906 54 21.1056 54 16.4531V8.4375C54 3.78506 50.2149 0 45.5625 0ZM49.7812 16.4531C49.7812 18.7793 47.8887 20.6719 45.5625 20.6719H37.5469C35.2207 20.6719 33.3281 18.7793 33.3281 16.4531V8.4375C33.3281 6.11128 35.2207 4.21875 37.5469 4.21875H45.5625C47.8887 4.21875 49.7812 6.11128 49.7812 8.4375V16.4531Z" fill="white"/>
<path d="M16.4531 0H8.4375C3.78506 0 0 3.78506 0 8.4375V16.4531C0 21.1056 3.78506 24.8906 8.4375 24.8906H16.4531C21.1056 24.8906 24.8906 21.1056 24.8906 16.4531V8.4375C24.8906 3.78506 21.1056 0 16.4531 0ZM20.6719 16.4531C20.6719 18.7793 18.7793 20.6719 16.4531 20.6719H8.4375C6.11128 20.6719 4.21875 18.7793 4.21875 16.4531V8.4375C4.21875 6.11128 6.11128 4.21875 8.4375 4.21875H16.4531C18.7793 4.21875 20.6719 6.11128 20.6719 8.4375V16.4531Z" fill="white"/>
<path d="M16.4531 29.1094H8.4375C3.78506 29.1094 0 32.8944 0 37.5469V45.5625C0 50.2149 3.78506 54 8.4375 54H16.4531C21.1056 54 24.8906 50.2149 24.8906 45.5625V37.5469C24.8906 32.8944 21.1056 29.1094 16.4531 29.1094ZM20.6719 45.5625C20.6719 47.8887 18.7793 49.7812 16.4531 49.7812H8.4375C6.11128 49.7812 4.21875 47.8887 4.21875 45.5625V37.5469C4.21875 35.2207 6.11128 33.3281 8.4375 33.3281H16.4531C18.7793 33.3281 20.6719 35.2207 20.6719 37.5469V45.5625Z" fill="white"/>
<path d="M51.8906 43.4531C50.7256 43.4531 49.7812 44.3975 49.7812 45.5625C49.7812 47.8887 47.8887 49.7812 45.5625 49.7812H37.5469C35.2207 49.7812 33.3281 47.8887 33.3281 45.5625V37.5469C33.3281 35.2207 35.2207 33.3281 37.5469 33.3281H45.5625C47.24 33.3281 48.7583 34.3215 49.4306 35.859C49.8973 36.9264 51.1411 37.4131 52.2084 36.9465C53.2759 36.4797 53.7627 35.2361 53.296 34.1687C51.952 31.0952 48.9164 29.1094 45.5625 29.1094H37.5469C32.8944 29.1094 29.1094 32.8944 29.1094 37.5469V45.5625C29.1094 50.2149 32.8944 54 37.5469 54H45.5625C50.2149 54 54 50.2149 54 45.5625C54 44.3975 53.0556 43.4531 51.8906 43.4531Z" fill="white"/>
</svg>
