<svg width="404" height="456" viewBox="0 0 404 456" fill="none" xmlns="http://www.w3.org/2000/svg">
<g clip-path="url(#clip0)">
<path d="M61.4101 443.344C61.4101 446.958 60.1217 449.978 57.5449 452.403C55.0463 454.8 51.9926 456 48.3813 456H24.9422C21.3057 456 18.2381 454.8 15.7394 452.403C13.1878 449.978 11.9133 446.958 11.9133 443.344V428.676C11.9133 425.118 13.1878 422.107 15.7394 419.662C18.2632 417.237 21.3308 416.021 24.9422 416.021H48.3813C51.9647 416.021 55.0212 417.237 57.5449 419.662C60.1217 422.11 61.4101 425.118 61.4101 428.676V443.344ZM52.093 428.676C52.093 426.452 50.8576 425.341 48.3813 425.341H24.9422C22.4658 425.341 21.2304 426.452 21.2304 428.676V443.344C21.2304 445.568 22.4658 446.679 24.9422 446.679H48.3813C50.8576 446.679 52.093 445.568 52.093 443.344V428.676Z" fill="white"/>
<path d="M107.839 456H98.561L74.5893 429.059V456H65.2722V416.021H74.5893L98.561 442.739V416.021H107.839V456Z" fill="white"/>
<path d="M154.266 425.341H121.016V431.33H152.105V440.612H121.016V446.679H154.266V456H111.699V416.021H154.266V425.341Z" fill="white"/>
<path d="M223.944 425.341H190.697V431.33H221.864V440.612H190.697V456H181.38V416.021H223.947V425.341H223.944Z" fill="white"/>
<path d="M271.411 456H262.132V443.269H231.8V456H222.483V428.378C222.483 424.993 223.517 422.11 225.586 419.732C227.734 417.257 230.447 416.021 233.73 416.021H260.086C263.368 416.021 266.095 417.257 268.268 419.732C270.362 422.11 271.411 424.993 271.411 428.378V456ZM231.8 433.948H262.132V428.378C262.132 426.354 261.452 425.341 260.088 425.341H233.732C232.444 425.341 231.803 426.354 231.803 428.378V433.948H231.8Z" fill="white"/>
<path d="M322.118 456H309.396L297.694 442.892H284.593V456H275.273V416.021H313.978C317.332 416.021 320.074 417.335 322.193 419.961C324.262 422.489 325.297 425.657 325.297 429.472C325.297 433.287 324.262 436.46 322.193 438.982C320.071 441.589 317.332 442.889 313.978 442.889H310.416L322.118 456ZM284.59 433.566H313.448C315.138 433.566 315.986 432.204 315.986 429.472C315.986 426.72 315.138 425.341 313.448 425.341H284.59V433.566Z" fill="white"/>
<path d="M379.794 456H370.477V431.637L353.892 455.319L337.305 431.637V456H327.988V416.021H337.759L353.892 439.1L370.1 416.021H379.796V456H379.794Z" fill="white"/>
<path d="M355.627 258.017C363.569 238.524 367.987 217.231 367.987 194.913C367.987 107.632 300.996 35.7488 215.773 27.9656C215.592 27.1926 215.375 26.4251 215.082 25.6688C213.428 21.3991 210.216 18.0279 206.03 16.1777C201.841 14.3247 197.187 14.2158 192.92 15.8707C188.653 17.5256 185.285 20.7433 183.433 24.9321C182.959 26.0037 182.605 27.106 182.359 28.2223C98.433 37.2698 32.8677 108.564 32.8677 194.913C32.8677 216.96 37.1038 238.356 45.4002 258.553C36.7329 264.229 32.0674 268.074 32.0674 268.074C32.0674 268.074 71.6447 377.3 196.983 379.432C331.605 381.72 371.169 268.074 371.169 268.074C365.959 264.516 360.781 261.184 355.627 258.017ZM199.236 22.6353C204.186 22.6353 208.199 26.6512 208.199 31.6047C208.199 36.5581 204.186 40.574 199.236 40.574C194.286 40.574 190.274 36.5581 190.274 31.6047C190.274 26.6512 194.286 22.6353 199.236 22.6353ZM243.228 215.115V267.943L282.588 296.911C286.732 293.562 291.967 291.544 297.664 291.544C311.033 291.544 321.906 302.581 321.906 316.147C321.906 329.713 311.033 340.75 297.664 340.75C284.292 340.75 273.416 329.713 273.416 316.147C273.416 313.485 273.848 310.926 274.624 308.523L229.285 275.16V213.248C222.254 212.5 215.352 212.046 208.587 211.85V323.648C218.565 326.696 225.857 336.098 225.857 347.202C225.857 360.767 214.984 371.805 201.615 371.805C188.243 371.805 177.367 360.767 177.367 347.202C177.367 336.095 184.663 326.696 194.643 323.648V211.814C187.716 211.973 180.945 212.392 174.353 213.042V275.16L128.191 309.131C128.847 311.355 129.209 313.708 129.209 316.147C129.209 329.713 118.333 340.75 104.964 340.75C91.5951 340.75 80.7192 329.713 80.7192 316.147C80.7192 302.581 91.5951 291.544 104.964 291.544C110.882 291.544 116.306 293.713 120.52 297.301L160.409 267.943V214.775C113.81 221.777 77.0437 239.461 55.0212 252.555C47.7511 234.223 44.0198 214.861 44.0198 194.913C44.0198 114.246 105.321 47.6512 183.751 39.293C185.516 42.9516 188.422 45.8819 192.178 47.5451C194.395 48.5274 196.743 49.0158 199.094 49.0158C201.186 49.0158 203.28 48.6251 205.288 47.8493C209.457 46.2335 212.745 43.1107 214.616 39.067C294.228 46.2698 356.829 113.397 356.829 194.911C356.829 215.143 352.93 234.469 345.917 252.234C309.915 231.622 275.377 220.236 243.228 215.115Z" fill="white"/>
<path d="M104.961 326.598C110.651 326.598 115.263 321.918 115.263 316.144C115.263 310.371 110.651 305.69 104.961 305.69C99.2718 305.69 94.6597 310.371 94.6597 316.144C94.6597 321.918 99.2718 326.598 104.961 326.598Z" fill="white"/>
<path d="M297.664 326.598C303.341 326.598 307.962 321.91 307.962 316.144C307.962 310.379 303.341 305.69 297.664 305.69C291.98 305.69 287.359 310.379 287.359 316.144C287.359 321.91 291.98 326.598 297.664 326.598Z" fill="white"/>
<path d="M191.311 347.202C191.311 352.967 195.932 357.656 201.615 357.656C207.293 357.656 211.914 352.967 211.914 347.202C211.914 341.439 207.293 336.748 201.615 336.748C195.935 336.748 191.311 341.436 191.311 347.202Z" fill="white"/>
<path d="M199.108 104.327V95.7154C199.108 88.3563 199.105 80.9945 199.108 73.6354C199.108 73.1721 198.935 72.5638 199.183 72.2735C199.928 71.4112 200.829 70.0745 201.693 70.0577C202.549 70.0382 203.548 71.3247 204.262 72.1954C204.579 72.5833 204.37 73.3507 204.37 73.9479C204.373 82.9647 204.373 91.9814 204.373 100.998V104.157C207.112 102.561 209.644 101.04 212.226 99.5917C215.283 97.8726 218.345 96.148 221.49 94.574C222.899 93.868 223.4 92.9973 223.334 91.5684C223.236 89.3163 223.281 87.0586 223.314 84.8066C223.35 82.6717 224.271 81.5638 225.921 81.5666C227.589 81.5693 228.504 82.6577 228.509 84.7954C228.537 99.7787 228.548 114.765 228.576 129.748C228.582 133.108 228.571 136.474 228.657 139.834C228.71 141.832 227.768 143.074 225.88 143.182C224.421 143.266 223.186 142.058 223.163 140.196C223.11 136.421 223.2 132.639 223.233 128.863C223.239 128.227 223.233 127.594 223.233 126.6C220.107 128.202 217.288 129.572 214.557 131.074C212.778 132.05 211.175 133.303 209.398 134.283C206.646 135.807 205.017 138.313 204.83 140.914C204.401 146.888 204.694 152.911 204.694 158.69C210.963 155.241 217.38 151.697 223.813 148.175C226.605 146.646 228.537 147.687 228.543 150.72C228.548 156.287 228.412 161.861 228.54 167.428C228.702 174.31 225.422 179.392 219.326 183.022C216.194 184.887 212.918 186.53 209.697 188.261C208.261 189.034 206.836 189.268 205.74 187.792C204.803 186.522 205.293 185.35 207.237 184.259C210.171 182.612 213.152 181.033 216.094 179.397C220.879 176.738 223.565 173.029 223.342 167.648C223.161 163.231 223.306 158.802 223.306 153.745C217.692 157.337 211.618 159.237 207.215 163.563C206.445 164.316 205.751 165.274 205.444 166.25C204.914 167.939 204.432 169.714 204.418 171.455C204.331 183.123 204.37 194.791 204.373 206.459C204.373 206.858 204.381 207.257 204.37 207.653C204.315 209.64 203.252 210.921 201.696 210.893C200.151 210.868 199.119 209.598 199.116 207.575C199.102 195.706 198.994 183.837 199.158 171.974C199.231 166.781 196.927 163.066 192.278 160.454C188.444 158.3 184.551 156.237 180.329 153.943C180.265 154.998 180.187 155.69 180.184 156.38C180.176 160.292 180.284 164.205 180.153 168.114C179.991 173.004 182.476 176.478 186.723 179.001C189.794 180.823 192.998 182.45 196.127 184.192C197.538 184.976 198.865 185.872 197.828 187.666C197.025 189.056 195.561 189.215 193.561 188.124C189.989 186.173 186.308 184.362 182.911 182.168C177.493 178.674 174.891 173.777 174.941 167.576C175.025 156.313 174.91 145.049 174.891 133.786C174.883 130.284 174.796 126.773 174.994 123.279C175.055 122.235 175.691 120.848 176.561 120.338C177.245 119.933 178.831 120.402 179.774 120.887C184.523 123.329 189.217 125.863 193.876 128.45C195.564 129.388 197.1 130.563 198.888 131.749C198.888 125.501 199.206 119.417 198.715 113.389C198.548 111.354 196.807 108.899 194.984 107.615C190.524 104.481 185.594 101.919 180.382 98.8466C180.284 100.139 180.189 100.822 180.187 101.506C180.173 105.151 180.29 108.804 180.106 112.443C180.056 113.475 179.423 114.868 178.555 115.404C176.807 116.478 174.977 115.027 174.969 112.68C174.944 105.388 174.958 98.0959 174.958 90.8038C174.958 88.747 174.947 86.6903 174.955 84.6363C174.961 83.0261 175.449 81.6977 177.501 81.5749C179.107 81.48 180.117 82.5824 180.167 84.5442C180.229 86.9945 180.044 89.4587 180.251 91.8977C180.323 92.7656 181.015 93.8931 181.801 94.3619C187.384 97.6856 193.068 100.875 199.108 104.327ZM180.318 126.516C180.15 126.96 180.025 127.141 180.022 127.323C179.997 133.619 179.955 139.914 179.989 146.21C179.994 147.667 180.619 148.792 182.214 149.526C184.386 150.528 186.408 151.806 188.489 152.975C191.991 154.942 195.486 156.918 199.094 158.953C199.094 154.521 198.826 150.131 199.161 145.783C199.571 140.501 197.627 136.384 192.942 133.518C188.904 131.051 184.643 128.9 180.318 126.516ZM204.518 131.283C210.637 127.923 216.476 124.764 222.238 121.482C222.832 121.141 223.242 120.095 223.253 119.369C223.334 113.283 223.306 107.194 223.297 101.104C223.297 100.541 223.2 99.9796 223.085 98.7796C217.748 102.011 212.636 104.771 207.993 108.092C206.269 109.328 204.83 111.826 204.674 113.841C204.231 119.556 204.518 125.322 204.518 131.283Z" fill="white"/>
<path d="M201.746 212.288C201.721 212.288 201.696 212.288 201.673 212.288C199.314 212.249 197.724 210.36 197.722 207.578L197.699 198.413C197.688 195.552 197.68 192.659 197.674 189.748C196.684 190.328 195.139 190.582 192.894 189.346C191.93 188.821 190.959 188.305 189.983 187.786C187.376 186.402 184.679 184.97 182.152 183.338C176.388 179.62 173.491 174.315 173.544 167.565C173.602 159.957 173.569 152.35 173.532 144.739C173.516 141.089 173.499 137.439 173.493 133.786L173.479 131.52C173.46 128.796 173.44 125.983 173.599 123.201C173.677 121.825 174.492 119.933 175.85 119.135C177.465 118.18 180.111 119.492 180.409 119.648C184.768 121.889 189.395 124.367 194.548 127.231C195.577 127.803 196.525 128.439 197.507 129.114C197.515 128.221 197.529 127.326 197.543 126.438C197.607 121.97 197.672 117.751 197.326 113.506C197.203 112.024 195.792 109.892 194.18 108.759C191.093 106.588 187.755 104.685 184.224 102.672C183.354 102.176 182.476 101.679 181.592 101.166C181.583 101.283 181.581 101.397 181.581 101.512C181.575 102.617 181.583 103.716 181.592 104.821C181.611 107.339 181.631 109.942 181.5 112.515C181.433 113.872 180.633 115.761 179.288 116.595C178.137 117.301 176.834 117.36 175.708 116.729C174.4 115.998 173.583 114.452 173.577 112.688C173.555 107.219 173.558 101.746 173.56 96.2762L173.563 90.8064L173.56 84.6334C173.574 80.9636 175.981 80.2716 177.417 80.185C178.521 80.1264 179.486 80.4446 180.22 81.1199C181.062 81.893 181.528 83.065 181.561 84.5106C181.586 85.479 181.572 86.4474 181.558 87.4185C181.539 88.9283 181.519 90.3571 181.639 91.7832C181.678 92.2129 182.136 92.9385 182.515 93.1646C186.762 95.6929 191.071 98.146 195.555 100.699L197.711 101.927V73.6381C197.711 73.5488 197.699 73.4483 197.688 73.3478C197.635 72.8232 197.557 72.025 198.123 71.3664L198.519 70.8892C199.359 69.8595 200.312 68.6902 201.665 68.665C201.684 68.665 201.701 68.665 201.718 68.665C203.171 68.665 204.297 70.0381 205.204 71.1488C205.929 72.039 205.848 72.9097 205.792 73.5432C205.778 73.6827 205.764 73.8223 205.764 73.9506L205.767 101.724L206.079 101.542C207.934 100.451 209.727 99.3962 211.543 98.3776C214.591 96.6641 217.703 94.9116 220.865 93.3292C221.822 92.8492 221.978 92.4669 221.942 91.6353C221.847 89.4613 221.883 87.2706 221.914 85.1553L221.919 84.7897C221.97 81.9013 223.461 80.1767 225.916 80.1767C225.918 80.1767 225.921 80.1767 225.924 80.1767C228.409 80.1795 229.895 81.9069 229.903 84.7981L229.973 131.191C229.976 134.059 229.979 136.934 230.051 139.803C230.121 142.599 228.556 144.43 225.96 144.58C224.926 144.664 223.913 144.276 223.144 143.559C222.271 142.741 221.783 141.555 221.766 140.219C221.727 137.52 221.763 134.813 221.799 132.109L221.838 128.88L221.091 129.259C219.047 130.292 217.114 131.269 215.226 132.307C214.362 132.779 213.545 133.32 212.728 133.861C211.858 134.436 210.985 135.008 210.07 135.516C207.817 136.761 206.378 138.82 206.222 141.022C205.918 145.236 205.979 149.528 206.038 153.681C206.052 154.571 206.066 155.464 206.074 156.349L208.893 154.794C213.601 152.202 218.367 149.576 223.144 146.961C225.634 145.596 227.257 146.14 228.004 146.584C228.724 147.008 229.931 148.116 229.937 150.726C229.94 152.671 229.923 154.619 229.906 156.564C229.878 160.175 229.848 163.792 229.934 167.403C230.101 174.558 226.772 180.22 220.037 184.228C217.728 185.601 215.321 186.871 212.993 188.099L210.355 189.488C208.28 190.605 206.793 190.379 205.759 189.714C205.759 192.617 205.762 195.519 205.764 198.424L205.773 206.807C205.773 207.103 205.775 207.399 205.767 207.689C205.689 210.41 204.041 212.288 201.746 212.288ZM179.076 151.674L184.81 154.78C187.615 156.293 190.304 157.744 192.964 159.237C198.148 162.156 200.633 166.328 200.558 171.993C200.435 180.79 200.463 189.745 200.491 198.407L200.516 207.575C200.516 208.147 200.636 209.484 201.726 209.498C201.735 209.498 201.743 209.498 201.749 209.498C202.847 209.498 202.973 208.055 202.984 207.611L202.99 206.827L202.981 198.427C202.973 189.432 202.962 180.438 203.031 171.444C203.048 169.515 203.564 167.604 204.125 165.829C204.468 164.724 205.226 163.563 206.252 162.561C209.178 159.689 212.675 157.895 216.375 155.997C218.425 154.945 220.547 153.857 222.566 152.567L224.714 151.194V153.742C224.714 155.35 224.7 156.896 224.683 158.397C224.652 161.592 224.624 164.606 224.747 167.587C224.979 173.166 222.296 177.547 216.783 180.614C215.441 181.359 214.091 182.09 212.744 182.827C211.135 183.7 209.526 184.577 207.928 185.472C207.022 185.98 206.721 186.385 206.687 186.544C206.671 186.622 206.743 186.781 206.871 186.957C207.178 187.37 207.527 187.842 209.044 187.024L211.701 185.615C213.999 184.404 216.378 183.151 218.62 181.817C224.507 178.312 227.299 173.615 227.157 167.456C227.073 163.814 227.098 160.172 227.129 156.527C227.145 154.593 227.162 152.654 227.159 150.717C227.157 149.835 226.947 149.182 226.596 148.973C226.284 148.794 225.573 148.806 224.493 149.394C219.716 152.009 214.95 154.635 210.246 157.225L203.31 161.046V158.685C203.31 157.041 203.285 155.378 203.263 153.703C203.204 149.492 203.14 145.139 203.45 140.807C203.676 137.659 205.65 134.763 208.734 133.058C209.588 132.589 210.396 132.053 211.205 131.517C212.086 130.937 212.97 130.356 213.899 129.846C215.815 128.793 217.773 127.803 219.85 126.756L224.641 124.314L224.602 132.137C224.566 134.816 224.532 137.498 224.569 140.174C224.574 140.746 224.75 141.22 225.062 141.511C225.274 141.709 225.57 141.798 225.815 141.79C226.599 141.742 227.318 141.48 227.276 139.87C227.204 136.979 227.201 134.085 227.198 131.191L227.129 84.8009C227.123 82.9674 226.406 82.9646 225.932 82.9646C225.578 82.9283 224.755 82.9534 224.722 84.8316L224.716 85.1971C224.683 87.2734 224.649 89.4223 224.741 91.5125C224.831 93.5162 224 94.8864 222.126 95.8269C219.025 97.3785 215.94 99.1143 212.959 100.789C211.119 101.821 209.345 102.865 207.507 103.948L202.992 106.588L202.99 73.9506C202.99 73.7441 203.009 73.5181 203.029 73.292C203.04 73.1804 203.054 73.0241 203.057 72.9125C202.591 72.346 201.924 71.559 201.609 71.4418C201.595 71.5506 201.01 72.2706 200.697 72.6557L200.463 72.9376C200.469 72.985 200.474 73.0325 200.48 73.0827C200.499 73.2753 200.516 73.4678 200.516 73.6436V106.739L194.191 103.13C189.693 100.568 185.368 98.1069 181.101 95.5674C179.944 94.8753 178.987 93.3516 178.876 92.0204C178.742 90.4576 178.764 88.8948 178.784 87.3823C178.798 86.4474 178.811 85.5153 178.786 84.5832C178.77 83.9329 178.611 83.4195 178.346 83.1767C178.287 83.1181 178.086 82.9423 177.596 82.9729C176.762 83.0232 176.369 83.2046 176.363 84.6474V96.279C176.36 101.746 176.357 107.216 176.38 112.68C176.383 113.584 176.759 114.117 177.08 114.296C177.227 114.377 177.465 114.452 177.838 114.223C178.206 113.994 178.692 113.099 178.728 112.379C178.853 109.886 178.834 107.325 178.814 104.846C178.806 103.736 178.798 102.619 178.803 101.509C178.806 101.037 178.848 100.566 178.904 99.9236L179.174 96.5134L181.101 97.652C182.632 98.5534 184.138 99.4129 185.616 100.256C189.205 102.301 192.596 104.235 195.795 106.482C197.777 107.88 199.897 110.662 200.114 113.286C200.471 117.664 200.404 122.152 200.343 126.486C200.315 128.23 200.29 129.988 200.29 131.757V134.358L198.126 132.921C197.543 132.533 196.988 132.148 196.442 131.771C195.337 131.006 194.292 130.284 193.21 129.681C188.078 126.832 183.48 124.367 179.146 122.138C178.349 121.73 177.417 121.546 177.172 121.596C176.915 121.764 176.435 122.646 176.396 123.371C176.243 126.064 176.263 128.835 176.282 131.514L176.296 133.794C176.302 137.445 176.318 141.092 176.335 144.742C176.371 152.361 176.402 159.979 176.346 167.598C176.299 173.408 178.7 177.795 183.678 181.007C186.104 182.576 188.748 183.977 191.302 185.336C192.287 185.858 193.268 186.377 194.241 186.91C196.082 187.914 196.453 187.278 196.631 186.977C196.793 186.695 196.827 186.516 196.807 186.449C196.748 186.232 196.294 185.886 195.46 185.419C194.314 184.78 193.157 184.161 192.002 183.536C189.989 182.453 187.981 181.373 186.023 180.212C181.042 177.254 178.602 173.174 178.767 168.078C178.853 165.472 178.834 162.865 178.814 160.253C178.806 158.964 178.795 157.674 178.798 156.385C178.8 155.902 178.837 155.422 178.878 154.836L179.076 151.674ZM221.903 156.22C220.472 157.032 219.041 157.766 217.639 158.486C214.13 160.286 210.817 161.983 208.193 164.562C207.499 165.24 206.983 166.007 206.777 166.672C206.283 168.24 205.823 169.906 205.812 171.472C205.781 175.493 205.767 179.52 205.759 183.544C206.001 183.371 206.266 183.209 206.554 183.045C208.157 182.146 209.777 181.261 211.398 180.382C212.736 179.651 214.08 178.923 215.41 178.18C220.059 175.599 222.134 172.272 221.944 167.71C221.819 164.657 221.85 161.606 221.88 158.378C221.891 157.666 221.897 156.949 221.903 156.22ZM181.581 156.206C181.578 156.265 181.578 156.326 181.578 156.385C181.575 157.663 181.586 158.944 181.595 160.222C181.617 162.871 181.636 165.516 181.547 168.162C181.413 172.217 183.34 175.37 187.434 177.804C189.356 178.942 191.333 180.006 193.31 181.072C194.478 181.699 195.647 182.327 196.804 182.975C197.094 183.137 197.39 183.304 197.674 183.497C197.683 179.646 197.708 175.789 197.761 171.957C197.822 167.344 195.862 164.076 191.589 161.671C188.946 160.186 186.271 158.743 183.48 157.236L181.581 156.206ZM200.259 73.1609L200.237 73.1888C200.245 73.1804 200.254 73.1692 200.259 73.1609ZM200.488 161.339L187.805 154.189C187.211 153.857 186.62 153.513 186.029 153.17C184.537 152.299 183.128 151.485 181.631 150.79C179.623 149.869 178.602 148.328 178.594 146.213C178.566 141.139 178.588 136.06 178.611 130.984L178.627 127.314C178.633 126.904 178.764 126.608 178.876 126.349L179.587 124.515L180.992 125.291C182.342 126.036 183.686 126.753 185.016 127.471C188.02 129.084 190.861 130.607 193.67 132.324C198.695 135.396 201.012 139.956 200.552 145.886C200.326 148.828 200.379 151.747 200.438 154.836C200.466 156.201 200.491 157.571 200.491 158.947V161.339H200.488ZM181.419 128.707L181.399 130.998C181.377 136.066 181.355 141.137 181.383 146.202C181.385 147.047 181.628 147.72 182.797 148.256C184.414 149.004 185.948 149.894 187.429 150.756C188.009 151.094 188.586 151.429 189.172 151.758L197.677 156.55C197.669 155.997 197.658 155.445 197.649 154.892C197.591 151.872 197.535 148.75 197.772 145.674C198.148 140.81 196.327 137.224 192.214 134.707C189.475 133.03 186.667 131.523 183.695 129.929C182.942 129.527 182.183 129.12 181.419 128.707ZM203.126 133.641V131.283C203.126 129.594 203.101 127.917 203.079 126.254C203.02 121.951 202.962 117.885 203.285 113.732C203.475 111.29 205.115 108.441 207.181 106.959C210.533 104.562 214.069 102.483 217.812 100.286C219.306 99.4102 220.826 98.5171 222.366 97.585L224.265 96.4353L224.583 99.6753C224.649 100.284 224.691 100.691 224.691 101.104L224.697 103.485C224.708 108.784 224.719 114.089 224.647 119.389C224.63 120.522 224.022 122.065 222.932 122.693C218.411 125.269 213.846 127.766 209.139 130.342L203.126 133.641ZM221.903 101.115C221.002 101.648 220.107 102.176 219.223 102.692C215.536 104.855 212.056 106.903 208.807 109.228C207.424 110.219 206.191 112.337 206.066 113.947C205.756 117.971 205.809 121.976 205.87 126.215C205.881 127.116 205.895 128.02 205.904 128.936L207.803 127.895C212.499 125.325 217.05 122.835 221.554 120.271C221.64 120.184 221.858 119.693 221.864 119.35C221.933 114.067 221.922 108.779 221.914 103.49L221.903 101.115Z" fill="white"/>
<path d="M275.99 143.294V136.393V118.694C275.99 118.326 275.854 117.834 276.055 117.603C276.651 116.911 277.368 115.842 278.065 115.825C278.751 115.811 279.552 116.844 280.126 117.539C280.38 117.851 280.21 118.465 280.212 118.945C280.215 126.173 280.212 133.398 280.212 140.626V143.157C282.407 141.879 284.437 140.657 286.507 139.496C288.958 138.123 291.412 136.739 293.93 135.477C295.06 134.911 295.464 134.213 295.411 133.066C295.33 131.263 295.369 129.455 295.394 127.646C295.422 125.936 296.161 125.048 297.483 125.051C298.822 125.054 299.555 125.927 299.558 127.638C299.58 139.649 299.591 151.658 299.611 163.669C299.616 166.365 299.608 169.06 299.678 171.753C299.719 173.355 298.964 174.349 297.452 174.438C296.281 174.505 295.291 173.537 295.271 172.046C295.23 169.019 295.302 165.988 295.327 162.96C295.333 162.452 295.33 161.941 295.33 161.146C292.823 162.43 290.564 163.529 288.375 164.732C286.95 165.516 285.664 166.518 284.239 167.305C282.034 168.525 280.731 170.534 280.581 172.619C280.235 177.407 280.472 182.235 280.472 186.868C285.494 184.102 290.639 181.261 295.796 178.44C298.032 177.215 299.58 178.049 299.583 180.48C299.588 184.942 299.48 189.407 299.583 193.87C299.714 199.387 297.084 203.459 292.196 206.369C289.689 207.865 287.059 209.182 284.479 210.569C283.327 211.189 282.187 211.376 281.311 210.19C280.556 209.177 280.951 208.236 282.508 207.363C284.861 206.043 287.248 204.776 289.608 203.464C293.442 201.332 295.595 198.36 295.417 194.046C295.269 190.507 295.386 186.957 295.386 182.905C290.888 185.782 286.019 187.306 282.488 190.772C281.875 191.378 281.317 192.145 281.071 192.926C280.645 194.28 280.26 195.703 280.249 197.099C280.176 206.45 280.212 215.805 280.212 225.156C280.212 225.474 280.221 225.793 280.21 226.113C280.162 227.704 279.315 228.734 278.065 228.709C276.827 228.686 276.002 227.673 275.999 226.049C275.988 216.536 275.898 207.025 276.032 197.514C276.088 193.351 274.245 190.373 270.519 188.28C267.446 186.553 264.325 184.9 260.943 183.064C260.89 183.91 260.828 184.462 260.825 185.015C260.817 188.152 260.903 191.288 260.8 194.422C260.672 198.34 262.66 201.123 266.068 203.149C268.528 204.608 271.096 205.912 273.603 207.307C274.733 207.935 275.798 208.652 274.967 210.092C274.326 211.206 273.149 211.334 271.551 210.46C268.684 208.895 265.734 207.444 263.009 205.686C258.667 202.886 256.581 198.96 256.62 193.99C256.687 184.962 256.598 175.934 256.581 166.906C256.575 164.099 256.506 161.286 256.665 158.484C256.712 157.649 257.225 156.536 257.92 156.126C258.469 155.805 259.741 156.179 260.496 156.566C264.303 158.523 268.065 160.554 271.796 162.631C273.151 163.381 274.381 164.322 275.817 165.273C275.817 160.264 276.071 155.389 275.678 150.558C275.544 148.926 274.15 146.958 272.689 145.931C269.113 143.417 265.162 141.363 260.984 138.901C260.903 139.937 260.831 140.484 260.828 141.033C260.814 143.955 260.912 146.883 260.761 149.799C260.722 150.628 260.215 151.744 259.52 152.171C258.118 153.033 256.651 151.87 256.645 149.989C256.623 144.142 256.637 138.299 256.637 132.455C256.637 130.806 256.626 129.159 256.634 127.513C256.64 126.22 257.03 125.157 258.673 125.06C259.961 124.981 260.77 125.866 260.811 127.437C260.862 129.402 260.711 131.378 260.876 133.331C260.937 134.029 261.492 134.93 262.122 135.304C266.595 137.972 271.152 140.526 275.99 143.294ZM260.931 161.079C260.798 161.436 260.697 161.581 260.694 161.726C260.675 166.772 260.641 171.818 260.666 176.866C260.672 178.033 261.174 178.934 262.454 179.523C264.194 180.324 265.814 181.351 267.482 182.286C270.285 183.862 273.087 185.447 275.979 187.077C275.979 183.525 275.765 180.008 276.035 176.523C276.361 172.286 274.808 168.988 271.052 166.694C267.817 164.715 264.401 162.988 260.931 161.079ZM280.33 164.9C285.232 162.206 289.914 159.673 294.53 157.044C295.009 156.77 295.338 155.933 295.344 155.353C295.411 150.472 295.389 145.591 295.38 140.71C295.38 140.26 295.302 139.811 295.21 138.848C290.932 141.438 286.836 143.651 283.116 146.313C281.732 147.301 280.581 149.305 280.455 150.921C280.101 155.5 280.33 160.122 280.33 164.9Z" fill="white"/>
<path d="M278.11 230.104C278.084 230.104 278.059 230.104 278.037 230.104C276.021 230.068 274.61 228.402 274.607 226.052L274.587 218.595C274.579 216.469 274.573 214.342 274.568 212.216C273.723 212.556 272.518 212.581 270.881 211.686C270.114 211.267 269.336 210.854 268.561 210.444C266.464 209.33 264.294 208.178 262.253 206.86C257.546 203.827 255.181 199.493 255.225 193.984C255.273 187.75 255.242 181.51 255.214 175.275L255.175 165.095C255.158 162.91 255.142 160.647 255.27 158.408C255.34 157.203 256.029 155.623 257.208 154.928C258.619 154.102 260.725 155.118 261.132 155.333C264.699 157.167 268.408 159.156 272.468 161.42C273.14 161.791 273.784 162.207 274.437 162.647C274.442 162.106 274.451 161.567 274.459 161.029C274.512 157.451 274.559 154.072 274.286 150.675C274.194 149.559 273.118 147.943 271.885 147.078C269.406 145.337 266.726 143.81 263.89 142.194C263.341 141.882 262.783 141.561 262.219 141.24C262.217 142.069 262.222 142.9 262.228 143.732C262.245 145.78 262.258 147.834 262.15 149.88C262.094 151.06 261.425 152.64 260.248 153.366C259.233 153.993 258.084 154.03 257.097 153.477C255.962 152.844 255.253 151.51 255.248 149.997C255.231 145.775 255.234 141.555 255.237 137.33L255.239 132.46L255.237 127.513C255.25 124.348 257.339 123.748 258.583 123.675C259.551 123.611 260.384 123.899 261.034 124.493C261.545 124.962 262.161 125.846 262.203 127.409C262.222 128.191 262.211 128.975 262.2 129.756C262.183 130.917 262.164 132.073 262.259 133.222C262.281 133.46 262.579 133.965 262.827 134.113C266.171 136.105 269.559 138.033 273.079 140.037L274.593 140.902V118.702C274.534 118.06 274.459 117.315 275 116.696L275.307 116.322C275.976 115.496 276.813 114.469 278.023 114.435C279.219 114.41 280.313 115.58 281.085 116.52C281.743 117.329 281.673 118.116 281.626 118.641C281.615 118.744 281.604 118.847 281.604 118.942V140.729C283.034 139.887 284.418 139.072 285.823 138.285L286.23 138.056C288.523 136.772 290.896 135.441 293.302 134.235C293.988 133.892 294.041 133.688 294.016 133.136C293.941 131.453 293.963 129.77 293.988 128.085L293.997 127.63C294.044 124.702 295.821 123.661 297.472 123.661C297.474 123.661 297.477 123.661 297.48 123.661C299.153 123.664 300.941 124.711 300.946 127.641L301.005 164.9C301.008 167.174 301.01 169.451 301.066 171.723C301.13 174.128 299.775 175.708 297.525 175.836C296.613 175.92 295.74 175.571 295.07 174.952C294.315 174.246 293.885 173.227 293.868 172.074C293.838 169.942 293.868 167.81 293.896 165.675L293.921 163.429L293.81 163.487C292.142 164.33 290.575 165.123 289.038 165.966C288.358 166.342 287.708 166.769 287.058 167.196C286.356 167.662 285.65 168.126 284.908 168.533C283.185 169.487 282.083 171.053 281.964 172.727C281.721 176.082 281.771 179.512 281.818 182.824C281.827 183.393 281.835 183.957 281.841 184.521L283.977 183.346C287.655 181.317 291.384 179.263 295.118 177.223C297.226 176.062 298.632 176.54 299.287 176.927C299.914 177.299 300.969 178.256 300.971 180.483C300.974 182.051 300.96 183.617 300.949 185.185C300.927 188.071 300.902 190.959 300.971 193.847C301.111 199.688 298.395 204.307 292.901 207.578C291.088 208.66 289.209 209.648 287.332 210.642L285.131 211.808C283.589 212.634 282.429 212.567 281.59 212.199C281.59 214.183 281.593 216.167 281.593 218.154L281.598 225.17C281.601 225.687 281.604 225.929 281.595 226.172C281.531 228.494 280.098 230.104 278.11 230.104ZM259.685 180.795L264.448 183.374C266.773 184.627 269.002 185.827 271.202 187.06C275.393 189.416 277.488 192.938 277.426 197.534C277.329 204.553 277.351 211.568 277.373 218.587L277.393 226.047C277.393 226.426 277.463 227.302 278.087 227.313C278.776 227.241 278.807 226.367 278.815 226.072L278.821 225.452L278.812 218.143C278.807 211.125 278.801 204.109 278.854 197.087C278.868 195.508 279.286 193.953 279.741 192.508C280.031 191.587 280.656 190.619 281.506 189.779C283.888 187.443 286.835 185.93 289.688 184.468C291.328 183.628 293.024 182.76 294.633 181.73L296.78 180.357V182.905C296.78 184.18 296.769 185.406 296.758 186.597C296.733 189.167 296.707 191.595 296.813 193.984C297 198.575 294.806 202.172 290.288 204.684C289.242 205.261 288.193 205.833 287.145 206.403C285.823 207.123 284.504 207.843 283.193 208.577C282.449 208.993 282.326 209.263 282.326 209.266C282.633 209.634 282.808 209.877 283.821 209.336L286.041 208.158C287.873 207.19 289.708 206.224 291.481 205.166C296.108 202.412 298.303 198.726 298.188 193.9C298.121 190.984 298.144 188.068 298.166 185.152C298.177 183.592 298.191 182.034 298.188 180.477C298.188 179.71 297.99 179.386 297.873 179.316C297.748 179.241 297.274 179.213 296.465 179.66C292.733 181.7 289.005 183.756 285.327 185.78L279.077 189.22V186.86C279.077 185.537 279.058 184.2 279.038 182.849C278.988 179.475 278.938 175.984 279.189 172.51C279.376 169.892 281.013 167.486 283.564 166.074C284.242 165.698 284.886 165.273 285.53 164.849C286.241 164.38 286.953 163.914 287.7 163.504C289.264 162.645 290.859 161.835 292.555 160.981L296.721 158.858L296.688 165.695C296.66 167.805 296.632 169.914 296.66 172.021C296.666 172.398 296.777 172.713 296.97 172.892C297.081 172.998 297.248 173.026 297.366 173.037C297.787 173.012 298.311 172.981 298.277 171.784C298.219 169.487 298.219 167.188 298.216 164.888L298.158 127.633C298.155 126.419 297.773 126.391 297.455 126.438C297.173 126.438 296.805 126.463 296.785 127.66L296.777 128.115C296.752 129.742 296.724 131.372 296.799 132.996C296.878 134.704 296.141 135.924 294.549 136.716C292.19 137.9 289.889 139.189 287.591 140.478L287.184 140.707C285.798 141.483 284.429 142.289 283.012 143.121L278.815 145.574V118.937C278.815 118.764 278.829 118.568 278.849 118.376C278.854 118.317 278.86 118.256 278.865 118.2C278.614 117.896 278.321 117.553 278.098 117.346C277.895 117.55 277.633 117.871 277.471 118.072L277.357 118.211C277.376 118.446 277.384 118.571 277.384 118.688V145.697L271.701 142.451C268.168 140.439 264.766 138.502 261.408 136.499C260.401 135.899 259.593 134.618 259.487 133.451C259.383 132.204 259.397 130.951 259.417 129.703C259.428 128.955 259.439 128.21 259.42 127.465C259.406 126.946 259.275 126.645 259.155 126.536C259.077 126.469 258.959 126.421 258.756 126.447C258.243 126.477 258.034 126.491 258.028 127.513V137.322C258.025 141.541 258.022 145.758 258.039 149.978C258.042 150.541 258.257 150.918 258.457 151.03C258.505 151.052 258.589 151.097 258.789 150.977C258.993 150.848 259.342 150.226 259.367 149.729C259.47 147.731 259.453 145.733 259.439 143.74C259.434 142.836 259.425 141.929 259.431 141.022C259.434 140.626 259.467 140.238 259.512 139.7L259.76 136.557L261.687 137.693C262.903 138.407 264.096 139.088 265.268 139.755C268.162 141.407 270.901 142.962 273.483 144.781C275.126 145.937 276.885 148.247 277.061 150.435C277.348 153.966 277.295 157.571 277.245 161.057C277.223 162.452 277.203 163.853 277.203 165.268V167.872L275.039 166.432C274.579 166.125 274.138 165.82 273.709 165.522C272.833 164.913 272.002 164.336 271.11 163.845C267.075 161.598 263.391 159.62 259.849 157.8C259.302 157.518 258.628 157.359 258.438 157.393C258.421 157.434 258.075 158.06 258.045 158.556C257.925 160.705 257.939 162.918 257.956 165.061L257.995 175.247C258.022 181.496 258.053 187.744 258.006 193.993C257.967 198.55 259.849 201.985 263.756 204.505C265.694 205.755 267.814 206.88 269.858 207.966C270.644 208.381 271.428 208.8 272.209 209.227C273.438 209.897 273.662 209.542 273.754 209.386C273.854 209.21 273.862 209.129 273.862 209.129C273.826 209.099 273.622 208.909 272.92 208.518C272.008 208.007 271.088 207.516 270.167 207.02C268.547 206.149 266.927 205.275 265.348 204.338C261.263 201.913 259.261 198.558 259.397 194.367C259.464 192.296 259.453 190.225 259.436 188.152C259.428 187.102 259.42 186.05 259.422 185.001C259.425 184.61 259.453 184.225 259.487 183.753L259.685 180.795ZM293.98 185.364C292.965 185.925 291.953 186.446 290.96 186.954C288.171 188.383 285.539 189.734 283.464 191.771C282.94 192.285 282.552 192.862 282.399 193.345C282.011 194.581 281.648 195.893 281.643 197.11C281.618 200.166 281.607 203.221 281.601 206.277C281.673 206.233 281.752 206.191 281.827 206.146C283.149 205.404 284.479 204.681 285.812 203.955C286.852 203.389 287.895 202.822 288.932 202.245C292.552 200.233 294.17 197.648 294.022 194.104C293.919 191.64 293.944 189.179 293.966 186.572C293.972 186.173 293.974 185.768 293.98 185.364ZM262.219 185.341C262.219 186.273 262.225 187.206 262.233 188.14C262.25 190.25 262.264 192.36 262.194 194.47C262.091 197.654 263.547 200.029 266.779 201.952C268.324 202.867 269.911 203.721 271.495 204.575C272.426 205.074 273.358 205.574 274.281 206.09C274.375 206.143 274.47 206.196 274.571 206.255C274.579 203.336 274.599 200.417 274.638 197.498C274.685 193.906 273.16 191.364 269.835 189.5C267.649 188.272 265.438 187.08 263.123 185.833L262.219 185.341ZM277.145 118.476L277.111 118.515C277.122 118.504 277.133 118.49 277.145 118.476ZM277.373 189.466L265.348 182.671C264.166 181.984 263.05 181.334 261.871 180.79C260.181 180.014 259.28 178.658 259.272 176.872C259.249 172.864 259.269 168.857 259.286 164.849L259.3 161.721C259.308 161.33 259.431 161.054 259.52 160.85L260.083 159.338L261.603 159.86C262.649 160.434 263.689 160.993 264.721 161.545C267.172 162.862 269.487 164.104 271.776 165.505C275.901 168.022 277.797 171.767 277.421 176.629C277.242 178.981 277.284 181.32 277.329 183.793C277.351 184.884 277.371 185.978 277.371 187.077V189.466H277.373ZM262.083 163.295L262.074 164.863C262.058 168.86 262.038 172.859 262.061 176.858C262.063 177.46 262.225 177.882 263.037 178.256C264.336 178.853 265.563 179.567 266.751 180.257L274.559 184.674C274.554 184.398 274.548 184.122 274.543 183.846C274.498 181.412 274.454 178.9 274.646 176.414C274.939 172.58 273.567 169.867 270.323 167.886C268.101 166.527 265.82 165.301 263.405 164.004C262.967 163.769 262.523 163.535 262.083 163.295ZM278.935 167.258V164.9C278.935 163.552 278.915 162.212 278.899 160.887C278.849 157.426 278.807 154.158 279.066 150.818C279.225 148.78 280.586 146.408 282.307 145.18C285.003 143.252 287.845 141.58 290.851 139.814C292.047 139.111 293.258 138.399 294.488 137.657L296.387 136.507L296.682 139.54C296.741 140.043 296.772 140.378 296.772 140.713L296.777 142.906C296.785 147.061 296.794 151.22 296.735 155.375C296.724 156.377 296.203 157.694 295.221 158.258C291.632 160.3 288.007 162.285 284.273 164.33L278.935 167.258ZM293.986 141.206C293.408 141.547 292.837 141.885 292.268 142.22C289.312 143.953 286.523 145.593 283.93 147.449C282.892 148.192 281.941 149.83 281.846 151.03C281.598 154.245 281.643 157.451 281.687 160.847C281.696 161.414 281.704 161.98 281.713 162.553L282.937 161.88C286.66 159.843 290.271 157.867 293.841 155.833C293.832 155.807 293.947 155.512 293.949 155.339C294.008 151.192 294 147.05 293.991 142.909L293.986 141.206Z" fill="white"/>
<path d="M120.107 143.294C120.107 140.83 120.11 138.611 120.107 136.393V118.694C120.11 118.326 119.973 117.834 120.171 117.603C120.768 116.911 121.487 115.842 122.182 115.825C122.868 115.811 123.671 116.844 124.243 117.539C124.496 117.851 124.329 118.465 124.329 118.945C124.332 126.173 124.332 133.398 124.332 140.626V143.157C126.524 141.879 128.554 140.657 130.623 139.496C133.077 138.123 135.529 136.739 138.05 135.477C139.179 134.911 139.581 134.213 139.528 133.066C139.447 131.263 139.486 129.455 139.511 127.646C139.539 125.936 140.278 125.048 141.6 125.051C142.941 125.054 143.672 125.927 143.677 127.638C143.7 139.649 143.708 151.658 143.727 163.669C143.733 166.365 143.725 169.06 143.794 171.753C143.836 173.355 143.083 174.349 141.569 174.438C140.4 174.505 139.408 173.537 139.388 172.046C139.349 169.019 139.422 165.988 139.447 162.96C139.45 162.452 139.447 161.941 139.447 161.146C136.94 162.43 134.684 163.529 132.492 164.732C131.067 165.516 129.781 166.518 128.359 167.305C126.15 168.525 124.848 170.534 124.697 172.619C124.351 177.407 124.589 182.235 124.589 186.868C129.611 184.102 134.756 181.261 139.912 178.44C142.149 177.215 143.7 178.049 143.702 180.48C143.705 184.942 143.596 189.407 143.7 193.87C143.831 199.387 141.201 203.459 136.315 206.369C133.805 207.865 131.178 209.182 128.596 210.569C127.444 211.189 126.304 211.376 125.428 210.19C124.672 209.177 125.071 208.236 126.624 207.363C128.978 206.043 131.365 204.776 133.724 203.464C137.562 201.332 139.714 198.36 139.533 194.046C139.388 190.507 139.503 186.957 139.503 182.905C135.004 185.782 130.135 187.306 126.605 190.772C125.994 191.378 125.433 192.145 125.188 192.926C124.761 194.28 124.377 195.703 124.365 197.099C124.296 206.45 124.329 215.805 124.329 225.156C124.329 225.474 124.338 225.793 124.329 226.113C124.282 227.704 123.431 228.734 122.182 228.709C120.944 228.686 120.118 227.673 120.118 226.049C120.104 216.536 120.018 207.025 120.149 197.514C120.207 193.351 118.361 190.373 114.636 188.28C111.565 186.553 108.442 184.9 105.059 183.064C105.006 183.91 104.945 184.462 104.945 185.015C104.934 188.152 105.02 191.288 104.917 194.422C104.789 198.34 106.777 201.123 110.185 203.149C112.644 204.608 115.213 205.912 117.72 207.307C118.852 207.935 119.915 208.652 119.084 210.092C118.442 211.206 117.268 211.334 115.667 210.46C112.801 208.895 109.85 207.444 107.126 205.686C102.784 202.886 100.7 198.96 100.737 193.99C100.806 184.962 100.714 175.934 100.698 166.906C100.692 164.099 100.622 161.286 100.784 158.484C100.829 157.649 101.342 156.536 102.039 156.126C102.586 155.805 103.857 156.179 104.613 156.566C108.42 158.523 112.184 160.554 115.913 162.631C117.271 163.381 118.501 164.322 119.934 165.273C119.934 160.264 120.188 155.389 119.795 150.558C119.661 148.926 118.267 146.958 116.805 145.931C113.23 143.417 109.279 141.363 105.101 138.901C105.02 139.937 104.948 140.484 104.945 141.033C104.934 143.955 105.029 146.883 104.878 149.799C104.839 150.628 104.331 151.744 103.637 152.171C102.234 153.033 100.77 151.87 100.762 149.989C100.742 144.142 100.756 138.299 100.753 132.455C100.753 130.806 100.742 129.159 100.751 127.513C100.756 126.22 101.147 125.157 102.789 125.06C104.078 124.981 104.886 125.866 104.928 127.437C104.978 129.402 104.828 131.378 104.995 133.331C105.054 134.029 105.609 134.93 106.239 135.304C110.715 137.972 115.269 140.526 120.107 143.294ZM105.048 161.079C104.914 161.436 104.814 161.581 104.814 161.726C104.791 166.772 104.758 171.818 104.783 176.866C104.791 178.033 105.291 178.934 106.571 179.523C108.311 180.324 109.931 181.351 111.599 182.286C114.404 183.862 117.207 185.447 120.096 187.077C120.096 183.525 119.881 180.008 120.152 176.523C120.481 172.286 118.925 168.988 115.168 166.694C111.933 164.715 108.517 162.988 105.048 161.079ZM124.446 164.9C129.352 162.206 134.031 159.673 138.649 157.044C139.126 156.77 139.455 155.933 139.463 155.353C139.528 150.472 139.505 145.591 139.5 140.71C139.497 140.26 139.419 139.811 139.33 138.848C135.052 141.438 130.952 143.651 127.232 146.313C125.849 147.301 124.697 149.305 124.572 150.921C124.218 155.5 124.446 160.122 124.446 164.9Z" fill="white"/>
<path d="M122.226 230.104C122.201 230.104 122.176 230.104 122.154 230.104C120.135 230.068 118.726 228.402 118.726 226.049L118.707 219.193C118.699 216.887 118.69 214.557 118.687 212.213C117.834 212.556 116.638 212.581 115.001 211.686C114.231 211.267 113.453 210.854 112.678 210.444C110.581 209.33 108.411 208.178 106.37 206.861C101.665 203.83 99.3003 199.496 99.3421 193.984C99.3895 187.758 99.3616 181.527 99.3309 175.301L99.2919 165.112C99.2752 162.921 99.2612 160.652 99.3895 158.411C99.4536 157.208 100.145 155.626 101.33 154.928C102.728 154.108 104.841 155.118 105.249 155.336C108.854 157.189 112.563 159.179 116.585 161.422C117.257 161.794 117.901 162.207 118.553 162.648C118.559 162.109 118.567 161.567 118.576 161.032C118.629 157.454 118.676 154.074 118.403 150.678C118.311 149.562 117.234 147.946 116.002 147.081C113.523 145.34 110.843 143.813 108.007 142.197C107.457 141.885 106.899 141.564 106.336 141.243C106.333 142.047 106.339 142.853 106.345 143.66C106.361 145.736 106.375 147.809 106.266 149.88C106.211 151.061 105.541 152.64 104.365 153.366C103.352 153.988 102.209 154.024 101.216 153.48C100.081 152.844 99.37 151.513 99.3644 150C99.3505 146.101 99.3532 142.203 99.356 138.307L99.3532 127.513C99.3672 124.348 101.456 123.748 102.7 123.675C103.659 123.617 104.498 123.899 105.148 124.49C105.659 124.959 106.275 125.844 106.319 127.407C106.339 128.185 106.328 128.967 106.317 129.745C106.3 130.906 106.28 132.067 106.378 133.222C106.4 133.462 106.696 133.965 106.944 134.113C110.274 136.097 113.645 138.017 117.145 140.009L118.707 140.9V118.7C118.648 118.049 118.581 117.315 119.111 116.699L119.421 116.322C120.093 115.496 120.929 114.466 122.14 114.433C122.154 114.433 122.17 114.433 122.184 114.433C123.498 114.433 124.449 115.596 125.219 116.534C125.86 117.329 125.79 118.122 125.743 118.647L125.72 118.948L125.723 140.724C127.151 139.884 128.537 139.069 129.94 138.282L130.464 137.992C132.762 136.702 135.063 135.416 137.425 134.233C138.108 133.892 138.161 133.686 138.136 133.133C138.06 131.487 138.083 129.837 138.105 128.185L138.113 127.633C138.166 124.702 139.94 123.661 141.591 123.661C141.594 123.661 141.597 123.661 141.599 123.661C143.273 123.664 145.06 124.711 145.069 127.638L145.124 164.9C145.127 167.174 145.13 169.451 145.186 171.723C145.25 174.128 143.894 175.708 141.644 175.836C140.763 175.92 139.862 175.571 139.19 174.952C138.434 174.246 138.005 173.224 137.988 172.074C137.96 169.956 137.988 167.838 138.016 165.723L138.044 163.432L137.938 163.487C136.267 164.33 134.697 165.123 133.158 165.968C132.478 166.345 131.828 166.772 131.178 167.199C130.475 167.665 129.77 168.128 129.028 168.536C127.304 169.49 126.203 171.056 126.083 172.73C125.84 176.085 125.891 179.514 125.938 182.827C125.946 183.396 125.955 183.96 125.96 184.524L128.096 183.349C131.775 181.32 135.503 179.266 139.237 177.226C141.348 176.065 142.757 176.542 143.406 176.93C144.037 177.301 145.091 178.259 145.091 180.486C145.091 182.032 145.08 183.569 145.066 185.113C145.043 188.023 145.018 190.937 145.088 193.847C145.227 199.688 142.511 204.307 137.02 207.578C135.194 208.666 133.309 209.66 131.421 210.656L129.248 211.808C127.706 212.634 126.546 212.568 125.707 212.199C125.707 214.234 125.709 216.262 125.712 218.297L125.718 225.474L125.715 226.161C125.648 228.494 124.217 230.104 122.226 230.104ZM103.798 180.795L108.578 183.382C110.901 184.633 113.121 185.83 115.316 187.063C119.51 189.419 121.604 192.941 121.54 197.534C121.443 204.748 121.468 212.085 121.49 219.184L121.512 226.047C121.512 226.426 121.579 227.302 122.204 227.314C122.843 227.269 122.926 226.368 122.935 226.072L122.937 225.486L122.932 218.288C122.923 211.222 122.918 204.156 122.971 197.088C122.985 195.508 123.403 193.954 123.858 192.508C124.145 191.593 124.77 190.624 125.623 189.779C128.004 187.443 130.952 185.93 133.805 184.468C135.445 183.628 137.14 182.76 138.749 181.73L140.897 180.357V182.905C140.897 184.178 140.885 185.403 140.874 186.589C140.849 189.162 140.827 191.593 140.93 193.987C141.12 198.575 138.925 202.172 134.402 204.684C133.359 205.261 132.31 205.834 131.262 206.403C129.94 207.123 128.621 207.843 127.31 208.577C126.565 208.993 126.446 209.263 126.443 209.266C126.749 209.634 126.925 209.877 127.937 209.336L130.129 208.172C131.973 207.201 133.816 206.23 135.601 205.167C140.227 202.412 142.419 198.726 142.305 193.901C142.238 190.959 142.26 188.021 142.283 185.079C142.297 183.544 142.308 182.009 142.308 180.477C142.308 179.713 142.11 179.389 141.993 179.319C141.856 179.244 141.396 179.213 140.581 179.662C136.85 181.702 133.122 183.759 129.443 185.782L123.194 189.223V186.862C123.194 185.54 123.174 184.203 123.155 182.852C123.105 179.478 123.054 175.987 123.305 172.513C123.492 169.895 125.129 167.489 127.681 166.077C128.359 165.701 129.003 165.276 129.647 164.852C130.358 164.383 131.069 163.917 131.817 163.507C133.384 162.645 134.985 161.838 136.68 160.981L140.838 158.861L140.805 165.745C140.777 167.841 140.749 169.934 140.777 172.027C140.782 172.398 140.897 172.716 141.086 172.898C141.201 173.001 141.332 173.046 141.482 173.043C141.903 173.018 142.428 172.987 142.394 171.79C142.336 169.493 142.336 167.194 142.333 164.894L142.277 127.638C142.274 126.424 141.892 126.396 141.571 126.444C141.29 126.444 140.922 126.469 140.899 127.666L140.891 128.216C140.869 129.812 140.844 131.408 140.916 132.999C140.994 134.732 140.28 135.915 138.668 136.719C136.345 137.88 134.081 139.15 131.822 140.414L131.298 140.707C129.892 141.494 128.506 142.309 127.073 143.154L122.932 145.577L122.929 118.937C122.929 118.764 122.943 118.571 122.962 118.384C122.968 118.323 122.976 118.259 122.982 118.2C122.731 117.899 122.438 117.555 122.215 117.346C122.009 117.553 121.747 117.874 121.582 118.074L121.468 118.211C121.487 118.451 121.496 118.58 121.496 118.7V145.697L115.768 142.423C112.251 140.42 108.863 138.491 105.519 136.499C104.51 135.899 103.701 134.612 103.6 133.446C103.494 132.201 103.511 130.945 103.528 129.689C103.539 128.947 103.55 128.207 103.531 127.465C103.517 126.946 103.383 126.645 103.263 126.536C103.191 126.463 103.068 126.421 102.867 126.447C102.354 126.477 102.145 126.491 102.139 127.513L102.142 138.293C102.139 142.189 102.136 146.082 102.15 149.978C102.153 150.541 102.371 150.918 102.569 151.03C102.616 151.058 102.7 151.097 102.9 150.977C103.104 150.848 103.453 150.226 103.478 149.729C103.581 147.706 103.567 145.688 103.55 143.668C103.545 142.786 103.539 141.904 103.542 141.022C103.545 140.626 103.578 140.238 103.623 139.7L103.871 136.557L105.798 137.693C107.014 138.407 108.207 139.088 109.379 139.755C112.273 141.407 115.012 142.962 117.594 144.781C119.237 145.937 120.996 148.247 121.172 150.435C121.459 153.966 121.406 157.571 121.356 161.057C121.334 162.452 121.314 163.853 121.314 165.268V167.874L119.147 166.429C118.696 166.13 118.263 165.829 117.84 165.536C116.958 164.922 116.122 164.341 115.224 163.848C111.222 161.621 107.541 159.645 103.96 157.803C103.411 157.521 102.767 157.362 102.549 157.395C102.532 157.44 102.187 158.06 102.159 158.554C102.036 160.711 102.05 162.932 102.067 165.081L102.106 175.275C102.136 181.513 102.164 187.755 102.117 193.995C102.081 198.553 103.963 201.991 107.867 204.508C109.805 205.758 111.925 206.883 113.969 207.968C114.755 208.384 115.539 208.803 116.32 209.23C117.558 209.9 117.773 209.545 117.865 209.389C117.965 209.213 117.973 209.132 117.973 209.129C117.937 209.101 117.734 208.912 117.031 208.521C116.119 208.01 115.199 207.519 114.278 207.022C112.658 206.152 111.038 205.278 109.46 204.341C105.374 201.915 103.372 198.561 103.508 194.369C103.575 192.321 103.564 190.267 103.547 188.213C103.539 187.144 103.534 186.073 103.536 185.004C103.536 184.616 103.564 184.222 103.6 183.737L103.798 180.795ZM138.094 185.364C137.082 185.925 136.067 186.447 135.074 186.954C132.285 188.383 129.653 189.734 127.578 191.771C127.053 192.288 126.666 192.865 126.512 193.345C126.125 194.581 125.762 195.893 125.757 197.11C125.734 200.166 125.723 203.221 125.718 206.277C125.787 206.233 125.865 206.191 125.941 206.146C127.263 205.404 128.593 204.681 129.926 203.955C130.966 203.389 132.009 202.822 133.046 202.245C136.666 200.233 138.286 197.648 138.136 194.104C138.035 191.637 138.058 189.173 138.08 186.564C138.086 186.167 138.091 185.766 138.094 185.364ZM106.339 185.341C106.336 186.299 106.345 187.25 106.35 188.199C106.367 190.289 106.381 192.38 106.311 194.467C106.208 197.651 107.664 200.026 110.896 201.949C112.441 202.864 114.027 203.718 115.611 204.572C116.543 205.072 117.474 205.571 118.397 206.088C118.492 206.141 118.59 206.194 118.687 206.252C118.696 203.33 118.715 200.403 118.754 197.495C118.804 193.906 117.279 191.364 113.949 189.494C111.771 188.272 109.565 187.083 107.256 185.835L106.339 185.341ZM121.25 118.487L121.225 118.515C121.233 118.507 121.242 118.496 121.25 118.487ZM121.487 189.469L109.462 182.671C108.28 181.984 107.164 181.334 105.985 180.79C104.3 180.014 103.4 178.661 103.386 176.877C103.363 172.722 103.383 168.569 103.402 164.42L103.416 161.721C103.416 161.344 103.542 161.057 103.634 160.845L104.2 159.335L105.717 159.86C106.763 160.434 107.803 160.993 108.835 161.545C111.286 162.862 113.601 164.104 115.89 165.505C120.015 168.025 121.914 171.77 121.535 176.632C121.356 178.981 121.398 181.32 121.443 183.793C121.465 184.884 121.484 185.978 121.484 187.077V189.469H121.487ZM106.2 163.298L106.194 164.434C106.174 168.575 106.155 172.716 106.177 176.858C106.183 177.461 106.345 177.882 107.153 178.256C108.453 178.853 109.68 179.568 110.868 180.257L118.676 184.674C118.671 184.398 118.665 184.122 118.659 183.846C118.615 181.412 118.57 178.901 118.763 176.414C119.058 172.58 117.686 169.87 114.44 167.886C112.218 166.527 109.936 165.301 107.521 164.004C107.081 163.772 106.64 163.535 106.2 163.298ZM123.052 167.258V164.9C123.052 163.552 123.032 162.212 123.015 160.887C122.965 157.426 122.923 154.158 123.183 150.818C123.342 148.781 124.703 146.408 126.423 145.181C129.117 143.255 131.956 141.586 134.962 139.82C136.159 139.116 137.374 138.402 138.607 137.657L140.512 136.504L140.805 139.582C140.858 140.057 140.888 140.381 140.891 140.704L140.894 143.272C140.902 147.307 140.911 151.342 140.855 155.375C140.841 156.38 140.317 157.694 139.343 158.255C135.701 160.326 132.031 162.338 128.244 164.411L123.052 167.258ZM138.102 141.207C137.522 141.55 136.945 141.888 136.373 142.225C133.423 143.958 130.634 145.594 128.043 147.449C127.006 148.192 126.055 149.83 125.96 151.03C125.712 154.245 125.757 157.451 125.801 160.848C125.81 161.414 125.818 161.981 125.826 162.553L126.908 161.958C130.684 159.893 134.34 157.889 137.96 155.833C137.952 155.807 138.066 155.509 138.069 155.333C138.125 151.314 138.116 147.293 138.108 143.274L138.102 141.207Z" fill="white"/>
<path d="M393.679 179.593C393.085 179.33 392.485 179.113 391.88 178.92C384.869 79.0912 301.523 0 200.012 0C113.163 0 39.6051 57.893 15.7644 137.129C14.1804 137.277 12.6048 137.632 11.0794 138.22C6.76249 139.895 3.35469 143.149 1.48904 147.382C-0.382178 151.619 -0.493726 156.327 1.17671 160.647C2.66588 164.495 5.45738 167.553 9.0325 169.513C8.12896 177.067 7.61026 184.739 7.61026 192.536C7.61026 218.523 12.6969 243.742 22.7334 267.483C52.9267 338.916 122.513 385.074 200.014 385.074C299.507 385.074 381.598 309.112 391.428 212.101C396.203 210.734 400.366 207.343 402.525 202.451C406.381 193.713 402.416 183.458 393.679 179.593ZM13.7092 162.53C12.3706 161.939 11.2802 161.037 10.4157 159.974C10.4129 159.991 10.4101 160.005 10.4073 160.021C10.2205 159.793 10.0615 159.541 9.89421 159.299C9.83843 159.215 9.7715 159.137 9.71852 159.05C9.43128 158.604 9.17472 158.135 8.97672 157.627C8.57794 156.6 8.39946 155.528 8.3911 154.457C8.37157 153.207 8.59467 151.931 9.13289 150.712C11.1324 146.182 16.4198 144.134 20.9459 146.135C23.7931 147.393 25.6532 149.958 26.1468 152.813C26.2332 153.296 26.2583 153.784 26.2667 154.273C26.2667 154.345 26.2834 154.415 26.2834 154.485C26.2695 155.685 26.0241 156.882 25.5221 158.012C25.0397 159.106 24.3313 160.044 23.4864 160.836C23.4585 160.864 23.4278 160.887 23.3999 160.912C23.0318 161.247 22.6414 161.548 22.2231 161.821C22.1143 161.891 22.0028 161.955 21.8912 162.022C21.6988 162.137 21.5175 162.271 21.3168 162.371C21.3195 162.349 21.3251 162.327 21.3279 162.304C19.0216 163.462 16.2525 163.655 13.7092 162.53ZM200.012 373.912C127 373.912 61.4462 330.43 33.0014 263.135C23.5505 240.776 18.7623 217.024 18.7623 192.536C18.7623 185.411 19.2196 178.395 20.0228 171.483C21.2275 171.29 22.4211 171.006 23.5868 170.556C27.9037 168.885 31.3087 165.628 33.1771 161.394C35.0456 157.161 35.1599 152.45 33.4867 148.13C32.1341 144.633 29.708 141.781 26.5986 139.808C49.2261 65.4391 118.394 11.1628 200.012 11.1628C295.461 11.1628 373.86 85.3953 380.714 179.191C376.453 180.756 372.803 183.968 370.828 188.442C368.957 192.678 368.845 197.386 370.519 201.706C372.189 206.023 375.441 209.434 379.671 211.303C379.866 211.39 380.064 211.448 380.26 211.527C370.742 302.646 293.542 373.912 200.012 373.912ZM395.433 197.207C395.427 197.233 395.427 197.26 395.419 197.286C395.294 197.886 395.129 198.486 394.87 199.069C394.683 199.493 394.409 199.845 394.167 200.221C394.08 200.355 394.011 200.503 393.916 200.632C393.67 200.964 393.397 201.262 393.113 201.553C392.931 201.742 392.75 201.927 392.555 202.097C392.416 202.217 392.304 202.37 392.159 202.485C392.159 202.457 392.159 202.429 392.162 202.401C389.644 204.366 386.177 204.952 383.051 203.57C382.279 203.23 381.609 202.764 380.987 202.25C380.987 202.275 380.987 202.3 380.985 202.328C380.817 202.192 380.697 202.01 380.538 201.862C380.299 201.633 380.073 201.402 379.861 201.151C379.629 200.883 379.412 200.609 379.217 200.313C379.03 200.029 378.879 199.727 378.726 199.426C378.598 199.175 378.422 198.954 378.319 198.689C377.889 197.581 377.691 196.426 377.714 195.273C377.727 194.096 377.97 192.901 378.475 191.754C380.474 187.225 385.762 185.177 390.288 187.178C392.951 188.355 394.722 190.683 395.349 193.312C395.349 193.317 395.352 193.326 395.355 193.331C395.439 193.683 395.494 194.034 395.533 194.394C395.564 194.637 395.584 194.88 395.592 195.126C395.597 195.343 395.606 195.558 395.595 195.776C395.584 196.253 395.528 196.73 395.433 197.207Z" fill="white"/>
</g>
<defs>
<clipPath id="clip0">
<rect width="404" height="456" fill="white"/>
</clipPath>
</defs>
</svg>
