<svg width="120" height="120" viewBox="0 0 120 120" fill="none" xmlns="http://www.w3.org/2000/svg">
<g clip-path="url(#clip0)">
<path d="M62.1883 114.622L67.7981 91.5361H37.7866L43.3964 114.622C43.9896 117.063 46.1761 118.782 48.6888 118.782H56.8966C59.4089 118.782 61.5951 117.063 62.1883 114.622Z" fill="#4A80AA"/>
<path d="M66.509 91.5352L60.8993 114.621C60.3061 117.062 58.1196 118.781 55.6069 118.781H71.3111C73.8236 118.781 76.0101 117.062 76.6036 114.621L82.2133 91.5352H66.509Z" fill="#407093"/>
<path d="M54.161 112.152C53.3376 112.152 52.5928 111.586 52.3985 110.75L50.3716 102.022C50.1455 101.048 50.7518 100.075 51.7259 99.8485C52.7009 99.6219 53.6733 100.229 53.8994 101.203L55.9263 109.931C56.1525 110.905 55.5462 111.878 54.5721 112.104C54.4343 112.136 54.2965 112.152 54.161 112.152Z" fill="#F2F9FF"/>
<path d="M65.839 112.151C65.7035 112.151 65.5655 112.136 65.4277 112.104C64.4536 111.878 63.8473 110.905 64.0734 109.931L66.1003 101.203C66.3267 100.229 67.2994 99.622 68.2739 99.8484C69.248 100.075 69.8543 101.048 69.6281 102.022L67.6013 110.75C67.4072 111.586 66.6626 112.151 65.839 112.151Z" fill="#F2F9FF"/>
<path d="M64.3924 26.341C64.9872 17.9328 60.8268 11.5224 56.3123 7.19282C55.2194 6.1447 53.7665 5.55548 52.2527 5.52173C47.189 9.49063 41.5385 16.1612 41.3531 26.4045C41.0196 44.8285 59.9999 79.2296 59.9999 79.2296C59.9999 79.2296 60.7567 77.8576 61.9633 75.5197C62.3744 61.835 63.1026 44.5733 64.3924 26.341Z" fill="#C6E873"/>
<path d="M62.8722 26.4044C61.4782 46.1069 60.761 64.6439 60.3918 78.5074C63.0942 73.4833 78.952 43.2602 78.6471 26.4044C78.3731 11.2671 65.9618 3.7727 61.5424 1.58082C60.5707 1.09871 59.4293 1.09871 58.4578 1.58082C57.0107 2.29848 54.7068 3.58496 52.2529 5.52184C57.5969 9.50692 63.5913 16.2407 62.8722 26.4044Z" fill="#B5E245"/>
<path d="M60 79.5662C58.9999 79.5662 58.1892 78.7555 58.1892 77.7554V25.543C58.1892 24.5426 58.9999 23.7322 60 23.7322C61.0001 23.7322 61.8108 24.5429 61.8108 25.543V77.7554C61.8108 78.7555 61.0001 79.5662 60 79.5662Z" fill="#A8D340"/>
<path d="M100.663 46.7283C104.667 43.4269 107.65 39.1273 109.29 34.3074C110.106 31.9074 109.763 29.2637 108.421 27.113C98.4482 25.505 88.6237 28.0454 82.0619 33.0587C66.1985 45.1787 60.3102 67.2727 60.0002 86.753C62.0282 85.5031 64.0687 84.2675 66.1211 83.0455C71.215 74.7099 80.891 63.031 100.663 46.7283Z" fill="#C6E873"/>
<path d="M119.571 32.3661C119.368 31.2214 118.596 30.2588 117.532 29.7898C114.548 28.4743 111.48 27.6015 108.421 27.113C107.998 34.8022 104.309 41.8531 98.3969 46.7284C76.9045 64.4497 67.341 76.7082 62.6256 85.1469C68.1095 81.8138 73.6802 78.5799 79.3884 75.4916C89.5909 69.972 101.194 65.3183 109.926 58.2577C117.479 52.1509 121.352 42.4128 119.571 32.3661Z" fill="#B5E245"/>
<path d="M59.9988 88.5642C59.7393 88.5642 59.4761 88.5085 59.226 88.3901C58.3218 87.9626 57.9353 86.8831 58.3628 85.9791C66.0988 69.6153 77.4149 57.7784 85.5459 50.7301C94.3649 43.0847 101.283 39.3472 101.573 39.1918C102.455 38.7204 103.552 39.0516 104.024 39.9336C104.496 40.8151 104.165 41.9119 103.283 42.3844C103.215 42.421 96.3641 46.1311 87.8366 53.5376C79.9954 60.3479 69.0848 71.7732 61.637 87.5271C61.3277 88.181 60.6773 88.5642 59.9988 88.5642Z" fill="#A8D340"/>
<path d="M27.0185 43.2117C20.6831 38.3714 11.3488 35.7764 1.74462 36.8245L0.0294647 38.3922C0.372355 46.1932 4.05228 53.3889 10.0736 58.2578C18.806 65.3184 30.4092 69.9721 40.6115 75.4917C47.2328 79.0738 53.6695 82.8515 59.9997 86.7529C59.969 84.831 59.8832 82.8834 59.7398 80.9228C52.8318 66.2599 38.8757 52.271 27.0185 43.2117Z" fill="#C6E873"/>
<path d="M26.7105 44.286C39.1427 53.7845 53.9554 68.8722 59.9315 84.3316C59.186 65.4681 53.1473 44.6791 37.9378 33.0588C29.3754 26.5169 15.1631 24.1933 2.46746 29.7899C1.40387 30.2589 0.631835 31.2215 0.428867 32.3662C0.0686323 34.3968 -0.056524 36.4143 0.0290229 38.3922C10.0921 36.6956 20.0901 39.228 26.7105 44.286Z" fill="#B5E245"/>
<path d="M60.0012 88.5643C59.3227 88.5643 58.672 88.1811 58.3629 87.5267C44.0686 57.2909 16.9891 42.5302 16.7173 42.3847C15.8355 41.9124 15.5034 40.815 15.9757 39.9333C16.4477 39.0514 17.5453 38.7202 18.427 39.1915C18.7172 39.3469 25.635 43.0847 34.4541 50.7298C42.585 57.7782 53.9013 69.615 61.6371 85.9789C62.0646 86.8829 61.6781 87.9624 60.7739 88.3899C60.5238 88.5083 60.2606 88.5643 60.0012 88.5643Z" fill="#A8D340"/>
<path d="M100.814 94.382C103.151 94.382 105.045 92.4876 105.045 90.1506V87.1682L104.4 85.9192H2.46703C1.10461 85.9192 0 87.0238 0 88.3862V91.9152C0 93.2776 1.10461 94.3822 2.46703 94.3822L100.814 94.382Z" fill="#AFE2F7"/>
<path d="M117.533 85.9192H104.4V90.1506C104.4 92.4876 102.506 94.382 100.169 94.382H117.533C118.895 94.382 120 93.2774 120 91.915V88.386C120 87.0238 118.895 85.9192 117.533 85.9192Z" fill="#8FD6F7"/>
<path d="M69.8301 85.9193C72.1076 85.9193 73.9538 84.0731 73.9538 81.7957V77.6721H36.1467C33.8693 77.6721 32.0231 79.5183 32.0231 81.7957C32.0231 84.0731 33.8693 85.9193 36.1467 85.9193H69.8301Z" fill="#4A80AA"/>
<path d="M83.8535 77.6721H72.6647V81.7957C72.6647 84.0731 70.8185 85.9193 68.5411 85.9193H83.8535C86.1309 85.9193 87.9771 84.0731 87.9771 81.7957C87.9771 79.5183 86.1309 77.6721 83.8535 77.6721Z" fill="#407093"/>
</g>
<defs>
<clipPath id="clip0">
<rect width="120" height="120" fill="white"/>
</clipPath>
</defs>
</svg>
