<svg width="72" height="72" viewBox="0 0 72 72" fill="none" xmlns="http://www.w3.org/2000/svg">
<g clip-path="url(#clip0)">
<path d="M62.8245 19.386C62.712 19.1115 62.5455 18.864 62.3385 18.657L44.343 0.6615C44.136 0.4545 43.8885 0.288 43.614 0.1755C43.344 0.063 43.0515 0 42.75 0H13.5C11.0205 0 9 2.0205 9 4.5V67.5C9 69.9795 11.0205 72 13.5 72H58.5C60.9795 72 63 69.9795 63 67.5V20.25C63 19.9485 62.937 19.656 62.8245 19.386ZM45 7.6815L55.3185 18H45V7.6815ZM58.5 67.5H13.5V4.5H40.5V18C40.5 20.4795 42.5205 22.5 45 22.5H58.5V67.5Z" fill="white"/>
<path d="M24.75 45C23.508 45 22.5 46.008 22.5 47.25V60.75C22.5 61.992 23.508 63 24.75 63C25.992 63 27 61.992 27 60.75V47.25C27 46.008 25.992 45 24.75 45Z" fill="white"/>
<path d="M47.25 27C46.008 27 45 28.008 45 29.25V60.75C45 61.992 46.008 63 47.25 63C48.492 63 49.5 61.992 49.5 60.75V29.25C49.5 28.008 48.492 27 47.25 27Z" fill="white"/>
<path d="M36 36C34.758 36 33.75 37.008 33.75 38.25V60.75C33.75 61.992 34.758 63 36 63C37.242 63 38.25 61.992 38.25 60.75V38.25C38.25 37.008 37.242 36 36 36Z" fill="white"/>
</g>
<defs>
<clipPath id="clip0">
<rect width="72" height="72" fill="white"/>
</clipPath>
</defs>
</svg>
