<svg width="54" height="54" viewBox="0 0 54 54" fill="none" xmlns="http://www.w3.org/2000/svg">
<path d="M11.4545 29.4545H45.6197L37.537 37.5372C36.5785 38.4956 36.5785 40.0498 37.537 41.0084C38.0163 41.4875 38.6445 41.7273 39.2727 41.7273C39.9009 41.7273 40.5291 41.4875 41.0083 41.0083L53.281 28.7355C54.2396 27.7771 54.2396 26.2229 53.281 25.2643L41.0083 12.9916C40.0498 12.0332 38.4956 12.0332 37.537 12.9916C36.5785 13.95 36.5785 15.5042 37.537 16.4628L45.6197 24.5455H11.4545C10.099 24.5455 9 25.6444 9 27C9 28.3556 10.099 29.4545 11.4545 29.4545Z" fill="white"/>
</svg>
