<svg width="72" height="72" viewBox="0 0 72 72" fill="none" xmlns="http://www.w3.org/2000/svg">
<path d="M38.6719 24.75C38.6719 26.3033 37.4127 27.5625 35.8594 27.5625C32.1286 27.4144 32.1297 22.085 35.8594 21.9375C37.4127 21.9375 38.6719 23.1967 38.6719 24.75ZM36 55.125C34.4467 55.125 33.1875 56.3842 33.1875 57.9375C33.3356 61.6683 38.665 61.6672 38.8125 57.9375C38.8125 56.3842 37.5533 55.125 36 55.125ZM57.9375 49.5C59.4908 49.5 60.75 48.2408 60.75 46.6875V11.25C60.75 5.04675 55.7033 0 49.5 0H22.5C16.2968 0 11.25 5.04675 11.25 11.25V60.75C11.25 66.9532 16.2968 72 22.5 72H49.5C55.7033 72 60.75 66.9532 60.75 60.75C60.75 59.1967 59.4908 57.9375 57.9375 57.9375C56.3842 57.9375 55.125 59.1967 55.125 60.75C55.125 63.8516 52.6016 66.375 49.5 66.375H22.5C19.3984 66.375 16.875 63.8516 16.875 60.75V11.25C16.875 8.14837 19.3984 5.625 22.5 5.625H49.5C52.6016 5.625 55.125 8.14837 55.125 11.25V46.6875C55.125 48.2408 56.3842 49.5 57.9375 49.5ZM36 43.875C34.4467 43.875 33.1875 45.1342 33.1875 46.6875C33.3356 50.4183 38.665 50.4172 38.8125 46.6875C38.8125 45.1342 37.5533 43.875 36 43.875ZM47.1094 55.125C45.556 55.125 44.2969 56.3842 44.2969 57.9375C44.445 61.6683 49.7744 61.6672 49.9219 57.9375C49.9219 56.3842 48.6627 55.125 47.1094 55.125ZM47.1094 43.875C45.556 43.875 44.2969 45.1342 44.2969 46.6875C44.445 50.4183 49.7744 50.4172 49.9219 46.6875C49.9219 45.1342 48.6627 43.875 47.1094 43.875ZM24.8906 43.875C23.3373 43.875 22.0781 45.1342 22.0781 46.6875C22.2262 50.4183 27.5556 50.4172 27.7031 46.6875C27.7031 45.1342 26.444 43.875 24.8906 43.875ZM24.8906 55.125C23.3373 55.125 22.0781 56.3842 22.0781 57.9375C22.2262 61.6683 27.5556 61.6672 27.7031 57.9375C27.7031 56.3842 26.444 55.125 24.8906 55.125ZM35.8594 38.25C28.4154 38.25 22.3594 32.194 22.3594 24.75C23.1009 6.84042 48.6205 6.84563 49.3594 24.7501C49.3594 32.194 43.3034 38.25 35.8594 38.25ZM43.7344 24.75C43.7344 20.4078 40.2016 16.875 35.8594 16.875C25.4121 17.3076 25.4152 32.194 35.8594 32.625C40.2016 32.625 43.7344 29.0922 43.7344 24.75Z" fill="#083536"/>
</svg>
