<svg width="96" height="96" viewBox="0 0 96 96" fill="none" xmlns="http://www.w3.org/2000/svg">
<path d="M33 69H3C1.344 69 0 70.344 0 72C0 73.656 1.344 75 3 75H33C34.656 75 36 76.35 36 78C36 79.65 34.656 81 33 81C31.344 81 30 82.344 30 84C30 85.656 31.344 87 33 87C37.962 87 42 82.962 42 78C42 73.038 37.962 69 33 69Z" fill="#189D6D"/>
<path d="M39 21C37.344 21 36 22.344 36 24C36 25.656 37.344 27 39 27C40.656 27 42 28.344 42 30C42 31.656 40.656 33 39 33H3C1.344 33 0 34.344 0 36C0 37.656 1.344 39 3 39H39C43.962 39 48 34.962 48 30C48 25.038 43.962 21 39 21Z" fill="#189D6D"/>
<path d="M63 27C61.344 27 60 28.344 60 30C60 31.656 61.344 33 63 33C67.962 33 72 37.038 72 42C72 46.962 67.962 51 63 51H3C1.344 51 0 52.344 0 54C0 55.656 1.344 57 3 57H63C71.274 57 78 50.268 78 42C78 33.732 71.274 27 63 27Z" fill="#189D6D"/>
<path d="M57 75C52.038 75 48 79.038 48 84C48 88.962 52.038 93 57 93C61.962 93 66 88.962 66 84C66 79.038 61.962 75 57 75ZM57 87C55.35 87 54 85.65 54 84C54 82.35 55.35 81 57 81C58.65 81 60 82.35 60 84C60 85.65 58.65 87 57 87Z" fill="#189D6D"/>
<path d="M87 57C82.038 57 78 61.038 78 66C78 70.962 82.038 75 87 75C91.962 75 96 70.962 96 66C96 61.038 91.962 57 87 57ZM87 69C85.35 69 84 67.65 84 66C84 64.35 85.35 63 87 63C88.65 63 90 64.35 90 66C90 67.65 88.65 69 87 69Z" fill="#189D6D"/>
<path d="M87 15C82.038 15 78 19.038 78 24C78 28.962 82.038 33 87 33C91.962 33 96 28.962 96 24C96 19.038 91.962 15 87 15ZM87 27C85.35 27 84 25.656 84 24C84 22.344 85.35 21 87 21C88.65 21 90 22.344 90 24C90 25.656 88.65 27 87 27Z" fill="#189D6D"/>
<path d="M63 3C58.038 3 54 7.038 54 12C54 16.962 58.038 21 63 21C67.962 21 72 16.962 72 12C72 7.038 67.962 3 63 3ZM63 15C61.35 15 60 13.656 60 12C60 10.344 61.35 9 63 9C64.65 9 66 10.344 66 12C66 13.656 64.65 15 63 15Z" fill="#189D6D"/>
</svg>
