<svg width="72" height="72" viewBox="0 0 72 72" fill="none" xmlns="http://www.w3.org/2000/svg">
<path d="M61.6977 10.2378C55.0958 3.63572 46.3181 0 36.9816 0C27.6451 0 18.8674 3.63572 12.2655 10.2378C5.66357 16.8397 2.02771 25.6172 2.02771 34.9538C2.02771 36.1181 2.97173 37.0621 4.1361 37.0621H34.8734V67.7994C34.8734 68.9638 35.8174 69.9078 36.9817 69.9078C46.3184 69.9078 55.0959 66.2719 61.698 59.67C68.2999 53.0682 71.9358 44.2904 71.9358 34.9538C71.9358 25.6171 68.2996 16.8397 61.6977 10.2378ZM58.716 56.6883C53.4103 61.994 46.5063 65.1195 39.0899 65.6186V34.9539C39.0899 33.7895 38.1458 32.8455 36.9815 32.8455H6.31691C6.81599 25.4291 9.94152 18.5251 15.2472 13.2195C21.0527 7.41389 28.7714 4.21664 36.9816 4.21664C45.1919 4.21664 52.9106 7.41389 58.7162 13.2193C64.5216 19.0249 67.7189 26.7435 67.7189 34.9538C67.7189 43.164 64.5215 50.8829 58.716 56.6883Z" fill="#083536"/>
<path d="M28.6255 41.3305H2.17278C1.00841 41.3305 0.0643921 42.2745 0.0643921 43.4389C0.0643921 50.9981 3.01738 57.8794 7.82886 62.9935C7.87963 63.0605 7.93334 63.1257 7.99297 63.1875C8.05006 63.2465 8.11011 63.3005 8.17184 63.3514C13.3636 68.6828 20.6139 72 28.6253 72C29.7897 72 30.7337 71.056 30.7337 69.8916V43.4389C30.7337 42.2745 29.7898 41.3305 28.6255 41.3305ZM4.37342 45.5472H11.3604L5.49378 51.028C4.91863 49.2796 4.53697 47.4442 4.37342 45.5472ZM7.27859 55.1315L17.5372 45.5472H23.2201L9.6432 58.6621C8.75712 57.5595 7.96456 56.379 7.27859 55.1315ZM26.5171 67.691C24.3138 67.5011 22.193 67.0174 20.1953 66.2777L26.5171 60.3713V67.691ZM26.5171 54.6005L16.1176 64.3164C14.8514 63.555 13.6603 62.6816 12.557 61.7102L26.5171 48.2251V54.6005Z" fill="#083536"/>
</svg>
