<svg width="96" height="84" viewBox="0 0 96 84" fill="none" xmlns="http://www.w3.org/2000/svg">
<path d="M34.6392 11.8461C36.1924 11.8461 37.4517 10.5868 37.4517 9.03356V3.37012C37.4517 1.81687 36.1924 0.557617 34.6392 0.557617C33.0859 0.557617 31.8267 1.81687 31.8267 3.37012V9.03356C31.8267 10.5868 33.0859 11.8461 34.6392 11.8461Z" fill="#189D6D"/>
<path d="M9.12395 22.1409L4.21914 19.3091C2.87383 18.5321 1.1537 18.9933 0.377264 20.3384C-0.399361 21.6838 0.0615141 23.4039 1.40664 24.1803L6.31145 27.0121C7.65358 27.7873 9.37501 27.3311 10.1533 25.9828C10.93 24.6375 10.4691 22.9173 9.12395 22.1409Z" fill="#189D6D"/>
<path d="M6.31145 53.2276L1.40664 56.0592C0.0615141 56.8359 -0.399361 58.5558 0.377264 59.9011C1.15783 61.253 2.88039 61.7037 4.21914 60.9305L9.12395 58.0987C10.4691 57.3221 10.93 55.6021 10.1533 54.2568C9.3767 52.9119 7.65695 52.4504 6.31145 53.2276Z" fill="#189D6D"/>
<path d="M62.9672 27.0121L67.872 24.1803C69.2171 23.4037 69.678 21.6838 68.9014 20.3384C68.1247 18.9933 66.405 18.5321 65.0595 19.3091L60.1547 22.1409C58.8096 22.9175 58.3487 24.6374 59.1253 25.9828C59.9059 27.3346 61.6284 27.7854 62.9672 27.0121Z" fill="#189D6D"/>
<path d="M74.7947 44.1127C71.5752 36.1567 63.7654 30.8962 55.1738 30.9333C51.6531 23.0941 43.7745 17.6199 34.639 17.6199C22.2325 17.6199 12.1392 27.7134 12.1392 40.1199C12.1392 48.0794 16.2957 55.0841 22.5501 59.0849C15.8813 69.6202 23.4638 83.4324 35.9395 83.4324C80.1917 83.3862 77.7704 83.5456 78.541 83.3064C88.371 82.1977 95.9999 73.8603 95.9999 63.7451C95.9999 52.1937 86.1295 43.2249 74.7947 44.1127ZM17.7642 40.1201C17.7642 30.8152 25.3343 23.2451 34.6392 23.2451C40.9139 23.2451 46.3964 26.6894 49.3037 31.7851C40.4164 34.3893 34.2456 42.503 34.1466 51.812C31.3528 52.1186 28.7187 53.1624 26.4499 54.8684C21.274 51.983 17.7642 46.4546 17.7642 40.1201ZM77.4771 77.7592C76.4753 77.8406 50.9526 77.7933 35.9395 77.8076C26.6655 77.8076 22.1462 66.3119 29.0464 60.0108C31.1175 58.1195 33.8755 57.1132 36.8807 57.3866C38.6937 57.5501 40.171 55.9816 39.9207 54.1953C38.6168 44.8895 45.823 36.5576 55.2374 36.5576C62.2019 36.5576 68.3402 41.2454 70.1646 47.9577C70.5546 49.3919 71.9933 50.2745 73.4481 49.9743C82.2143 48.1614 90.3749 54.8626 90.3749 63.7451C90.3749 71.0118 84.7095 77.1676 77.4771 77.7592Z" fill="#189D6D"/>
</svg>
