<svg width="96" height="83" viewBox="0 0 96 83" fill="none" xmlns="http://www.w3.org/2000/svg">
<path d="M34.6392 11.2884C36.1925 11.2884 37.4517 10.0292 37.4517 8.47594V2.8125C37.4517 1.25925 36.1925 0 34.6392 0C33.086 0 31.8267 1.25925 31.8267 2.8125V8.47594C31.8267 10.0292 33.086 11.2884 34.6392 11.2884Z" fill="#E8685B"/>
<path d="M9.12395 21.5833L4.21914 18.7515C2.87383 17.9745 1.1537 18.4357 0.377264 19.7808C-0.399361 21.1261 0.0615141 22.8463 1.40664 23.6227L6.31145 26.4545C7.65358 27.2296 9.37501 26.7735 10.1533 25.4251C10.93 24.0798 10.4691 22.3597 9.12395 21.5833Z" fill="#E8685B"/>
<path d="M6.31145 52.67L1.40664 55.5016C0.0615141 56.2782 -0.399361 57.9982 0.377264 59.3435C1.15783 60.6954 2.88039 61.1461 4.21914 60.3729L9.12395 57.5411C10.4691 56.7644 10.93 55.0445 10.1533 53.6992C9.3767 52.3542 7.65695 51.8928 6.31145 52.67Z" fill="#E8685B"/>
<path d="M62.9671 26.4545L67.8719 23.6227C69.217 22.8461 69.6779 21.1261 68.9012 19.7808C68.1246 18.4357 66.4049 17.9745 65.0594 18.7515L60.1546 21.5833C58.8094 22.3599 58.3486 24.0798 59.1252 25.4251C59.9058 26.777 61.6283 27.2278 62.9671 26.4545Z" fill="#E8685B"/>
<path d="M74.7948 43.5551C71.5752 35.5991 63.7655 30.3386 55.1738 30.3757C51.6532 22.5365 43.7746 17.0623 34.639 17.0623C22.2325 17.0623 12.1392 27.1558 12.1392 39.5623C12.1392 47.5218 16.2957 54.5264 22.5502 58.5273C15.8813 69.0626 23.4638 82.8747 35.9395 82.8747C80.1918 82.8286 77.7704 82.988 78.541 82.7487C88.3711 81.6401 95.9999 73.3027 95.9999 63.1874C95.9999 51.6361 86.1295 42.6673 74.7948 43.5551ZM17.7642 39.5624C17.7642 30.2576 25.3343 22.6874 34.6392 22.6874C40.9139 22.6874 46.3964 26.1318 49.3038 31.2275C40.4165 33.8317 34.2457 41.9454 34.1467 51.2544C31.3529 51.5609 28.7187 52.6047 26.45 54.3108C21.274 51.4254 17.7642 45.8969 17.7642 39.5624ZM77.4772 77.2016C76.4753 77.2829 50.9527 77.2357 35.9395 77.2499C26.6656 77.2499 22.1463 65.7543 29.0465 59.4532C31.1176 57.5619 33.8755 56.5556 36.8808 56.8289C38.6937 56.9924 40.171 55.424 39.9207 53.6377C38.6168 44.3319 45.823 35.9999 55.2374 35.9999C62.2019 35.9999 68.3403 40.6878 70.1647 47.4001C70.5547 48.8343 71.9934 49.7169 73.4482 49.4167C82.2144 47.6038 90.3749 54.305 90.3749 63.1874C90.3749 70.4542 84.7096 76.61 77.4772 77.2016Z" fill="#E8685B"/>
</svg>
