<svg width="1125" height="102" viewBox="0 0 1125 102" fill="none" xmlns="http://www.w3.org/2000/svg">
<path fill-rule="evenodd" clip-rule="evenodd" d="M31.0646 0H1093.94C1111.02 0 1125 10.201 1125 22.6676C1125 35.1341 1111.02 45.3352 1093.94 45.3352H890.311C880.816 45.3352 873.055 50.999 873.055 57.9242V57.9283C873.055 64.8534 880.816 70.5214 890.311 70.5214H979.181C991.047 70.5214 1000.75 77.6042 1000.75 86.2597V86.2638C1000.75 94.9172 991.047 102 979.181 102H100.949C89.0829 102 79.38 94.9193 79.38 86.2638V86.2597C79.38 77.6042 89.0857 70.5214 100.949 70.5214H131.15C140.639 70.5214 148.403 64.8534 148.403 57.9283V57.9242C148.403 50.999 140.639 45.3352 131.15 45.3352H31.0646C13.9786 45.3352 0 35.1341 0 22.6676C0 10.201 13.9815 0 31.0646 0Z" fill="#307754"/>
</svg>
