<svg width="1125" height="693" viewBox="0 0 1125 693" fill="none" xmlns="http://www.w3.org/2000/svg">
<g filter="url(#filter0_d)">
<path fill-rule="evenodd" clip-rule="evenodd" d="M1068.11 81.1391C1079.64 81.1391 1089.07 90.5813 1089.07 102.122V187.931V192.117C1090.41 225.698 1125.42 227.41 1125.42 287.729V389.35C1116.19 396.544 1104.6 400.843 1092.06 400.843C1069.12 400.843 1049.88 417.467 1045.76 439.273H1037.82C1022.95 439.273 1010.79 427.103 1010.79 412.223C1010.79 305.125 1010.79 292.23 1010.79 185.132C1010.79 153.42 1018.06 151.285 1032.93 142.694C1046 135.142 1047.07 121.774 1047.14 118.646V117.976V102.121C1047.14 90.5813 1056.57 81.1391 1068.11 81.1391Z" fill="#114A2E"/>
<path fill-rule="evenodd" clip-rule="evenodd" d="M1065.56 144.392C1065.56 142.987 1066.7 141.846 1068.11 141.846C1069.51 141.846 1070.65 142.987 1070.65 144.392V202.593L1082.62 195.674C1083.35 195.257 1084.28 195.507 1084.7 196.236C1085.12 196.965 1084.87 197.895 1084.14 198.313L1070.65 206.108V289.355L1106.11 268.863C1106.84 268.443 1107.77 268.695 1108.19 269.424C1108.6 270.152 1108.36 271.082 1107.63 271.501L1070.65 292.868V372.696L1106.11 352.204C1106.84 351.788 1107.77 352.036 1108.19 352.766C1108.6 353.493 1108.36 354.423 1107.63 354.841L1070.65 376.208V406.029C1068.89 406.934 1067.19 407.951 1065.56 409.064V397.455L1035.19 379.906C1034.46 379.49 1034.21 378.557 1034.63 377.829C1035.05 377.101 1035.98 376.851 1036.7 377.271L1065.56 393.943V327.213L1035.19 309.664C1034.46 309.244 1034.21 308.315 1034.63 307.589C1035.05 306.861 1035.98 306.609 1036.7 307.027L1065.56 323.699V256.971L1035.19 239.423C1034.46 239.006 1034.21 238.074 1034.63 237.347C1035.05 236.619 1035.98 236.367 1036.7 236.787L1065.56 253.461V186.73L1035.19 169.182C1034.46 168.762 1034.21 167.832 1034.63 167.105C1035.05 166.377 1035.98 166.124 1036.7 166.543L1065.56 183.216V144.392H1065.56Z" fill="#022524"/>
<path fill-rule="evenodd" clip-rule="evenodd" d="M963.527 134.782C951.405 134.782 941.485 144.709 941.485 156.841V247.036V251.437C940.085 286.736 903.28 288.536 903.28 351.94C903.28 428.565 903.28 406.177 903.28 482.802C903.28 498.437 916.062 511.234 931.691 511.234H995.364C1010.99 511.234 1023.77 498.439 1023.77 482.802C1023.77 370.228 1023.77 356.672 1023.77 244.097C1023.77 210.763 1016.14 208.518 1000.51 199.49C986.77 191.553 985.643 177.5 985.57 174.213V173.509V156.843C985.57 144.711 975.649 134.782 963.527 134.782Z" fill="#2B835E"/>
<path fill-rule="evenodd" clip-rule="evenodd" d="M966.199 201.271C966.199 199.793 965.002 198.594 963.527 198.594C962.051 198.594 960.854 199.793 960.854 201.271V262.449L948.264 255.175C947.502 254.734 946.524 254.998 946.083 255.763C945.643 256.528 945.907 257.505 946.671 257.946L960.852 266.139V353.645L923.573 332.102C922.811 331.663 921.831 331.927 921.39 332.69C920.954 333.461 921.214 334.434 921.98 334.877L960.852 357.335V441.248L923.573 419.708C922.811 419.265 921.831 419.531 921.39 420.296C920.954 421.063 921.214 422.038 921.98 422.481L960.852 444.94V541.406C960.852 542.884 962.048 544.084 963.525 544.084C965 544.084 966.196 542.884 966.196 541.406V467.273L998.12 448.828C998.883 448.387 999.148 447.41 998.708 446.643C998.27 445.878 997.294 445.612 996.527 446.055L966.194 463.581V393.442L998.118 374.996C998.88 374.554 999.146 373.577 998.706 372.812C998.268 372.047 997.291 371.785 996.525 372.223L966.192 389.752V319.61L998.116 301.165C998.878 300.722 999.144 299.749 998.704 298.978C998.266 298.215 997.289 297.951 996.523 298.39L966.19 315.92V245.777L998.114 227.331C998.876 226.891 999.142 225.914 998.702 225.149C998.264 224.384 997.287 224.118 996.521 224.558L966.188 242.085V201.271H966.199Z" fill="#10210D"/>
<path fill-rule="evenodd" clip-rule="evenodd" d="M1081.78 382.006C1034.36 382.006 995.91 420.324 995.91 467.593C995.91 469.568 995.979 471.53 996.112 473.473C966.096 478.016 941.846 500.037 934.129 528.798C925.888 529.537 918.323 532.627 912.119 537.384C902.311 526.849 888.298 520.252 872.741 520.252C843.084 520.252 819.037 544.217 819.037 573.779C819.037 581.692 820.76 589.197 823.848 595.956H982.635C992.748 579.666 998.604 560.509 998.604 540.048C998.604 507.852 1025.03 481.508 1057.34 481.508C1094.69 481.508 1125.25 451.052 1125.25 413.821C1125.25 406.085 1123.93 398.641 1121.5 391.701C1109.62 385.511 1096.11 382.006 1081.78 382.006Z" fill="#65875C"/>
<path fill-rule="evenodd" clip-rule="evenodd" d="M901.823 402.14C944.728 402.14 979.509 436.948 979.509 479.891C979.509 481.684 979.448 483.468 979.328 485.234C992.687 487.261 1004.78 493.139 1014.46 501.694C1005.67 512.034 1000.35 525.402 1000.35 539.956C1000.35 560.653 994.455 580.031 984.266 596.506H714.953C713.024 590.153 711.984 583.412 711.984 576.426C711.984 538.313 742.857 507.415 780.942 507.415C783.808 507.415 786.633 507.591 789.406 507.933C795.28 493.783 808.412 483.413 824.154 481.476C824.142 480.949 824.132 480.423 824.132 479.893C824.132 436.946 858.916 402.14 901.823 402.14Z" fill="#86C194"/>
<path fill-rule="evenodd" clip-rule="evenodd" d="M761.886 193.179C762.471 193.179 762.943 192.705 762.943 192.119C762.943 191.533 762.471 191.059 761.886 191.059H731.08C728.552 191.059 726.263 190.035 724.611 188.379C722.954 186.722 721.931 184.431 721.931 181.903C721.931 179.374 722.954 177.087 724.611 175.429C726.265 173.772 728.552 172.747 731.08 172.747C732.704 172.747 734.223 173.167 735.541 173.905C736.904 174.669 738.055 175.774 738.877 177.112C739.185 177.61 739.834 177.765 740.332 177.459C740.831 177.153 740.986 176.501 740.68 176.003C739.674 174.366 738.253 173.005 736.564 172.06C734.938 171.149 733.067 170.631 731.08 170.631C727.969 170.631 725.152 171.892 723.112 173.934C721.073 175.974 719.813 178.793 719.813 181.907C719.813 185.02 721.073 187.839 723.112 189.878C725.145 191.913 727.95 193.174 731.051 193.181H731.08H761.886V193.179ZM767.673 191.061C767.088 191.061 766.616 191.535 766.616 192.121C766.616 192.707 767.088 193.181 767.673 193.181H771.127C771.714 193.181 772.188 192.707 772.188 192.121C772.188 191.535 771.714 191.061 771.127 191.061H767.673Z" fill="white" fill-opacity="0.5"/>
<path fill-rule="evenodd" clip-rule="evenodd" d="M944.471 52.5516C943.885 52.5516 943.412 52.0776 943.412 51.4918C943.412 50.906 943.885 50.4319 944.471 50.4319H975.275C977.804 50.4319 980.091 49.4076 981.746 47.7518C983.402 46.0943 984.427 43.8036 984.427 41.2758C984.427 38.7481 983.402 36.459 981.746 34.8015C980.091 33.1457 977.804 32.1197 975.275 32.1197C973.654 32.1197 972.132 32.5396 970.815 33.2761C969.45 34.0396 968.302 35.1452 967.478 36.4827C967.172 36.9805 966.52 37.138 966.023 36.8315C965.524 36.5251 965.368 35.8732 965.676 35.3738C966.683 33.7383 968.102 32.3754 969.789 31.4306C971.416 30.5198 973.289 30 975.275 30C978.389 30 981.204 31.2613 983.243 33.3032C985.283 35.345 986.543 38.164 986.543 41.2758C986.543 44.3894 985.283 47.2083 983.243 49.2501C981.209 51.2835 978.404 52.5448 975.304 52.5516H975.275H944.471ZM938.68 50.4319C939.265 50.4319 939.741 50.906 939.741 51.4918C939.741 52.0776 939.265 52.5516 938.68 52.5516H935.226C934.64 52.5516 934.167 52.0776 934.167 51.4918C934.167 50.906 934.64 50.4319 935.226 50.4319H938.68Z" fill="white" fill-opacity="0.5"/>
<path fill-rule="evenodd" clip-rule="evenodd" d="M696.572 129.671C696.572 129.21 696.948 128.834 697.408 128.834C697.868 128.834 698.244 129.209 698.244 129.671V131.352H699.924C700.382 131.352 700.759 131.726 700.759 132.188C700.759 132.651 700.382 133.023 699.924 133.023H698.244V134.704C698.244 135.166 697.868 135.541 697.408 135.541C696.948 135.541 696.572 135.166 696.572 134.704V133.023H694.893C694.434 133.023 694.059 132.651 694.059 132.188C694.059 131.726 694.434 131.352 694.893 131.352H696.572V129.671Z" fill="white"/>
<path fill-rule="evenodd" clip-rule="evenodd" d="M935.283 166.852C935.283 166.39 935.657 166.016 936.119 166.016C936.581 166.016 936.955 166.39 936.955 166.852V168.533H938.633C939.095 168.533 939.469 168.907 939.469 169.368C939.469 169.83 939.095 170.204 938.633 170.204H936.955V171.885C936.955 172.348 936.579 172.722 936.119 172.722C935.657 172.722 935.283 172.348 935.283 171.885V170.204H933.605C933.145 170.204 932.77 169.83 932.77 169.368C932.77 168.907 933.145 168.533 933.605 168.533H935.283V166.852Z" fill="white"/>
<path fill-rule="evenodd" clip-rule="evenodd" d="M1027.69 58.8752C1027.69 58.4147 1028.07 58.0388 1028.53 58.0388C1028.99 58.0388 1029.37 58.4147 1029.37 58.8752V60.5564H1031.05C1031.51 60.5564 1031.88 60.9306 1031.88 61.3928C1031.88 61.8533 1031.51 62.2291 1031.05 62.2291H1029.37V63.9104C1029.37 64.3709 1028.99 64.7467 1028.53 64.7467C1028.07 64.7467 1027.69 64.3726 1027.69 63.9104V62.2291H1026.02C1025.56 62.2291 1025.18 61.855 1025.18 61.3928C1025.18 60.9306 1025.56 60.5564 1026.02 60.5564H1027.69V58.8752Z" fill="white"/>
<path fill-rule="evenodd" clip-rule="evenodd" d="M772.565 237.212C772.565 236.75 772.941 236.376 773.401 236.376C773.861 236.376 774.237 236.75 774.237 237.212V238.894H775.916C776.375 238.894 776.752 239.268 776.752 239.73C776.752 240.192 776.375 240.566 775.916 240.566H774.237V242.246C774.237 242.708 773.861 243.082 773.401 243.082C772.939 243.082 772.565 242.708 772.565 242.246V240.566H770.885C770.427 240.566 770.051 240.192 770.051 239.73C770.051 239.268 770.427 238.894 770.885 238.894H772.565V237.212Z" fill="white"/>
<path fill-rule="evenodd" clip-rule="evenodd" d="M905.027 298.236C905.027 297.775 905.403 297.401 905.863 297.401C906.325 297.401 906.699 297.775 906.699 298.236V299.917H908.378C908.839 299.917 909.212 300.291 909.212 300.753C909.212 301.215 908.839 301.59 908.378 301.59H906.699V303.271C906.699 303.731 906.325 304.105 905.863 304.105C905.401 304.105 905.027 303.731 905.027 303.271V301.59H903.347C902.887 301.59 902.512 301.215 902.512 300.753C902.512 300.291 902.889 299.917 903.347 299.917H905.027V298.236Z" fill="white"/>
<path fill-rule="evenodd" clip-rule="evenodd" d="M899.72 30.9533C899.72 30.491 900.095 30.1169 900.556 30.1169C901.017 30.1169 901.391 30.491 901.391 30.9533V32.6328H903.073C903.531 32.6328 903.905 33.0086 903.905 33.4691C903.905 33.9314 903.531 34.3055 903.073 34.3055H901.391V35.9867C901.391 36.4489 901.017 36.8231 900.556 36.8231C900.095 36.8231 899.72 36.4489 899.72 35.9867V34.3055H898.042C897.582 34.3055 897.206 33.9314 897.206 33.4691C897.206 33.0086 897.582 32.6328 898.042 32.6328H899.72V30.9533Z" fill="white"/>
<path fill-rule="evenodd" clip-rule="evenodd" d="M1014.11 507.063C994.361 507.063 978.356 523.085 978.356 542.843C978.356 543.67 978.384 544.49 978.438 545.303C965.942 547.201 955.847 556.407 952.635 568.428C949.204 568.74 946.054 570.03 943.471 572.019C939.386 567.614 933.554 564.856 927.077 564.856C914.727 564.856 904.718 574.877 904.718 587.236C904.718 590.541 905.433 593.682 906.722 596.508H1100.1C1100.99 593.584 1101.47 590.482 1101.47 587.269C1101.47 569.73 1087.26 555.508 1069.73 555.508C1068.41 555.508 1067.12 555.593 1065.84 555.749C1063.14 549.236 1057.09 544.465 1049.85 543.576C1049.86 543.334 1049.86 543.088 1049.86 542.844C1049.86 523.083 1033.85 507.063 1014.11 507.063Z" fill="#86C194"/>
<path fill-rule="evenodd" clip-rule="evenodd" d="M841.14 484.036C842.084 486.824 842.666 493.053 842.923 496.405C843.28 501.061 841.375 501.723 839.095 497.736C837.452 494.865 834.488 489.46 833.715 486.616C832.22 481.107 839.315 478.643 841.14 484.036Z" fill="#415832"/>
<path fill-rule="evenodd" clip-rule="evenodd" d="M839.071 489.736C840.58 492.262 842.46 498.232 843.412 501.452C844.738 505.932 843.016 506.977 839.951 503.557C837.742 501.097 833.708 496.439 832.353 493.822C829.733 488.751 836.155 484.848 839.071 489.736Z" fill="#307754"/>
<path fill-rule="evenodd" clip-rule="evenodd" d="M838.706 490.083C838.953 493.014 840.907 498.96 842.006 502.131C843.537 506.541 845.547 506.391 846.046 501.821C846.408 498.535 846.97 492.396 846.543 489.477C845.718 483.832 838.23 484.41 838.706 490.083Z" fill="#749067"/>
<path fill-rule="evenodd" clip-rule="evenodd" d="M835.173 513.596C836.989 520.049 844.518 532.154 848.697 538.581C854.504 547.509 859.769 545.815 859.284 535.175C858.933 527.513 857.996 513.282 855.712 506.982C851.287 494.79 831.665 501.108 835.173 513.596Z" fill="#EC6F00"/>
<path fill-rule="evenodd" clip-rule="evenodd" d="M835.174 513.597C835.312 514.082 835.483 514.604 835.681 515.152C836.226 514.785 836.779 514.435 837.276 514.123C837.293 514.111 837.307 514.099 837.317 514.086C837.334 514.082 837.352 514.076 837.364 514.065C837.386 514.054 837.422 514.032 837.439 514.018C838.779 513.146 840.064 512.433 841.494 511.727C841.636 511.644 841.851 511.561 842.005 511.487C842.35 511.324 842.719 511.165 843.052 510.979C843.605 510.679 843.948 510.698 844.121 510.011C844.314 509.154 843.241 509.145 842.666 509.159C842.426 509.11 841.506 509.303 841.257 509.367C841.045 509.421 840.841 509.486 840.633 509.555C839.017 510.099 837.483 510.872 836.019 511.754C835.996 511.763 835.962 511.79 835.937 511.804C835.923 511.814 835.906 511.826 835.896 511.837C835.877 511.846 835.859 511.854 835.843 511.865C835.529 512.066 835.224 512.279 834.92 512.496C834.986 512.857 835.067 513.222 835.174 513.597ZM842.7 528.944C843.157 529.718 843.615 530.485 844.072 531.237L844.084 531.231C845.297 530.512 846.527 529.926 847.723 529.235C848.392 528.829 848.861 528.529 848.599 527.71C848.321 526.851 847.646 526.967 846.875 527.151C845.682 527.447 843.844 528.291 842.761 528.904C842.749 528.912 842.735 528.922 842.725 528.932C842.719 528.936 842.708 528.941 842.7 528.944ZM859.312 536.494C859.312 536.067 859.302 535.63 859.282 535.175C859.26 534.741 859.241 534.289 859.218 533.818L859.049 533.837C859.035 533.837 859.02 533.842 859.008 533.849C859.001 533.844 858.974 533.844 858.967 533.847C857.734 533.995 855.934 534.45 854.799 534.936C854.163 535.207 852.989 535.684 853.271 536.571C853.55 537.435 854.73 537.194 855.408 537.103C856.731 536.895 857.939 536.634 859.29 536.504L859.312 536.494ZM857.79 516.935C856.574 516.851 855.408 516.746 854.097 516.851C854.08 516.851 854.063 516.851 854.043 516.846C854.028 516.856 854.009 516.859 853.994 516.861C851.957 516.979 850.005 517.501 848.054 518.068C847.487 518.205 846.922 518.386 846.347 518.522C845.693 518.667 843.295 519.395 842.933 518.439C842.669 517.45 845.038 516.642 845.657 516.38C846.2 516.156 846.755 515.953 847.308 515.753C849.364 515.063 851.619 514.374 853.794 514.191C853.813 514.191 853.836 514.191 853.853 514.194C853.877 514.186 853.897 514.182 853.918 514.181C855.051 514.106 856.249 514.221 857.423 514.401C857.553 515.224 857.677 516.072 857.79 516.935ZM847.963 509.841C848.254 509.875 849.164 509.682 849.465 509.582C849.47 509.582 849.475 509.577 849.48 509.572C849.484 509.572 849.489 509.574 849.495 509.572C849.805 509.471 850.666 509.088 850.893 508.89C851.306 508.531 851.194 508.116 851.043 507.657C850.893 507.192 850.746 506.797 850.194 506.751C849.895 506.728 848.973 506.931 848.665 507.033C848.66 507.033 848.656 507.038 848.651 507.041C848.646 507.041 848.641 507.038 848.636 507.041C848.352 507.134 847.501 507.507 847.298 507.693C846.927 508.03 847.061 508.48 847.18 508.902C847.303 509.35 847.43 509.78 847.963 509.841ZM852.657 527.586C852.825 527.625 853.408 527.568 853.579 527.513C853.584 527.513 853.586 527.507 853.586 527.503C853.588 527.503 853.593 527.508 853.598 527.508C853.769 527.454 854.276 527.158 854.391 527.029C854.699 526.67 854.581 526.237 854.45 525.829C854.319 525.421 854.163 525.001 853.703 524.888C853.534 524.849 852.95 524.906 852.779 524.962C852.774 524.964 852.774 524.969 852.774 524.971C852.769 524.969 852.764 524.964 852.762 524.969C852.591 525.021 852.084 525.314 851.969 525.446C851.661 525.807 851.779 526.239 851.91 526.647C852.04 527.051 852.195 527.476 852.657 527.586Z" fill="#E84D09"/>
<path fill-rule="evenodd" clip-rule="evenodd" d="M820.488 496.649C821.933 499.212 823.659 505.224 824.535 508.47C825.746 512.977 824 513.983 821.021 510.488C818.874 507.972 814.96 503.213 813.669 500.56C811.177 495.43 817.695 491.688 820.488 496.649Z" fill="#0C5C44"/>
<path fill-rule="evenodd" clip-rule="evenodd" d="M819.513 502.634C821.464 504.833 824.416 510.351 825.954 513.337C828.089 517.49 826.588 518.842 822.941 516.051C820.315 514.04 815.489 510.215 813.67 507.892C810.155 503.399 815.737 498.376 819.513 502.634Z" fill="#237054"/>
<path fill-rule="evenodd" clip-rule="evenodd" d="M819.219 503.04C820.004 505.878 823.025 511.357 824.693 514.27C827.018 518.324 828.963 517.797 828.608 513.216C828.353 509.919 827.767 503.784 826.805 500.995C824.949 495.598 817.697 497.555 819.219 503.04Z" fill="#51A47D"/>
<path fill-rule="evenodd" clip-rule="evenodd" d="M820.109 526.804C823.088 532.809 832.736 543.306 838.032 548.843C845.396 556.538 850.255 553.895 847.8 543.526C846.037 536.065 842.475 522.256 839.061 516.486C832.45 505.331 814.34 515.186 820.109 526.804Z" fill="#EE7E00"/>
<path fill-rule="evenodd" clip-rule="evenodd" d="M820.109 526.804C820.334 527.258 820.596 527.737 820.895 528.24C821.362 527.778 821.841 527.334 822.272 526.929C822.286 526.916 822.296 526.901 822.304 526.889C822.321 526.882 822.338 526.87 822.348 526.858C822.365 526.841 822.396 526.814 822.413 526.796C823.566 525.695 824.695 524.75 825.972 523.79C826.095 523.685 826.29 523.565 826.432 523.464C826.74 523.239 827.072 523.012 827.366 522.771C827.853 522.372 828.193 522.328 828.237 521.618C828.269 520.74 827.214 520.934 826.65 521.053C826.405 521.048 825.536 521.408 825.302 521.518C825.108 521.613 824.915 521.711 824.723 521.818C823.236 522.656 821.871 523.702 820.603 524.837C820.579 524.85 820.552 524.882 820.528 524.901C820.515 524.916 820.503 524.93 820.493 524.943C820.474 524.954 820.46 524.967 820.445 524.979C820.178 525.238 819.917 525.502 819.657 525.773C819.784 526.112 819.936 526.457 820.109 526.804ZM830.35 540.487C830.942 541.161 831.536 541.83 832.123 542.485L832.133 542.477C833.192 541.544 834.293 540.743 835.339 539.844C835.926 539.318 836.329 538.937 835.916 538.18C835.488 537.389 834.842 537.628 834.123 537.955C833.006 538.461 831.357 539.632 830.406 540.438C830.394 540.448 830.386 540.46 830.375 540.472C830.364 540.476 830.355 540.479 830.35 540.487ZM848.077 544.817C847.996 544.402 847.905 543.97 847.8 543.525C847.7 543.103 847.595 542.663 847.484 542.208L847.323 542.253C847.308 542.258 847.296 542.265 847.287 542.272C847.277 542.272 847.254 542.277 847.245 542.279C846.059 542.655 844.378 543.435 843.349 544.126C842.777 544.508 841.708 545.196 842.153 546.015C842.586 546.811 843.699 546.356 844.349 546.139C845.613 545.687 846.751 545.208 848.055 544.828L848.077 544.817ZM842.95 525.881C841.74 526.027 840.575 526.139 839.306 526.484C839.287 526.489 839.272 526.494 839.253 526.494C839.238 526.501 839.223 526.508 839.204 526.513C837.229 527.011 835.407 527.884 833.595 528.805C833.064 529.046 832.543 529.33 832.001 529.567C831.385 529.835 829.166 530.994 828.635 530.123C828.188 529.196 830.369 527.966 830.93 527.591C831.423 527.273 831.932 526.97 832.436 526.67C834.329 525.605 836.415 524.513 838.519 523.929C838.54 523.922 838.56 523.923 838.58 523.921C838.601 523.911 838.619 523.904 838.641 523.897C839.741 523.613 840.935 523.503 842.123 523.46C842.398 524.244 842.676 525.053 842.95 525.881ZM831.979 520.738C832.272 520.716 833.128 520.359 833.407 520.206C833.412 520.203 833.414 520.198 833.417 520.191C833.424 520.194 833.427 520.194 833.436 520.189C833.718 520.032 834.495 519.493 834.681 519.258C835.019 518.828 834.83 518.442 834.6 518.021C834.366 517.592 834.145 517.23 833.595 517.289C833.297 517.323 832.429 517.69 832.147 517.848C832.14 517.85 832.138 517.856 832.135 517.861C832.128 517.858 832.123 517.858 832.12 517.861C831.857 518.004 831.093 518.532 830.927 518.75C830.626 519.15 830.839 519.566 831.032 519.961C831.24 520.377 831.443 520.779 831.979 520.738ZM839.883 537.304C840.054 537.308 840.617 537.142 840.776 537.059C840.778 537.054 840.778 537.049 840.778 537.047C840.783 537.049 840.788 537.049 840.79 537.049C840.949 536.961 841.395 536.58 841.478 536.433C841.718 536.021 841.519 535.616 841.316 535.241C841.111 534.865 840.878 534.482 840.404 534.455C840.233 534.45 839.671 534.616 839.514 534.697C839.509 534.702 839.509 534.707 839.509 534.709C839.507 534.707 839.502 534.707 839.497 534.707C839.34 534.795 838.893 535.176 838.809 535.325C838.572 535.735 838.77 536.14 838.973 536.514C839.176 536.893 839.411 537.276 839.883 537.304Z" fill="#EA5E02"/>
<path fill-rule="evenodd" clip-rule="evenodd" d="M897.389 531.106H817.655C815.759 531.106 814.209 532.657 814.209 534.557V593.055C814.209 594.952 815.759 596.506 817.655 596.506H897.389C899.287 596.506 900.838 594.952 900.838 593.055V534.557C900.838 532.657 899.287 531.106 897.389 531.106Z" fill="#C6733A"/>
<path d="M846.277 536.548H819.647V591.061H846.277V536.548Z" fill="#DF8D45"/>
<path d="M897.394 551.183H817.654V556.627H897.394V551.183Z" fill="#C6733A"/>
<path d="M897.394 570.981H817.654V576.424H897.394V570.981Z" fill="#C6733A"/>
<path fill-rule="evenodd" clip-rule="evenodd" d="M934.41 531.106H854.677C852.779 531.106 851.229 532.657 851.229 534.556V593.055C851.229 594.951 852.779 596.506 854.677 596.506H934.41C936.307 596.506 937.856 594.951 937.856 593.055V534.556C937.856 532.657 936.307 531.106 934.41 531.106Z" fill="#DF8D45"/>
<path d="M932.419 536.548H856.667V591.061H932.419V536.548Z" fill="#F6B478"/>
<path d="M934.412 551.183H854.673V556.627H934.412V551.183Z" fill="#DF8D45"/>
<path d="M934.411 570.981H854.673V576.424H934.411V570.981Z" fill="#DF8D45"/>
<path fill-rule="evenodd" clip-rule="evenodd" d="M910.833 491.06C910.833 491.06 910.983 489.899 911.391 486.763C912.624 477.233 890.385 481.162 885.564 481.002C861.429 480.187 864.644 449.367 896.442 457.797C912.995 462.187 924.449 482.761 910.833 491.06Z" fill="#307754"/>
<path fill-rule="evenodd" clip-rule="evenodd" d="M914.523 472.12C914.843 472.714 915.127 473.319 915.382 473.921L915.414 476.696C916.035 477.859 916.526 479.126 916.864 480.517C916.876 481.603 916.754 482.668 916.499 483.69C916.45 482.938 916.357 482.219 916.223 481.53C916.191 481.354 916.152 481.173 916.115 480.998L914.367 481.975C914.164 482.089 913.91 482.017 913.797 481.814C913.685 481.614 913.758 481.357 913.959 481.247L915.902 480.16C915.587 479.036 915.164 477.995 914.638 477.035L914.609 476.984C914.289 476.4 913.932 475.848 913.542 475.325L910.657 477.768C910.481 477.915 910.216 477.895 910.067 477.717C909.918 477.543 909.938 477.277 910.116 477.126L913.022 474.666C912.489 474.025 911.901 473.432 911.27 472.882C910.938 472.596 910.596 472.32 910.239 472.052C909.644 471.612 909.018 471.204 908.365 470.825L904.137 475.098C903.975 475.264 903.708 475.264 903.544 475.103C903.38 474.939 903.38 474.673 903.542 474.507L907.602 470.4C905.885 469.496 903.999 468.786 902.008 468.238L901.904 468.211L894.469 475.232C894.3 475.391 894.035 475.382 893.874 475.215C893.715 475.044 893.725 474.78 893.891 474.62L900.945 467.963C899.27 467.557 897.53 467.262 895.765 467.059L895.742 467.056C894.603 466.927 893.456 466.834 892.311 466.775C891.209 467.648 883.233 473.965 882.287 474.615C882.1 474.746 881.836 474.698 881.704 474.51C881.574 474.317 881.621 474.057 881.812 473.925C882.624 473.364 888.711 468.554 891.022 466.729C885.985 466.585 881.015 467.08 876.95 467.853C876.725 467.894 876.503 467.743 876.459 467.516C876.419 467.291 876.569 467.069 876.796 467.029C879.329 466.545 882.213 466.17 885.248 465.988L881.398 461.542C881.245 461.367 881.264 461.1 881.438 460.949C881.612 460.797 881.878 460.82 882.029 460.991L886.307 465.935C888.229 465.849 890.201 465.84 892.175 465.932C893.14 465.977 894.109 466.047 895.068 466.145L891.451 459.28C891.345 459.078 891.423 458.823 891.627 458.716C891.83 458.608 892.086 458.685 892.194 458.894L896.073 466.253C898.181 466.504 900.253 466.887 902.226 467.43C902.769 467.579 903.305 467.74 903.83 467.913L902.583 462.281C902.535 462.056 902.676 461.831 902.903 461.784C903.128 461.733 903.352 461.877 903.402 462.102L904.758 468.236C906.066 468.712 907.308 469.27 908.473 469.921L908.512 469.944C909.006 470.22 909.49 470.515 909.955 470.828L909.542 467.657C909.512 467.427 909.674 467.213 909.905 467.188C910.135 467.159 910.348 467.32 910.373 467.549L910.886 471.493C911.204 471.734 911.517 471.986 911.816 472.248C912.851 473.149 913.775 474.163 914.553 475.299L914.523 472.12Z" fill="#749067"/>
<path fill-rule="evenodd" clip-rule="evenodd" d="M961.176 474.106C961.176 474.106 960.106 473.635 957.215 472.355C948.433 468.473 963.316 451.478 965.681 447.271C977.495 426.19 949.494 412.966 940.211 444.547C935.381 460.988 947.022 481.457 961.176 474.106Z" fill="#307754"/>
<path fill-rule="evenodd" clip-rule="evenodd" d="M943.08 467.445C943.424 468.024 943.789 468.58 944.171 469.113L946.528 470.576C947.196 471.712 948.025 472.792 949.038 473.799C949.959 474.372 950.93 474.819 951.935 475.132C951.322 474.698 950.757 474.246 950.234 473.776C950.099 473.657 949.969 473.528 949.837 473.406L951.578 472.416C951.777 472.304 951.85 472.047 951.737 471.847C951.623 471.646 951.364 471.578 951.166 471.69L949.228 472.789C948.429 471.935 947.761 471.033 947.215 470.086L947.186 470.036C946.853 469.46 946.563 468.869 946.32 468.261L949.903 467.057C950.121 466.986 950.238 466.749 950.165 466.529C950.092 466.313 949.855 466.192 949.634 466.267L946.025 467.479C945.753 466.69 945.553 465.881 945.41 465.055C945.333 464.621 945.278 464.183 945.235 463.741C945.166 463.003 945.139 462.256 945.156 461.501L951.001 460.099C951.227 460.045 951.364 459.818 951.31 459.593C951.258 459.369 951.029 459.229 950.806 459.283L945.193 460.629C945.308 458.692 945.68 456.706 946.245 454.72L946.276 454.62L956.127 451.896C956.35 451.837 956.482 451.6 956.423 451.38C956.36 451.158 956.127 451.024 955.905 451.087L946.56 453.669C947.084 452.025 947.731 450.383 948.472 448.771L948.483 448.747C948.96 447.708 949.476 446.676 950.025 445.666C951.339 445.175 960.872 441.624 961.917 441.152C962.129 441.057 962.222 440.81 962.125 440.597C962.031 440.39 961.784 440.292 961.57 440.39C960.674 440.795 953.408 443.51 950.649 444.538C953.139 440.156 956.137 436.159 958.904 433.078C959.06 432.907 959.043 432.639 958.872 432.487C958.701 432.333 958.434 432.346 958.278 432.521C956.553 434.439 954.739 436.711 953.009 439.213L951.205 433.613C951.134 433.391 950.899 433.271 950.679 433.34C950.459 433.411 950.339 433.65 950.41 433.87L952.415 440.094C951.346 441.692 950.317 443.375 949.372 445.114C948.91 445.962 948.47 446.829 948.052 447.696L944.066 441.044C943.948 440.849 943.686 440.781 943.491 440.901C943.293 441.018 943.229 441.277 943.347 441.475L947.626 448.612C946.746 450.548 946 452.521 945.442 454.49C945.286 455.03 945.149 455.573 945.022 456.112L940.856 452.126C940.69 451.966 940.422 451.971 940.265 452.138C940.104 452.306 940.111 452.572 940.28 452.732L944.818 457.075C944.549 458.435 944.379 459.793 944.332 461.125L944.329 461.171C944.31 461.74 944.312 462.303 944.339 462.864L941.842 460.868C941.661 460.725 941.394 460.753 941.251 460.932C941.106 461.113 941.136 461.381 941.316 461.523L944.42 464.003C944.461 464.403 944.518 464.801 944.584 465.192C944.818 466.55 945.205 467.865 945.775 469.12L943.08 467.445Z" fill="#749067"/>
<path fill-rule="evenodd" clip-rule="evenodd" d="M961.1 472.345C961.1 472.345 959.848 472.617 956.465 473.346C946.179 475.56 948.456 450.904 947.842 445.65C944.77 419.359 911.44 425.659 923.514 459.635C929.8 477.323 953.278 487.975 961.1 472.345Z" fill="#749067"/>
<path fill-rule="evenodd" clip-rule="evenodd" d="M940.776 478.093C941.455 478.384 942.135 478.641 942.817 478.867L945.85 478.645C947.171 479.222 948.599 479.647 950.147 479.884C951.329 479.801 952.48 479.576 953.573 479.203C952.75 479.215 951.955 479.18 951.192 479.099C950.994 479.08 950.798 479.053 950.602 479.027L951.51 477.028C951.614 476.798 951.514 476.525 951.282 476.422C951.052 476.32 950.78 476.42 950.675 476.65L949.666 478.872C948.411 478.626 947.237 478.259 946.143 477.773L946.087 477.747C945.419 477.451 944.784 477.111 944.178 476.733L946.581 473.359C946.728 473.151 946.682 472.865 946.476 472.717C946.271 472.57 945.982 472.621 945.835 472.822L943.414 476.222C942.666 475.699 941.966 475.11 941.311 474.47C940.966 474.133 940.636 473.782 940.311 473.418C939.778 472.81 939.274 472.162 938.801 471.481L943.084 466.475C943.248 466.282 943.221 465.992 943.032 465.825C942.84 465.664 942.549 465.688 942.384 465.877L938.269 470.684C937.133 468.893 936.183 466.895 935.41 464.77L935.368 464.662L942.355 455.902C942.512 455.704 942.48 455.413 942.282 455.255C942.084 455.099 941.793 455.13 941.636 455.328L935.013 463.636C934.419 461.839 933.937 459.967 933.558 458.057L933.553 458.03C933.306 456.801 933.105 455.555 932.937 454.307C933.79 453.025 939.958 443.741 940.584 442.647C940.707 442.43 940.631 442.149 940.413 442.02C940.191 441.897 939.91 441.975 939.787 442.19C939.247 443.131 934.551 450.215 932.768 452.905C932.161 447.418 932.243 441.943 932.724 437.431C932.749 437.18 932.565 436.953 932.315 436.924C932.064 436.897 931.836 437.085 931.81 437.334C931.513 440.146 931.362 443.333 931.438 446.663L926.241 442.857C926.037 442.71 925.749 442.755 925.598 442.96C925.45 443.162 925.494 443.453 925.698 443.6L931.477 447.828C931.557 449.934 931.728 452.089 932.005 454.234C932.14 455.286 932.308 456.337 932.496 457.378L924.685 454.046C924.453 453.946 924.183 454.058 924.084 454.29C923.985 454.525 924.096 454.795 924.326 454.893L932.709 458.465C933.174 460.747 933.778 462.972 934.548 465.078C934.759 465.661 934.986 466.226 935.219 466.79L928.965 465.937C928.716 465.901 928.483 466.079 928.447 466.328C928.415 466.575 928.591 466.809 928.84 466.844L935.656 467.77C936.293 469.153 937.014 470.464 937.826 471.676L937.857 471.718C938.205 472.237 938.57 472.736 938.953 473.215L935.454 473.054C935.204 473.039 934.987 473.237 934.974 473.491C934.965 473.745 935.16 473.958 935.414 473.97L939.76 474.173C940.054 474.5 940.359 474.817 940.668 475.121C941.748 476.175 942.938 477.087 944.244 477.835L940.776 478.093Z" fill="#307754"/>
<path fill-rule="evenodd" clip-rule="evenodd" d="M997.489 488.641C997.489 488.641 998.797 489.379 1002.33 491.378C1013.08 497.458 1019.15 469.05 1021.67 463.385C1034.31 435.013 1069.43 453.747 1044.03 487.566C1030.81 505.173 1000.78 508.881 997.489 488.641Z" fill="#307754"/>
<path fill-rule="evenodd" clip-rule="evenodd" d="M1018.24 502.195C1017.38 502.283 1016.53 502.336 1015.69 502.348L1012.37 501.042C1010.69 501.22 1008.94 501.195 1007.12 500.924C1005.82 500.414 1004.62 499.757 1003.52 498.958C1004.44 499.26 1005.34 499.498 1006.22 499.673C1006.45 499.718 1006.68 499.762 1006.91 499.8L1006.59 497.243C1006.56 496.95 1006.77 496.681 1007.06 496.646C1007.35 496.607 1007.62 496.82 1007.66 497.113L1008.01 499.955C1009.5 500.121 1010.95 500.121 1012.35 499.959L1012.42 499.95C1013.27 499.851 1014.1 499.693 1014.91 499.48L1013.4 494.861C1013.31 494.58 1013.46 494.275 1013.74 494.182C1014.02 494.087 1014.33 494.243 1014.42 494.524L1015.94 499.18C1016.97 498.853 1017.95 498.437 1018.91 497.951C1019.42 497.695 1019.91 497.419 1020.4 497.125C1021.21 496.63 1022 496.083 1022.77 495.482L1019.72 488.375C1019.61 488.104 1019.73 487.784 1020.01 487.671C1020.28 487.556 1020.6 487.684 1020.71 487.955L1023.64 494.778C1025.54 493.17 1027.3 491.265 1028.91 489.154L1028.99 489.049L1024.23 476.793C1024.13 476.513 1024.26 476.197 1024.54 476.092C1024.82 475.987 1025.13 476.122 1025.24 476.402L1029.75 488.024C1031.04 486.223 1032.24 484.293 1033.33 482.287L1033.35 482.26C1034.05 480.968 1034.71 479.646 1035.34 478.303C1034.83 476.571 1031.17 464.01 1030.85 462.571C1030.79 462.28 1030.97 461.99 1031.26 461.926C1031.55 461.863 1031.84 462.048 1031.9 462.336C1032.18 463.575 1034.96 473.159 1036.02 476.796C1038.62 470.864 1040.44 464.694 1041.48 459.476C1041.54 459.186 1041.83 458.997 1042.12 459.058C1042.41 459.114 1042.6 459.403 1042.54 459.693C1041.89 462.945 1040.94 466.562 1039.69 470.268L1046.85 467.83C1047.13 467.733 1047.43 467.885 1047.53 468.167C1047.63 468.448 1047.47 468.754 1047.19 468.847L1039.24 471.559C1038.42 473.891 1037.48 476.246 1036.41 478.552C1035.89 479.681 1035.34 480.8 1034.76 481.901L1044.67 480.908C1044.97 480.876 1045.24 481.096 1045.26 481.391C1045.29 481.684 1045.07 481.95 1044.78 481.98L1034.14 483.047C1032.83 485.437 1031.37 487.721 1029.77 489.809C1029.33 490.386 1028.88 490.943 1028.42 491.487L1035.72 492.726C1036.02 492.772 1036.21 493.053 1036.16 493.344C1036.12 493.637 1035.84 493.832 1035.54 493.786L1027.59 492.435C1026.39 493.761 1025.12 494.976 1023.79 496.05L1023.74 496.087C1023.17 496.544 1022.59 496.974 1021.99 497.379L1025.97 498.423C1026.25 498.499 1026.43 498.794 1026.35 499.082C1026.27 499.37 1025.98 499.542 1025.69 499.468L1020.75 498.169C1020.31 498.435 1019.86 498.682 1019.4 498.914C1017.83 499.715 1016.18 500.321 1014.45 500.704L1018.24 502.195Z" fill="#749067"/>
<path fill-rule="evenodd" clip-rule="evenodd" d="M919.105 467.61C919.105 467.61 915.532 464.403 915.607 460.859C915.68 457.314 917.463 456.234 917.485 455.32C917.508 454.399 915.69 452.866 913.145 453.285C910.598 453.701 912.203 455.795 911.713 459.451C911.222 463.104 910.288 466.255 907.796 468.153C905.303 470.044 919.105 467.61 919.105 467.61Z" fill="#726840"/>
<path fill-rule="evenodd" clip-rule="evenodd" d="M917.48 455.211C917.37 454.285 915.595 452.88 913.146 453.283C912.367 453.408 911.978 453.689 911.796 454.128C911.89 454.934 913.641 455.917 915.409 456.146C917.422 456.41 917.48 455.274 917.48 455.211Z" fill="#928459"/>
<path fill-rule="evenodd" clip-rule="evenodd" d="M914.21 469.372C913.815 469.125 913.03 468.698 911.751 468.293C893.368 462.449 882.817 477.087 885.114 490.945C887.212 503.592 897.868 512.149 914.21 507.862V469.372Z" fill="#EF8200"/>
<path fill-rule="evenodd" clip-rule="evenodd" d="M914.209 468.124C913.898 467.862 913.279 467.405 912.271 466.971C897.757 460.737 889.426 476.361 891.239 491.143C892.896 504.639 901.308 513.766 914.209 509.196V468.124Z" fill="#F4A300"/>
<path fill-rule="evenodd" clip-rule="evenodd" d="M914.21 469.372C914.605 469.125 915.39 468.698 916.669 468.293C935.05 462.449 945.604 477.087 943.305 490.945C941.209 503.592 930.553 512.149 914.21 507.862V469.372Z" fill="#EF8200"/>
<path fill-rule="evenodd" clip-rule="evenodd" d="M914.21 468.124C914.521 467.862 915.142 467.405 916.152 466.971C930.665 460.737 938.995 476.361 937.181 491.143C935.523 504.639 927.114 513.766 914.211 509.196V468.124H914.21Z" fill="#F4A300"/>
<path fill-rule="evenodd" clip-rule="evenodd" d="M906.052 507.5C896.99 496.568 896.242 465.551 914.209 465.72C931.674 465.554 931.458 494.854 923.108 506.533C918.873 512.462 910.821 513.251 906.052 507.5Z" fill="#F7B500"/>
<path fill-rule="evenodd" clip-rule="evenodd" d="M982.529 474.102C982.529 474.102 979.917 471.758 979.969 469.165C980.022 466.575 981.326 465.786 981.343 465.112C981.363 464.44 980.032 463.318 978.171 463.626C976.307 463.932 977.482 465.461 977.122 468.131C976.765 470.808 976.082 473.109 974.258 474.497C972.434 475.885 982.529 474.102 982.529 474.102Z" fill="#726840"/>
<path fill-rule="evenodd" clip-rule="evenodd" d="M981.342 465.034C981.262 464.359 979.965 463.333 978.173 463.626C977.603 463.721 977.32 463.925 977.187 464.24C977.256 464.831 978.533 465.549 979.829 465.72C981.301 465.915 981.342 465.084 981.342 465.034Z" fill="#928459"/>
<path fill-rule="evenodd" clip-rule="evenodd" d="M978.951 475.391C978.662 475.213 978.087 474.898 977.154 474.602C963.71 470.33 955.993 481.034 957.674 491.167C959.207 500.416 966.999 506.674 978.951 503.541V475.391Z" fill="#E51312"/>
<path fill-rule="evenodd" clip-rule="evenodd" d="M978.951 474.478C978.723 474.285 978.27 473.952 977.532 473.635C966.918 469.079 960.826 480.504 962.153 491.312C963.364 501.181 969.517 507.859 978.951 504.515V474.478Z" fill="#E7350F"/>
<path fill-rule="evenodd" clip-rule="evenodd" d="M978.951 475.391C979.238 475.213 979.813 474.898 980.747 474.602C994.19 470.33 1001.91 481.034 1000.23 491.167C998.693 500.416 990.903 506.674 978.951 503.541V475.391Z" fill="#E51312"/>
<path fill-rule="evenodd" clip-rule="evenodd" d="M978.951 474.478C979.179 474.285 979.631 473.952 980.368 473.635C990.984 469.079 997.074 480.504 995.748 491.312C994.536 501.181 988.385 507.859 978.951 504.515V474.478Z" fill="#E7350F"/>
<path fill-rule="evenodd" clip-rule="evenodd" d="M972.986 503.276C966.356 495.281 965.812 472.599 978.951 472.723C991.723 472.604 991.566 494.028 985.459 502.57C982.362 506.904 976.473 507.479 972.986 503.276Z" fill="#E84A0A"/>
<path fill-rule="evenodd" clip-rule="evenodd" d="M1039.21 496.048H1029.51C1028.99 496.048 1028.58 496.468 1028.58 496.979C1028.58 497.489 1028.99 497.907 1029.51 497.907H1039.21C1039.72 497.907 1040.13 497.489 1040.13 496.979C1040.13 496.468 1039.72 496.048 1039.21 496.048Z" fill="#DF8D45"/>
<path fill-rule="evenodd" clip-rule="evenodd" d="M1036.04 499.657H1029.51C1028.99 499.657 1028.58 500.074 1028.58 500.584C1028.58 501.097 1028.99 501.516 1029.51 501.516H1036.04C1036.55 501.516 1036.97 501.097 1036.97 500.584C1036.97 500.074 1036.55 499.657 1036.04 499.657Z" fill="#DF8D45"/>
<path fill-rule="evenodd" clip-rule="evenodd" d="M1039.21 499.657H1039.21C1039.72 499.657 1040.13 500.074 1040.13 500.584C1040.13 501.097 1039.72 501.516 1039.21 501.516H1039.21C1038.7 501.516 1038.28 501.097 1038.28 500.584C1038.28 500.074 1038.7 499.657 1039.21 499.657Z" fill="#DF8D45"/>
<path fill-rule="evenodd" clip-rule="evenodd" d="M981.51 457.623C981.51 457.623 975.625 453.902 974.87 448.816C974.12 443.73 976.41 441.756 976.222 440.436C976.033 439.115 973.059 437.364 969.519 438.576C965.981 439.79 968.783 442.391 968.965 447.739C969.146 453.086 968.573 457.818 965.466 461.135C962.357 464.454 981.51 457.623 981.51 457.623Z" fill="#726840"/>
<path fill-rule="evenodd" clip-rule="evenodd" d="M976.188 440.285C975.808 438.987 972.927 437.409 969.52 438.577C968.443 438.946 967.954 439.447 967.8 440.111C968.129 441.241 970.868 442.225 973.455 442.127C976.396 442.017 976.202 440.377 976.188 440.285Z" fill="#928459"/>
<path fill-rule="evenodd" clip-rule="evenodd" d="M974.935 461.331C974.312 461.071 973.083 460.653 971.158 460.381C943.453 456.478 931.901 479.969 938.538 499.232C944.595 516.813 961.901 526.472 984.241 516.387L974.935 461.331Z" fill="#D54C10"/>
<path fill-rule="evenodd" clip-rule="evenodd" d="M974.635 459.546C974.125 459.244 973.127 458.744 971.58 458.368C949.315 452.969 941.177 477.325 947.348 498.034C952.977 516.931 967.216 527.954 984.565 518.292L974.635 459.546Z" fill="#E07515"/>
<path fill-rule="evenodd" clip-rule="evenodd" d="M974.935 461.331C975.439 460.88 976.461 460.081 978.189 459.192C1003.07 446.386 1021.7 464.766 1021.76 485.14C1021.82 503.738 1008.65 518.555 984.241 516.386L974.935 461.331Z" fill="#D54C10"/>
<path fill-rule="evenodd" clip-rule="evenodd" d="M974.634 459.546C975.014 459.092 975.793 458.292 977.131 457.428C996.382 444.999 1012.07 465.322 1013.05 486.907C1013.94 506.61 1004.12 521.707 984.563 518.291L974.634 459.546Z" fill="#E07515"/>
<path fill-rule="evenodd" clip-rule="evenodd" d="M972.486 517.842C956.878 504.398 948.313 460.22 974.052 456.11C998.992 451.647 1005.77 493.606 996.647 512.332C992.023 521.831 980.695 524.909 972.486 517.842Z" fill="#F29429"/>
<path fill-rule="evenodd" clip-rule="evenodd" d="M920.931 492.247H1048.04C1051.06 492.247 1053.54 494.72 1053.54 497.749V591.007C1053.54 594.029 1051.06 596.506 1048.04 596.506H920.931C917.904 596.506 915.432 594.029 915.432 591.007V497.749C915.432 494.72 917.904 492.247 920.931 492.247Z" fill="#C6733A"/>
<path d="M1044.87 500.926H1002.41V587.83H1044.87V500.926Z" fill="#DF8D45"/>
<path d="M1048.04 524.256H920.926V532.931H1048.04V524.256Z" fill="#C6733A"/>
<path d="M1048.04 555.82H920.925V564.495H1048.04V555.82Z" fill="#C6733A"/>
<path fill-rule="evenodd" clip-rule="evenodd" d="M861.914 492.247H989.023C992.05 492.247 994.521 494.721 994.521 497.749V591.007C994.521 594.029 992.05 596.506 989.023 596.506H861.914C858.891 596.506 856.418 594.029 856.418 591.007V497.749C856.418 494.721 858.891 492.247 861.914 492.247Z" fill="#DF8D45"/>
<path d="M985.85 500.926H865.088V587.83H985.85V500.926Z" fill="#F6B478"/>
<path d="M989.029 524.256H861.909V532.931H989.029V524.256Z" fill="#DF8D45"/>
<path d="M989.028 555.82H861.909V564.495H989.028V555.82Z" fill="#DF8D45"/>
<path fill-rule="evenodd" clip-rule="evenodd" d="M1009.99 492.247C1009.99 492.247 1011.26 492.247 1014.7 492.247C1025.16 492.247 1017.8 515.74 1017.3 520.978C1014.8 547.187 1048.52 548.027 1043.88 512.469C1041.46 493.954 1020.86 478.689 1009.99 492.247Z" fill="#749067"/>
<path fill-rule="evenodd" clip-rule="evenodd" d="M1030.95 490.911C1030.35 490.486 1029.74 490.093 1029.13 489.734L1026.13 489.311C1024.97 488.475 1023.66 487.765 1022.21 487.208C1021.04 487.041 1019.88 487.024 1018.73 487.153C1019.54 487.317 1020.3 487.518 1021.03 487.757C1021.22 487.816 1021.4 487.882 1021.59 487.95L1020.29 489.701C1020.14 489.904 1020.18 490.19 1020.38 490.337C1020.58 490.486 1020.87 490.445 1021.02 490.242L1022.46 488.295C1023.64 488.793 1024.7 489.399 1025.66 490.1L1025.71 490.134C1026.3 490.562 1026.85 491.028 1027.36 491.521L1024.32 494.301C1024.13 494.47 1024.11 494.758 1024.28 494.947C1024.45 495.13 1024.74 495.145 1024.93 494.976L1027.99 492.178C1028.61 492.846 1029.17 493.562 1029.67 494.323C1029.93 494.722 1030.19 495.132 1030.42 495.557C1030.81 496.258 1031.17 496.993 1031.48 497.753L1026.27 501.725C1026.08 501.877 1026.04 502.168 1026.19 502.366C1026.34 502.564 1026.63 502.607 1026.83 502.451L1031.83 498.64C1032.57 500.619 1033.07 502.759 1033.38 504.989L1033.4 505.101L1024.78 512.161C1024.58 512.318 1024.55 512.609 1024.71 512.802C1024.87 512.997 1025.16 513.028 1025.35 512.867L1033.53 506.174C1033.73 508.045 1033.81 509.965 1033.78 511.903V511.929C1033.76 513.175 1033.7 514.429 1033.6 515.679C1032.51 516.747 1024.57 524.488 1023.73 525.416C1023.57 525.604 1023.58 525.895 1023.77 526.061C1023.96 526.23 1024.24 526.213 1024.41 526.025C1025.13 525.224 1031.18 519.316 1033.47 517.076C1032.92 522.539 1031.69 527.849 1030.29 532.132C1030.21 532.372 1030.34 532.63 1030.58 532.708C1030.82 532.787 1031.08 532.657 1031.15 532.418C1032.03 529.743 1032.84 526.677 1033.46 523.425L1037.72 528.209C1037.89 528.397 1038.18 528.418 1038.37 528.248C1038.55 528.079 1038.57 527.789 1038.4 527.603L1033.67 522.285C1034.03 520.216 1034.32 518.088 1034.49 515.941C1034.58 514.892 1034.64 513.835 1034.67 512.785L1041.57 517.656C1041.77 517.8 1042.06 517.75 1042.2 517.548C1042.35 517.34 1042.3 517.054 1042.09 516.911L1034.69 511.683C1034.72 509.371 1034.59 507.073 1034.28 504.867C1034.2 504.259 1034.1 503.658 1033.99 503.064L1039.89 505.202C1040.13 505.287 1040.39 505.165 1040.47 504.926C1040.56 504.691 1040.44 504.428 1040.2 504.342L1033.77 502.018C1033.44 500.538 1033.01 499.112 1032.47 497.765L1032.45 497.717C1032.22 497.142 1031.97 496.579 1031.7 496.034L1035.06 496.923C1035.31 496.988 1035.56 496.84 1035.62 496.596C1035.69 496.351 1035.54 496.104 1035.3 496.039L1031.11 494.935C1030.89 494.555 1030.67 494.185 1030.43 493.823C1029.6 492.574 1028.63 491.436 1027.51 490.435L1030.95 490.911Z" fill="#307754"/>
<path fill-rule="evenodd" clip-rule="evenodd" d="M946.787 492.247C946.787 492.247 945.283 492.247 941.223 492.247C928.88 492.247 937.562 519.968 938.154 526.144C941.106 557.069 901.323 558.061 906.8 516.107C909.652 494.263 933.962 476.249 946.787 492.247Z" fill="#749067"/>
<path fill-rule="evenodd" clip-rule="evenodd" d="M922.054 490.669C922.758 490.169 923.477 489.706 924.203 489.279L927.738 488.783C929.112 487.797 930.648 486.961 932.362 486.299C933.741 486.106 935.114 486.082 936.462 486.236C935.515 486.428 934.615 486.665 933.757 486.949C933.534 487.019 933.314 487.097 933.098 487.174L934.632 489.245C934.806 489.48 934.756 489.822 934.519 489.997C934.282 490.171 933.944 490.12 933.768 489.883L932.062 487.584C930.682 488.175 929.425 488.889 928.292 489.716L928.234 489.758C927.54 490.263 926.896 490.808 926.294 491.394L929.883 494.673C930.102 494.869 930.119 495.211 929.919 495.433C929.721 495.652 929.381 495.669 929.159 495.467L925.543 492.167C924.815 492.955 924.157 493.803 923.562 494.697C923.249 495.166 922.954 495.652 922.677 496.151C922.213 496.981 921.794 497.847 921.422 498.745L927.566 503.431C927.801 503.609 927.847 503.953 927.669 504.186C927.488 504.422 927.148 504.467 926.913 504.288L921.014 499.789C920.148 502.124 919.554 504.65 919.185 507.281L919.167 507.415L929.339 515.743C929.567 515.929 929.604 516.273 929.415 516.5C929.227 516.73 928.887 516.766 928.655 516.578L919.011 508.681C918.774 510.886 918.684 513.155 918.717 515.438V515.471C918.74 516.942 918.813 518.42 918.928 519.893C920.22 521.153 929.586 530.288 930.57 531.382C930.77 531.6 930.75 531.944 930.531 532.142C930.31 532.34 929.966 532.32 929.768 532.103C928.923 531.157 921.789 524.187 919.08 521.544C919.732 527.987 921.181 534.252 922.841 539.309C922.934 539.59 922.777 539.895 922.496 539.986C922.215 540.079 921.907 539.922 921.817 539.641C920.784 536.488 919.83 532.875 919.095 529.032L914.068 534.68C913.87 534.902 913.53 534.921 913.308 534.722C913.087 534.526 913.065 534.182 913.263 533.962L918.85 527.688C918.424 525.25 918.087 522.737 917.881 520.204C917.776 518.965 917.707 517.717 917.669 516.478L909.529 522.226C909.287 522.397 908.949 522.339 908.778 522.097C908.607 521.855 908.668 521.517 908.91 521.347L917.644 515.178C917.614 512.449 917.759 509.741 918.123 507.134C918.226 506.42 918.339 505.71 918.473 505.009L911.51 507.53C911.229 507.633 910.92 507.484 910.821 507.208C910.72 506.927 910.864 506.618 911.143 506.519L918.73 503.775C919.121 502.033 919.628 500.352 920.261 498.76L920.285 498.704C920.557 498.025 920.855 497.363 921.171 496.718L917.201 497.765C916.912 497.841 916.617 497.666 916.541 497.38C916.467 497.092 916.639 496.794 916.927 496.72L921.861 495.415C922.119 494.968 922.393 494.531 922.672 494.102C923.648 492.631 924.788 491.289 926.108 490.107L922.054 490.669Z" fill="#307754"/>
</g>
<path fill-rule="evenodd" clip-rule="evenodd" d="M31.0646 591H1093.94C1111.02 591 1125 601.201 1125 613.668C1125 626.134 1111.02 636.335 1093.94 636.335H890.311C880.816 636.335 873.055 641.999 873.055 648.924V648.928C873.055 655.853 880.816 661.521 890.311 661.521H979.181C991.047 661.521 1000.75 668.604 1000.75 677.26V677.264C1000.75 685.917 991.047 693 979.181 693H100.949C89.0829 693 79.38 685.919 79.38 677.264V677.26C79.38 668.604 89.0857 661.521 100.949 661.521H131.15C140.639 661.521 148.403 655.853 148.403 648.928V648.924C148.403 641.999 140.639 636.335 131.15 636.335H31.0646C13.9786 636.335 0 626.134 0 613.668C0 601.201 13.9815 591 31.0646 591Z" fill="#307754"/>
<defs>
<filter id="filter0_d" x="669.059" y="0" width="491.361" height="626.508" filterUnits="userSpaceOnUse" color-interpolation-filters="sRGB">
<feFlood flood-opacity="0" result="BackgroundImageFix"/>
<feColorMatrix in="SourceAlpha" type="matrix" values="0 0 0 0 0 0 0 0 0 0 0 0 0 0 0 0 0 0 127 0"/>
<feOffset dx="5"/>
<feGaussianBlur stdDeviation="15"/>
<feColorMatrix type="matrix" values="0 0 0 0 0 0 0 0 0 0 0 0 0 0 0 0 0 0 0.2 0"/>
<feBlend mode="normal" in2="BackgroundImageFix" result="effect1_dropShadow"/>
<feBlend mode="normal" in="SourceGraphic" in2="effect1_dropShadow" result="shape"/>
</filter>
</defs>
</svg>
