<svg width="698" height="326" viewBox="0 0 698 326" fill="none" xmlns="http://www.w3.org/2000/svg">
<path d="M25 324.181H673.277C673.277 324.181 673.277 324.125 673.261 324.021C673.1 321.891 671.312 299.291 663.613 266.942C662.985 264.306 662.308 261.597 661.6 258.841C656.51 239.029 649.279 216.164 639.035 192.415C600.428 102.899 519.132 0.684326 349.146 0.684326C178.235 0.684326 96.9708 104.008 58.6218 193.862C47.3313 220.303 39.7614 245.58 34.7202 266.709C34.704 266.789 34.6799 266.854 34.6638 266.934C26.9489 299.299 25.1611 321.907 25.0161 324.013C25 324.125 25 324.181 25 324.181Z" fill="#CDEAFA"/>
<path d="M666.526 38.105C666.526 38.105 683.325 36.8592 686.466 40.8777C689.606 44.8962 679.532 53.3431 671.728 51.4062C663.925 49.4693 661.654 46.5599 661.654 46.5599C661.654 46.5599 660.245 53.0698 653.528 53.0698C646.812 53.0698 644.428 45.499 644.428 45.499C644.428 45.499 642.914 57.225 633.806 55.5613C624.706 53.8976 622.323 50.8516 622.323 50.8516C622.323 50.8516 624.706 61.3801 614.954 60.271C605.202 59.1619 603.253 49.1397 603.253 49.1397C603.253 49.1397 597.398 62.3767 578.546 60.3514C559.693 58.3341 560.99 50.8516 560.99 50.8516C560.99 50.8516 558.389 56.9437 550.158 56.9437C541.92 56.9437 541.92 49.2442 541.92 49.2442C541.92 49.2442 537.153 57.225 528.914 57.225C520.676 57.225 522.198 48.0789 522.198 48.0789C522.198 48.0789 516.996 54.4522 511.149 53.0698C505.294 51.6875 505.294 42.8227 505.294 42.8227C505.294 42.8227 499.625 48.9951 488.085 46.9778C484.292 46.3107 478.856 42.2681 478.856 42.2681C478.856 42.2681 476.69 41.7698 471.053 40.6607C465.415 39.5516 463.885 26.0736 478.308 28.3159C478.929 28.4123 479.202 28.4284 483.575 28.1953C483.575 28.1953 482.923 28.2355 483.575 28.1953C487.022 27.9783 486.788 24.1045 495.365 22.5373C501.51 21.4121 507.541 25.4788 508.798 25.2618C515.119 24.1527 515.965 23.5419 519.685 21.0504C523.269 18.6554 527.473 16.9355 531.95 17.3293C544.739 18.4384 548.854 28.4123 548.854 28.4123C548.854 28.4123 554.274 20.9299 561.642 20.9299C569.011 20.9299 571.829 27.8578 571.829 27.8578C571.829 27.8578 575.945 19.1618 590.899 17.2731C605.854 15.3844 617.99 24.2572 617.99 24.2572C617.99 24.2572 629.039 20.9299 636.842 22.5935C644.646 24.2572 645.725 29.5214 645.725 29.5214C645.725 29.5214 661.324 27.8497 666.526 38.105Z" fill="white"/>
<path d="M131.653 129.77C131.653 129.77 144.474 125.824 150.965 128.982C157.455 132.141 160.145 138.305 158.406 143.513C156.666 148.729 140.206 154.725 125.009 145.41C125.009 145.41 122.956 152.989 114.564 151.727C106.173 150.465 107.598 146.833 107.598 146.833C107.598 146.833 100.157 162.625 83.8578 160.889C67.5583 159.153 64.2324 148.882 64.2324 148.882C64.2324 148.882 61.3413 157.257 53.0385 155.947C44.7277 154.645 45.3236 148.48 45.3236 148.48C45.3236 148.48 43.423 158.197 33.4533 156.774C23.4835 155.352 23.4836 150.023 23.4836 150.023C23.4836 150.023 18.0235 155.947 8.52888 152.989C-0.965744 150.023 -1.32013 141.263 1.64343 135.573C4.60698 129.883 14.464 127.873 20.6327 131.426C20.6327 131.426 21.3414 118.51 30.7233 116.614C40.0971 114.717 44.3734 118.984 44.3734 118.984C44.3734 118.984 47.2242 108.56 54.9391 109.862C62.654 111.164 63.725 116.855 63.725 116.855C63.725 116.855 70.4897 101.335 84.027 104.413C97.5562 107.492 101.236 122.537 101.236 122.537C101.236 122.537 107.88 114.01 115.603 115.665C129.358 117.329 131.653 129.77 131.653 129.77Z" fill="white"/>
<path d="M41.5493 227.947C38.5938 238.033 34.7202 266.942 34.7202 266.942H663.613L661.6 258.841C656.51 239.03 649.279 216.164 639.035 192.415L605.937 193.275L582.285 191.828L544.846 193.275L492.629 189.803L471.433 195.574L435.967 189.803L419.217 195.574L384.234 191.25L367.484 195.574L349.823 190.309L334.24 197.744C334.24 197.744 313.673 190.012 302.591 183.518L266.513 194.127L217.631 192.479L186.208 188.646L173.645 196.016H133.5L115.276 188.646L96.069 197.744H68.4709L54.0719 196.739C54.0638 196.739 48.644 203.699 41.5493 227.947Z" fill="#DF8D45"/>
<path opacity="0.38" d="M283.594 266.942L280.88 221.196L279.608 266.942H283.594Z" fill="#F7A83E"/>
<path opacity="0.38" d="M240.429 268.541L238.795 249.092V268.541H240.429Z" fill="#F7A83E"/>
<path opacity="0.38" d="M209.481 266.942L210.842 236.498L205.68 266.942H209.481Z" fill="#F7A83E"/>
<path opacity="0.38" d="M172.018 266.942L170.391 228.509L167.677 266.942H172.018Z" fill="#F7A83E"/>
<path opacity="0.38" d="M127.766 266.942L125.326 242.919V266.942H127.766Z" fill="#F7A83E"/>
<path opacity="0.38" d="M91.5269 266.942L90.5766 235.823L88.5392 266.942H91.5269Z" fill="#F7A83E"/>
<path opacity="0.38" d="M54.064 266.942L53.315 229.594L51.8896 266.942H54.064Z" fill="#F7A83E"/>
<path opacity="0.38" d="M323.586 266.942V232.906L319.97 266.942H323.586Z" fill="#F7A83E"/>
<path opacity="0.38" d="M302.414 266.942L300.425 251.72L298.798 266.942H302.414Z" fill="#F7A83E"/>
<path opacity="0.38" d="M399.205 267.987L397.208 252.765L395.581 267.987H399.205Z" fill="#F7A83E"/>
<path opacity="0.38" d="M357.433 266.942L355.621 245.218L353.995 266.942H357.433Z" fill="#F7A83E"/>
<path opacity="0.38" d="M283.594 266.942L280.88 221.196L279.608 266.942H283.594Z" fill="#F7A83E"/>
<path opacity="0.38" d="M240.429 268.541L238.795 249.092V268.541H240.429Z" fill="#F7A83E"/>
<path opacity="0.38" d="M209.481 266.942L210.842 236.498L205.68 266.942H209.481Z" fill="#F7A83E"/>
<path opacity="0.38" d="M172.018 266.942L170.391 228.509L167.677 266.942H172.018Z" fill="#F7A83E"/>
<path opacity="0.38" d="M127.766 266.942L125.326 242.919V266.942H127.766Z" fill="#F7A83E"/>
<path opacity="0.38" d="M91.5269 266.942L90.5766 235.823L88.5392 266.942H91.5269Z" fill="#F7A83E"/>
<path opacity="0.38" d="M54.064 266.942L53.315 229.594L51.8896 266.942H54.064Z" fill="#F7A83E"/>
<path opacity="0.38" d="M323.586 266.942V232.906L319.97 266.942H323.586Z" fill="#F7A83E"/>
<path opacity="0.38" d="M302.414 266.942L300.425 251.72L298.798 266.942H302.414Z" fill="#F7A83E"/>
<path opacity="0.38" d="M399.205 267.987L397.208 252.765L395.581 267.987H399.205Z" fill="#F7A83E"/>
<path opacity="0.38" d="M357.433 266.942L355.621 245.218L353.995 266.942H357.433Z" fill="#F7A83E"/>
<path d="M24.9999 324.961H673.229C673.18 324.069 672.85 319.737 671.956 312.673C671.698 310.551 671.392 308.196 671.014 305.632C670.515 302.241 669.927 298.472 669.242 294.357C669.073 293.416 668.912 292.476 668.727 291.487C668.517 290.145 668.252 288.755 667.97 287.324C666.786 280.943 665.353 273.902 663.581 266.348H34.6476C32.8759 273.902 31.4424 280.943 30.2587 287.324C29.9768 288.763 29.7191 290.153 29.4775 291.487C29.3083 292.476 29.1473 293.416 28.9862 294.357C28.2775 298.48 27.7138 302.241 27.2145 305.632C26.8361 308.196 26.53 310.551 26.2723 312.673C25.3784 319.729 25.0482 324.085 24.9999 324.961Z" fill="#86C194"/>
<path d="M26.2723 312.672H671.948C671.69 310.551 671.384 308.196 671.006 305.632C670.555 302.594 670.039 299.275 669.452 295.65C669.379 295.224 669.307 294.806 669.242 294.356C668.864 292.122 668.437 289.767 667.97 287.316H30.2667C29.7915 289.767 29.3727 292.122 28.9943 294.356C28.9218 294.806 28.8493 295.224 28.7849 295.65C28.1728 299.275 27.6735 302.594 27.2306 305.632C26.836 308.196 26.53 310.551 26.2723 312.672Z" fill="#3D6686"/>
<path d="M269.155 276.787H290.077V296.647H269.155V276.787Z" fill="#3D6686"/>
<path d="M275.267 266.331H283.948V286.19H275.267V266.331Z" fill="#3D6686"/>
<path d="M109.485 266.331H118.158V286.19H109.485V266.331Z" fill="#3D6686"/>
<path d="M103.357 276.787H124.279V296.647H103.357V276.787Z" fill="#3D6686"/>
<path d="M29.4774 291.479H668.719C668.509 290.137 668.244 288.746 667.962 287.316H30.2586C29.9767 288.746 29.719 290.137 29.4774 291.479Z" fill="#6287A7"/>
<path d="M395.283 107.624C395.508 107.624 395.734 107.512 395.855 107.303C396.048 106.99 395.943 106.58 395.629 106.387L382.293 98.3176C381.979 98.1328 381.56 98.2292 381.375 98.5427C381.182 98.8561 381.287 99.266 381.601 99.4589L394.937 107.528C395.041 107.6 395.162 107.624 395.283 107.624Z" fill="#189D6D"/>
<path d="M397.208 107.56C397.457 107.56 397.691 107.424 397.812 107.182L404.423 93.7927C404.584 93.4632 404.447 93.0614 404.117 92.9006C403.787 92.7399 403.384 92.8765 403.223 93.206L396.612 106.596C396.451 106.925 396.587 107.327 396.918 107.496C397.006 107.536 397.103 107.56 397.208 107.56Z" fill="#189D6D"/>
<path d="M390.652 86.3907C390.894 86.3907 391.119 86.2621 391.24 86.037C391.417 85.7075 391.297 85.3057 390.966 85.1289L379.821 79.1574C379.499 78.9886 379.088 79.1011 378.911 79.4306C378.734 79.7521 378.863 80.162 379.185 80.3388L390.322 86.3103C390.435 86.3666 390.548 86.3907 390.652 86.3907Z" fill="#189D6D"/>
<path d="M391.385 85.6353C391.595 85.6353 391.804 85.5389 391.933 85.354L398.714 75.7337C398.923 75.4283 398.85 75.0104 398.552 74.8015C398.246 74.5845 397.828 74.6648 397.618 74.9622L390.838 84.5825C390.628 84.8879 390.701 85.3058 390.999 85.5148C391.111 85.5951 391.248 85.6353 391.385 85.6353Z" fill="#189D6D"/>
<path d="M599.349 74.6246C599.478 74.6246 599.615 74.5844 599.736 74.504L621.423 59.4347C621.729 59.2257 621.801 58.8078 621.592 58.5024C621.383 58.197 620.964 58.1247 620.658 58.3336L598.963 73.3949C598.657 73.6039 598.584 74.0218 598.794 74.3272C598.922 74.5201 599.132 74.6246 599.349 74.6246Z" fill="#189D6D"/>
<path d="M597.851 74.6245C598.029 74.6245 598.206 74.5522 598.335 74.4155C598.592 74.1503 598.576 73.7244 598.31 73.4672L578.741 54.9339C578.476 54.6767 578.049 54.6847 577.791 54.958C577.533 55.2232 577.549 55.6492 577.815 55.9063L597.384 74.4397C597.521 74.5602 597.682 74.6245 597.851 74.6245Z" fill="#189D6D"/>
<path d="M599.929 48.6249C600.05 48.6249 600.179 48.5927 600.291 48.5204C600.605 48.3195 600.694 47.9096 600.493 47.5961L590.797 32.5589C590.595 32.2455 590.185 32.1571 589.871 32.358C589.556 32.5589 589.468 32.9688 589.669 33.2823L599.365 48.3114C599.494 48.5124 599.703 48.6249 599.929 48.6249Z" fill="#189D6D"/>
<path d="M600.509 47.797C600.67 47.797 600.831 47.7407 600.96 47.6282L615.246 34.9057C615.52 34.6565 615.544 34.2386 615.302 33.9573C615.061 33.684 614.634 33.6599 614.352 33.901L600.066 46.6236C599.792 46.8728 599.768 47.2907 600.01 47.572C600.138 47.7247 600.324 47.797 600.509 47.797Z" fill="#189D6D"/>
<path d="M675.33 158.981C675.451 158.981 675.572 158.949 675.677 158.885C675.991 158.692 676.095 158.282 675.902 157.968L670.338 148.75C670.144 148.428 669.725 148.332 669.419 148.517C669.105 148.71 669.001 149.12 669.194 149.433L674.759 158.651C674.888 158.868 675.105 158.981 675.33 158.981Z" fill="#189D6D"/>
<path d="M676.128 158.981C676.224 158.981 676.321 158.965 676.41 158.917L686.339 154.303C686.677 154.151 686.822 153.749 686.661 153.411C686.5 153.074 686.106 152.929 685.767 153.09L675.838 157.703C675.5 157.856 675.355 158.258 675.516 158.595C675.628 158.836 675.87 158.981 676.128 158.981Z" fill="#189D6D"/>
<path d="M669.766 176.068C669.87 176.068 669.975 176.043 670.08 175.987C670.41 175.81 670.531 175.409 670.362 175.079L661.672 158.635C661.495 158.306 661.092 158.185 660.762 158.354C660.432 158.523 660.311 158.933 660.48 159.262L669.17 175.714C669.291 175.939 669.524 176.068 669.766 176.068Z" fill="#189D6D"/>
<path d="M671.167 176.373C671.239 176.373 671.312 176.357 671.384 176.333L687.539 170.795C687.893 170.675 688.079 170.297 687.958 169.943C687.837 169.59 687.458 169.405 687.104 169.525L670.95 175.063C670.595 175.183 670.41 175.561 670.531 175.915C670.627 176.196 670.893 176.373 671.167 176.373Z" fill="#189D6D"/>
<path d="M359.213 261.26C359.543 261.26 359.833 261.011 359.881 260.673C359.93 260.303 359.664 259.974 359.301 259.926L345.16 258.149C344.798 258.101 344.46 258.366 344.411 258.728C344.363 259.098 344.629 259.427 344.991 259.476L359.132 261.252C359.156 261.26 359.181 261.26 359.213 261.26Z" fill="#189D6D"/>
<path opacity="0.38" d="M560.622 266.942L555.838 249.919L554.107 266.942H560.622Z" fill="#F7A83E"/>
<path d="M360.993 260.375C361.226 260.375 361.452 260.255 361.58 260.038L368.095 248.497C368.281 248.175 368.16 247.765 367.838 247.589C367.524 247.412 367.105 247.516 366.928 247.846L360.413 259.387C360.227 259.708 360.348 260.118 360.67 260.295C360.767 260.343 360.88 260.375 360.993 260.375Z" fill="#189D6D"/>
<path d="M413.845 199.519L385.08 161.231L349.163 148.042H387.89L405.816 160.62L413.845 199.519Z" fill="#27AE60"/>
<path d="M585.522 325.009L602.248 23.3164C602.248 22.5288 601.242 22.4404 601.064 23.1958L572.13 325.017H585.522V325.009Z" fill="#27AE60"/>
<path d="M592.464 116.521C586.223 105.752 577.123 96.9111 566.178 90.9557L555.838 85.3298C571.163 98.9365 582.317 116.594 588.035 136.252C588.776 138.816 589.42 141.082 589.887 142.81L592.464 116.521Z" fill="#27AE60"/>
<path d="M585.087 192.141C582.196 174.725 577.324 159.535 568.868 148.372C561.701 138.189 550.958 130.578 539.547 123.449C549.71 134.669 559.156 145.792 562.313 155.959C572.83 176.534 577.904 211.101 579.635 247.982L585.087 192.141Z" fill="#27AE60"/>
<path d="M631.852 325.009L680.066 145.422C680.203 144.578 679.116 144.361 678.818 145.085L621.044 325.017H631.852V325.009Z" fill="#27AE60"/>
<path d="M646.243 270.816C655.061 254.372 678.503 231.298 698 224.86C683.529 224.876 663.412 229.931 655.383 236.417L646.243 270.816Z" fill="#27AE60"/>
<path d="M640.67 291.8C658.137 288.417 673.132 290.619 686.508 296.47C672.697 295.328 659.716 295.32 652.661 303.51L640.356 325.001H631.852L640.67 291.8Z" fill="#27AE60"/>
<path d="M543.807 323.804C543.807 323.804 546.569 288.465 548.695 276.506C552.093 257.41 562.313 217.458 562.313 217.458C562.313 217.458 545.458 256.261 539.547 266.95C528.852 286.279 515.178 324.125 515.178 324.125L543.807 323.804Z" fill="#27AE60"/>
<path d="M624.789 267.577C624.789 267.577 632.133 307.312 602.812 322.847C602.812 322.847 585.965 296.47 612.218 264.322L624.789 267.577Z" fill="#307754"/>
<path d="M615.278 312.552L606.549 325.009H600.034L598.254 309.932L615.278 312.552Z" fill="#307754"/>
<path d="M393.39 325.009L353.89 243.514C353.109 242.1 351.909 242.839 352.481 244.125L383.074 325.009H393.39Z" fill="#27AE60"/>
<path d="M379.233 314.641L351.667 296.172C343.831 293.456 329.609 295.12 314.663 297.29L347.785 304.692L366.968 325.009H383.074L379.233 314.641Z" fill="#27AE60"/>
<path d="M384.524 303.791L383.074 283.964L393.39 258.816L376.922 277.599L374.498 286.938L384.902 307.914L384.524 303.791Z" fill="#27AE60"/>
<path d="M403.433 324.061L404.109 310.245L414.425 286.271L396.644 301.171L390.29 318.764L393.391 325.009H403.433V324.061Z" fill="#27AE60"/>
<path d="M386.722 65.8642L455.077 325.009H438.23L385.361 66.1133C385.217 65.2051 386.441 64.9881 386.722 65.8642Z" fill="#27AE60"/>
<path d="M423.01 148.364C423.01 148.364 449.601 175.28 432.505 219.982C432.505 219.982 398.681 209.075 412.259 149.023L423.01 148.364Z" fill="#307754"/>
<path d="M415.4 137.16C432.223 158.917 438.665 182.754 430.966 209.405C410.125 192.849 404.939 168.77 415.4 137.16Z" fill="url(#paint0_linear)"/>
<path d="M586.698 302.602C599.245 260.761 612.419 222.336 628.236 198.217L607.467 187.384C599.212 201.939 593.583 218.953 590.088 237.968L586.698 302.602Z" fill="#27AE60"/>
<path d="M628.236 198.217C643.674 196.867 669.685 202.646 695.56 208.336C695.56 208.336 646.42 183.052 607.467 187.384L628.236 198.217Z" fill="#27AE60"/>
<path d="M590.37 237.462L613.128 192.511L592.093 178.84L590.37 237.462Z" fill="#307754"/>
<path d="M618.725 142.73C618.725 142.73 626.601 192.077 597.497 211.712C597.497 211.712 580.296 179.082 606.114 138.816L618.725 142.73Z" fill="#307754"/>
<path d="M616.196 123.916C616.196 123.916 628.268 166.078 600.026 202.397C600.026 202.397 587.036 157.398 616.196 123.916Z" fill="url(#paint1_linear)"/>
<path d="M622.462 252.427C622.462 252.427 634.074 286.423 605.445 315.381C605.445 315.381 592.947 279.086 622.462 252.427Z" fill="url(#paint2_linear)"/>
<path d="M654.529 222.184C654.529 222.184 649.947 210.667 641.668 206.729C641.668 206.729 650.841 221.967 648.836 239.672L654.529 222.184Z" fill="#27AE60"/>
<path opacity="0.38" d="M52.9282 266.942V258.31L49.8117 266.942H52.9282Z" fill="#F7A83E"/>
<path d="M415.102 325.009C415.102 325.009 415.44 296.574 406.59 283.361C406.59 283.361 428.881 296.646 440.687 324.969L415.102 325.009Z" fill="#27AE60"/>
<path d="M522.683 256.864L511.675 224.86L461.608 184.169L537.074 186.885L540.078 234.826L522.683 256.864Z" fill="#27AE60"/>
<path d="M297.534 29.1433C316.982 29.1433 332.75 44.8958 332.75 64.3132C332.75 83.7225 316.982 99.467 297.534 99.467C278.07 99.467 262.294 83.7306 262.294 64.3132C262.294 44.8958 278.062 29.1433 297.534 29.1433Z" fill="#3D6686"/>
<path d="M297.542 33.9978C314.301 33.9978 327.886 47.5803 327.886 64.3053C327.886 81.0303 314.301 94.5887 297.542 94.5887C280.752 94.5887 267.174 81.0303 267.174 64.3053C267.174 47.5803 280.752 33.9978 297.542 33.9978ZM297.542 90.9238C311.692 90.9238 324.287 78.4585 324.287 64.3053C324.287 50.1522 311.692 37.2689 297.542 37.2689C283.337 37.2689 270.266 50.1522 270.266 64.3053C270.266 78.4504 283.337 90.9238 297.542 90.9238Z" fill="#22AFE5"/>
<path d="M323.256 97.2729C317.377 101.87 310.218 104.908 302.406 105.816V110.92C311.7 109.971 320.188 106.307 327.073 100.729L323.256 97.2729Z" fill="#3D6686"/>
<path d="M334.836 83.3047C333.387 86.1819 331.599 88.8502 329.521 91.2854L333.274 94.7092C335.835 91.7516 337.993 88.4644 339.716 84.9282L334.836 83.3047Z" fill="#3D6686"/>
<path d="M318.247 22.2236L316.628 27.086C330.165 33.9898 339.418 48.0626 339.418 64.2973C339.418 67.2388 339.112 70.1161 338.533 72.8728L343.373 74.4721C344.122 71.2091 344.5 67.8014 344.5 64.2973C344.5 45.8202 333.797 29.8507 318.247 22.2236Z" fill="#3D6686"/>
<path d="M297.534 17.4094C295.457 17.4094 293.427 17.5461 291.414 17.8193L292.622 22.7862C294.224 22.5852 295.875 22.4808 297.534 22.4808C299.918 22.4808 302.253 22.6817 304.524 23.0755L306.127 18.2131C303.349 17.6827 300.466 17.4094 297.534 17.4094Z" fill="#3D6686"/>
<path d="M282.837 25.1329L281.629 20.166C266.409 25.6312 254.812 38.7315 251.502 54.8376V54.8537L256.528 55.6735C259.483 41.5846 269.558 30.0837 282.837 25.1329Z" fill="#3D6686"/>
<path d="M250.568 65.1008C250.923 87.524 267.069 106.09 288.394 110.269V105.093C270.153 101.058 256.399 85.1531 255.666 65.9286L250.568 65.1008Z" fill="#3D6686"/>
<path d="M286.751 66.0733C288.305 58.7998 296.648 46.1416 296.648 46.1416V46.1335C296.648 46.1335 304.991 58.7918 306.546 66.0653C308.1 73.3388 306.666 82.2036 296.648 82.4447C287.017 82.4447 285.205 73.3468 286.751 66.0733Z" fill="#22AFE5"/>
<path d="M188.769 71.7236C185.104 90.7874 166.639 103.277 147.529 99.628C128.427 95.9712 115.904 77.5585 119.568 58.4947C123.232 39.4149 141.69 26.9174 160.792 30.5742C179.894 34.215 192.433 52.6357 188.769 71.7236Z" fill="#3D6686"/>
<path d="M183.993 70.8154C180.836 87.243 164.915 97.9965 148.455 94.854C131.994 91.7035 121.211 75.8385 124.368 59.4109C127.525 42.9592 143.421 32.1976 159.882 35.3401C176.343 38.4906 187.15 54.3636 183.993 70.8154ZM127.967 60.1021C125.302 73.9739 135.207 88.6575 149.131 91.3258C163.055 93.986 178.106 84.0684 180.772 70.2046C183.446 56.2765 173.226 41.0383 159.302 38.3781C145.37 35.7098 130.641 46.182 127.967 60.1021Z" fill="#22AFE5"/>
<path d="M116.878 84.1166C113.464 77.4861 111.813 69.8992 112.401 62.0712L107.375 61.1147C106.562 70.3975 108.567 79.4069 112.763 87.2109L116.878 84.1166Z" fill="#3D6686"/>
<path d="M128.451 98.093C125.898 96.1319 123.603 93.8735 121.597 91.3821L117.523 94.412C119.955 97.4741 122.781 100.215 125.938 102.57L128.451 98.093Z" fill="#3D6686"/>
<path d="M191.676 93.3269L187.19 90.8274C177.849 102.794 162.258 109.216 146.28 106.162C143.381 105.607 140.611 104.764 138.01 103.679L135.521 108.123C138.598 109.473 141.875 110.478 145.322 111.145C163.514 114.617 181.247 107.126 191.676 93.3269Z" fill="#3D6686"/>
<path d="M200.317 73.9256C200.711 71.8842 200.953 69.8749 201.066 67.8496L195.952 68.0988C195.855 69.7062 195.638 71.3457 195.332 72.9692C194.881 75.3079 194.245 77.5583 193.431 79.7042L197.917 82.1876C198.948 79.5756 199.761 76.8028 200.317 73.9256Z" fill="#3D6686"/>
<path d="M195.477 58.0687L200.591 57.8196C198.078 41.8742 187.367 28.0425 172.139 21.7656H172.123L170.375 26.5396C183.679 32.0851 193.101 44.1245 195.477 58.0687Z" fill="#3D6686"/>
<path d="M162.225 18.9205C140.087 15.0547 118.787 27.3834 110.653 47.5L115.743 48.4725C123.143 31.3537 141.384 20.8574 160.446 23.7588L162.225 18.9205Z" fill="#3D6686"/>
<path d="M139.878 70.3252H145.837V72.1094H139.878V70.3252Z" fill="#22AFE5"/>
<path d="M139.878 63.5981H145.837V65.3824H139.878V63.5981Z" fill="#22AFE5"/>
<path d="M139.878 56.8713H145.837V58.6556H139.878V56.8713Z" fill="#22AFE5"/>
<path d="M139.878 50.1443H145.837V51.9285H139.878V50.1443Z" fill="#22AFE5"/>
<path d="M151.386 73.4273V47.9259C151.386 46.4069 152.618 45.1772 154.14 45.1772H154.591C156.113 45.1772 157.345 46.4069 157.345 47.9259V73.4273C159.254 74.4801 160.566 76.4894 160.566 78.8201C160.566 82.2358 157.788 85.0086 154.366 85.0086C150.943 85.0086 148.165 82.2358 148.165 78.8201C148.165 76.4894 149.469 74.4801 151.386 73.4273Z" fill="#22AFE5"/>
<path d="M152.513 74.5043V58.1731H156.016V74.5043C157.82 75.2035 159.101 76.9395 159.101 78.9889C159.101 81.6492 156.935 83.8111 154.269 83.8111C151.603 83.8111 149.437 81.6492 149.437 78.9889C149.429 76.9475 150.709 75.2035 152.513 74.5043Z" fill="url(#paint3_linear)"/>
<g opacity="0.7">
<g opacity="0.7">
<path opacity="0.7" d="M116.226 262.626C116.226 262.626 136.745 208.931 178.694 187.657C178.694 187.657 168.257 172.523 147.512 172.057C147.512 172.057 125.865 213.279 115.404 261.26L116.226 262.626Z" fill="white"/>
<path opacity="0.7" d="M112.376 260.874C112.376 260.874 112.376 199.407 92.8315 168.995C92.8315 168.995 76.9588 168.963 66.8441 183.51C66.8441 183.51 98.3318 189.883 111.426 262.08L112.376 260.874Z" fill="white"/>
<path opacity="0.7" d="M108.471 261.903C108.471 261.903 94.4341 228.509 62.7852 225.953L58.6137 235.823C58.6137 235.823 84.7381 236.498 108.116 262.626L108.471 261.903Z" fill="white"/>
<path opacity="0.7" d="M118.771 262.626C118.771 262.626 140.836 239.086 170.834 239.086L173.798 247.725C173.798 247.725 148.986 246.705 118.771 264.008V262.626Z" fill="white"/>
</g>
</g>
<g opacity="0.7">
<g opacity="0.7">
<path opacity="0.7" d="M277.208 262.031C277.208 262.031 266.996 212.098 233.35 187.456C233.35 187.456 244.665 175.714 262.889 178.286C262.889 178.286 275.887 217.466 278.118 260.963L277.208 262.031Z" fill="white"/>
<path opacity="0.7" d="M282.442 257.089C282.442 257.089 282.16 211.479 296.213 188.782C296.213 188.782 307.737 188.646 315.146 199.375C315.146 199.375 292.307 204.318 283.135 257.981L282.442 257.089Z" fill="white"/>
<path opacity="0.7" d="M282.595 262.337C282.595 262.337 303.751 223.044 343.646 223.382L347.81 235.911C347.81 235.911 315.033 233.878 282.966 263.261L282.595 262.337Z" fill="white"/>
<path opacity="0.7" d="M275.686 261.871C275.686 261.871 253.62 238.33 223.622 238.33L220.659 246.97C220.659 246.97 245.47 245.949 275.686 263.253V261.871Z" fill="white"/>
</g>
</g>
<path opacity="0.6" d="M125.326 184.523C125.326 186.283 126.751 187.705 128.515 187.705C130.279 187.705 131.704 186.283 131.704 184.523C131.704 182.763 130.279 181.34 128.515 181.34C126.751 181.34 125.326 182.771 125.326 184.523Z" fill="white"/>
<path opacity="0.6" d="M150.983 193.822C149.421 193.299 147.73 194.135 147.206 195.694C146.683 197.253 147.52 198.941 149.083 199.464C150.645 199.986 152.336 199.15 152.86 197.591C153.391 196.032 152.546 194.344 150.983 193.822Z" fill="white"/>
<path opacity="0.6" d="M85.6885 216.639C84.3854 216.639 83.329 215.584 83.329 214.284C83.329 212.983 84.3854 211.929 85.6885 211.929C86.9917 211.929 88.0481 212.983 88.0481 214.284C88.0481 215.584 86.9917 216.639 85.6885 216.639Z" fill="white"/>
<path opacity="0.6" d="M142.27 236.498C142.27 237.929 143.43 239.086 144.863 239.086C146.296 239.086 147.456 237.929 147.456 236.498C147.456 235.067 146.296 233.91 144.863 233.91C143.43 233.918 142.27 235.076 142.27 236.498Z" fill="white"/>
<path opacity="0.6" d="M178.702 222.497C178.702 224.225 180.103 225.624 181.835 225.624C183.566 225.624 184.968 224.225 184.968 222.497C184.968 220.77 183.566 219.371 181.835 219.371C180.103 219.371 178.702 220.77 178.702 222.497Z" fill="white"/>
<path opacity="0.6" d="M64.694 206.311C64.694 207.492 65.6523 208.457 66.8442 208.457C68.028 208.457 68.9944 207.5 68.9944 206.311C68.9944 205.129 68.0361 204.165 66.8442 204.165C65.6604 204.165 64.694 205.129 64.694 206.311Z" fill="white"/>
<path opacity="0.6" d="M75.8154 254.935C75.8154 256.566 77.1361 257.884 78.7709 257.884C80.4056 257.884 81.7263 256.566 81.7263 254.935C81.7263 253.303 80.4056 251.985 78.7709 251.985C77.1361 251.977 75.8154 253.303 75.8154 254.935Z" fill="white"/>
<path opacity="0.6" d="M105.87 223.719C105.87 225.712 107.488 227.328 109.485 227.328C111.483 227.328 113.101 225.712 113.101 223.719C113.101 221.726 111.483 220.111 109.485 220.111C107.488 220.111 105.87 221.726 105.87 223.719Z" fill="white"/>
<path opacity="0.6" d="M310.588 261.26C308.863 261.26 307.464 259.864 307.464 258.142C307.464 256.419 308.863 255.023 310.588 255.023C312.314 255.023 313.713 256.419 313.713 258.142C313.713 259.864 312.314 261.26 310.588 261.26Z" fill="white"/>
<path opacity="0.6" d="M249.264 226.789C249.264 228.413 250.584 229.731 252.211 229.731C253.838 229.731 255.158 228.413 255.158 226.789C255.158 225.166 253.838 223.848 252.211 223.848C250.584 223.84 249.264 225.158 249.264 226.789Z" fill="white"/>
<path opacity="0.6" d="M240.429 261.26C239.077 261.26 237.981 260.166 237.981 258.817C237.981 257.467 239.077 256.374 240.429 256.374C241.781 256.374 242.877 257.467 242.877 258.817C242.877 260.166 241.781 261.26 240.429 261.26Z" fill="white"/>
<path opacity="0.6" d="M285.607 198.692C285.607 201.151 287.605 203.145 290.069 203.145C292.533 203.145 294.53 201.151 294.53 198.692C294.53 196.233 292.533 194.24 290.069 194.24C287.605 194.24 285.607 196.233 285.607 198.692Z" fill="white"/>
<path opacity="0.6" d="M225.853 205.596C225.853 207.107 227.077 208.336 228.599 208.336C230.113 208.336 231.345 207.115 231.345 205.596C231.345 204.077 230.113 202.855 228.599 202.855C227.077 202.855 225.853 204.085 225.853 205.596Z" fill="white"/>
<path opacity="0.6" d="M328.072 219.717C325.594 219.717 323.586 217.712 323.586 215.24C323.586 212.768 325.594 210.763 328.072 210.763C330.549 210.763 332.557 212.768 332.557 215.24C332.557 217.712 330.549 219.717 328.072 219.717Z" fill="white"/>
<path opacity="0.6" d="M255.738 164.647C255.738 166.914 257.575 168.746 259.846 168.746C262.116 168.746 263.953 166.914 263.953 164.647C263.953 162.381 262.116 160.548 259.846 160.548C257.575 160.548 255.738 162.381 255.738 164.647Z" fill="white"/>
<path d="M438.746 139.122C438.746 139.122 458.637 153.202 490.721 154.545C522.78 155.887 549.202 141.243 549.202 141.243C538.588 117.719 540.875 103.317 544.435 77.4858C545.329 71.0321 545.756 64.5141 545.45 58.0122C545.305 55.0948 544.999 52.0568 544.387 49.0911C544.032 47.2989 543.557 45.5388 542.969 43.843C542.945 43.8189 542.945 43.843 542.945 43.843C541.528 39.7441 539.337 35.9828 536.06 33.0332C534.481 31.6187 532.661 30.4935 530.986 29.1513C529.545 27.9699 528.248 26.6518 526.742 25.5749C523.577 23.3406 520.3 23.0111 516.619 22.4646C512.182 21.8055 507.866 20.8411 503.388 20.4392C497.678 19.949 491.099 19.8284 485.695 21.9904C482.982 23.0754 480.976 21.4519 478.15 21.2108C475.508 20.9777 472.843 21.3313 470.225 21.685C468.405 21.9421 466.569 22.1833 464.822 22.77C460.078 24.297 456.326 28.0905 453.853 32.3983C451.896 35.814 450.648 39.5351 449.585 43.3206C449.537 43.4652 449.489 43.6019 449.44 43.7706C449.207 44.6386 448.965 45.5147 448.732 46.3827C448.546 47.114 448.329 47.8454 448.192 48.5687C448.047 49.2519 447.958 49.935 447.934 50.6423C447.814 53.6079 448.385 56.5736 448.973 59.5392C449.489 62.0387 450.06 64.5543 450.27 67.0538C450.785 73.0815 450.27 79.1334 450.06 85.1853C449.803 93.3348 449.166 101.404 449.166 109.553C449.15 130.176 438.746 139.122 438.746 139.122Z" fill="#331B16"/>
<path d="M460.586 133.874C449.883 133.866 441.137 138.816 435.758 148.035C432.625 153.395 430.854 159.431 429.493 165.483C427.495 174.364 426.312 183.43 425.981 192.528C425.861 195.807 425.845 199.102 425.273 202.333C424.661 205.74 423.445 208.995 422.245 212.234C421.133 215.248 420.457 218.294 418.54 220.914C417.397 222.473 416.028 223.888 414.369 224.893C409.448 227.882 402.619 226.934 398.279 230.711C395.871 232.809 394.695 236.072 394.582 239.263C394.47 242.453 395.315 245.604 396.378 248.61C397.063 250.555 397.892 252.524 399.414 253.922C401.999 256.301 405.527 254.991 408.667 254.887C413.684 254.718 418.726 254.091 423.678 254.702C428.905 255.345 434.188 255.088 439.43 254.766C445.1 254.42 451.228 253.81 455.432 250C460.819 245.13 461.117 236.924 460.996 229.675C460.876 222.473 460.707 215.272 461.069 208.079C461.311 203.225 461.794 198.387 461.85 193.532C461.971 182.771 459.998 172.033 460.521 161.28C460.835 154.818 461.077 148.348 461.077 141.878C461.077 139.604 460.996 137.346 461.037 135.071C461.045 134.822 461.045 134.549 460.9 134.34C460.852 134.259 460.98 133.874 460.586 133.874Z" fill="#F2EFEE"/>
<path d="M441.959 190.816L498.959 192.254C504.097 192.439 509.645 192.905 514.365 190.864L526.96 188.019L515.951 193.428C510.709 196.008 504.942 197.35 499.096 197.35L442.78 196.731L441.959 190.816Z" fill="#A72E23"/>
<path d="M435.339 190.454C435.806 194.48 436.692 198.467 437.844 202.316C440.598 211.511 443.207 220.729 444.439 230.317C446.606 247.163 446.743 264.258 444.85 281.135C444.761 281.907 444.681 282.719 444.971 283.442C445.51 284.768 447.129 285.29 448.563 285.347C451.792 285.475 454.2 286.761 457.429 286.85C465.192 287.034 472.931 287.203 480.695 287.388C485.059 287.509 489.303 287.155 493.62 287.412C498.5 287.718 503.364 288.047 508.22 288.449C517.94 289.253 527.636 290.33 537.236 292.122C540.819 292.805 544.411 293.585 547.97 294.453C548.8 294.662 549.645 294.927 550.475 295.087C551.699 295.321 551.796 295.465 551.635 294.284C551.353 292.588 550.121 290.635 549.484 289.036C547.407 283.667 545.546 278.25 543.895 272.745C543.3 270.743 542.663 268.758 542.092 266.749C541.447 264.467 539.45 259.942 540.489 257.659C541.238 256.028 543.291 255.562 545.071 255.296C551.159 254.372 557.336 253.93 563.336 252.483C568.409 251.262 574.715 249.55 577.372 244.663C578.878 241.891 579.378 238.7 579.724 235.565C582.051 214.251 576.962 193.669 570.575 173.488C566.71 161.247 561.467 148.292 550.644 140.592C545.925 137.273 540.119 135.834 534.481 135.199C528.015 134.468 521.508 134.283 515.017 134.09H514.808C508.977 134.09 503.106 133.761 497.276 133.576C491.663 133.431 486.138 133.881 480.501 133.881C476.209 133.881 471.892 134.026 467.6 133.881C464.814 133.777 459.982 133.391 458.637 133.849C456.696 134.5 455.424 136.461 454.087 138.503C450.616 143.783 448.297 147.006 446.082 151.571C444.407 155.019 442.539 158.049 441.049 161.585C439.632 164.952 438.005 168.248 436.885 171.728C434.921 177.796 434.614 184.169 435.339 190.454Z" fill="white"/>
<path opacity="0.18" d="M479.14 233.339V248.168L483.578 247.894V233.339H479.14Z" fill="#951C1F"/>
<path d="M431 325.425C435.767 325.425 440.535 325.425 445.31 325.425C465.371 325.425 485.439 325.425 505.499 325.425C515.107 325.425 524.706 325.425 534.314 325.425C538.429 325.425 542.536 325.425 546.643 325.377C549.276 325.345 551.926 325.353 554.551 325.2C558.674 324.959 558.465 324.067 557.925 319.936C555.445 300.775 547.247 283.93 534.95 269.246C526.285 258.895 517.37 248.061 514.124 234.969C513.134 230.966 512.699 226.851 512.337 222.752C510.879 206.502 510.436 189.568 515.566 173.863C517.74 167.209 519.552 160.731 521.694 154.068C522.685 150.998 523.659 147.928 524.819 144.914C525.987 141.9 527.34 138.943 529.087 136.218C529.272 135.921 530.029 135.173 529.594 134.86C529.474 134.771 529.313 134.747 529.168 134.731C527.799 134.554 526.421 134.434 525.036 134.386C524.505 134.361 523.933 134.361 523.442 134.603C522.959 134.852 522.62 135.422 522.363 135.888C513.593 152.011 510.533 163.801 505.797 178.147C501.304 191.77 502.02 199.823 493.645 207.378C486.969 213.381 474.825 213.839 466.329 211.766C457.833 209.692 451.632 204.139 449.393 195.571C447.01 186.578 449.184 177.11 451.35 168.31C452.88 162.025 454.861 155.852 457.221 149.825C458.284 147.108 459.468 144.44 460.507 141.715C461.368 139.449 462.23 137.182 463.084 134.924C463.18 134.675 463.253 134.345 463.035 134.185C462.939 134.112 462.802 134.104 462.681 134.096C461.948 134.064 461.215 134.04 460.482 134.008C460.136 133.992 459.766 133.984 459.468 134.161C459.21 134.313 459.041 134.578 458.888 134.836C458.236 135.921 457.334 137.03 456.77 138.163C456.23 139.24 455.562 140.228 454.982 141.297C453.871 143.331 452.888 145.436 451.761 147.454C443.812 161.559 438.417 178.533 439.713 194.872C441.179 213.871 443.563 232.614 445.681 251.565C446.695 260.655 447.074 269.929 445.705 279.019C444.288 288.342 440.35 296.725 437.096 305.485C434.72 311.979 433.029 318.811 431 325.425Z" fill="#695F3C"/>
<path d="M444.133 186.741L478.053 288.899C479.317 292.717 476.475 296.647 472.448 296.647H405.092C402.563 296.647 400.316 295.047 399.503 292.66L364.866 191.402C363.57 187.609 366.364 183.663 370.375 183.606L438.448 182.706C441.025 182.674 443.328 184.306 444.133 186.741Z" fill="url(#paint4_linear)"/>
<path d="M379.604 230.269C380.361 230.647 381.077 231.137 381.714 231.41C383.767 232.311 386.151 232.118 388.333 231.587C390.516 231.057 392.618 230.205 394.84 229.827C395.75 229.674 396.813 229.65 397.449 230.317C398.053 230.952 398.005 232.021 397.53 232.761C397.063 233.5 396.266 233.974 395.468 234.344C392.827 235.549 389.855 235.823 387.101 236.755C386.739 236.876 386.36 237.02 386.094 237.293C385.829 237.567 385.692 238.009 385.885 238.346C386.127 238.772 386.715 238.812 387.198 238.78C391.2 238.531 395.114 236.964 399.1 237.366C399.583 237.414 400.163 237.583 400.268 238.057C400.3 238.202 400.276 238.362 400.244 238.507C399.89 240.155 398.529 241.433 397.023 242.196C395.517 242.96 393.842 243.313 392.231 243.819C390.62 244.326 389.002 245.033 387.906 246.319C387.794 246.448 387.689 246.6 387.697 246.769C387.721 247.066 388.084 247.203 388.382 247.243C389.509 247.388 390.661 247.227 391.788 247.066C394.373 246.697 396.958 246.335 399.535 245.965C400.002 245.901 400.485 245.837 400.944 245.957C401.403 246.078 401.83 246.432 401.879 246.898C401.943 247.468 401.468 247.942 401.017 248.296C398.81 250.048 396.225 251.326 393.495 252.017C392.521 252.266 391.522 252.443 390.62 252.861C390.475 252.925 390.314 253.038 390.322 253.199C390.33 253.384 390.556 253.464 390.741 253.496C393.077 253.858 395.412 252.925 397.763 252.749C398.19 252.716 398.633 252.708 399.028 252.877C399.422 253.038 399.761 253.408 399.769 253.834C399.777 254.332 399.358 254.726 398.947 255.015C397.248 256.229 395.186 256.864 393.117 257.145C390.773 257.466 387.77 257.756 385.458 257.233C379.7 255.931 378.227 249.47 376.986 244.591C376.511 242.726 375.835 240.725 375.859 238.788C375.883 236.916 375.287 235.131 375.368 233.235C375.424 232.037 375.778 230.285 377.107 229.859C377.921 229.57 378.782 229.851 379.604 230.269Z" fill="#F4AD85"/>
<path d="M405.309 196.634H417.55C418.162 196.634 418.661 196.136 418.661 195.525C418.661 194.915 418.162 194.416 417.55 194.416H405.309C404.697 194.416 404.198 194.915 404.198 195.525C404.198 196.128 404.697 196.634 405.309 196.634Z" fill="#5D5D64"/>
<path d="M392.255 196.634H397.699C398.311 196.634 398.81 196.136 398.81 195.525C398.81 194.915 398.311 194.416 397.699 194.416H392.255C391.643 194.416 391.144 194.915 391.144 195.525C391.144 196.128 391.643 196.634 392.255 196.634Z" fill="#5D5D64"/>
<path d="M437.312 246.841C437.304 246.962 437.312 247.107 437.352 247.283C437.417 247.589 437.634 247.83 437.86 248.047C438.971 249.124 440.405 249.807 441.846 250.378C449.336 253.343 457.815 253.785 465.571 251.599C468.027 250.908 470.435 249.96 472.979 249.719C474.477 249.574 475.983 249.686 477.489 249.751C479.688 249.847 481.894 249.847 484.101 249.767C485.736 249.703 487.62 249.807 488.892 248.593C489.794 247.734 490.044 246.399 490.197 245.162C490.632 241.666 489.609 237.253 485.687 236.265C484.149 235.879 482.539 236.016 480.952 236.088C479.027 236.168 477.103 236.168 475.186 236.04C472.673 235.871 470.016 235.421 468.156 233.733C467.117 232.785 466.424 231.523 465.603 230.382C464.564 228.943 463.292 227.673 461.85 226.628C460.578 225.704 458.903 224.402 457.236 224.828C457.147 224.852 457.042 224.884 457.002 224.973C456.97 225.037 456.986 225.109 457.002 225.174C457.364 227.006 457.944 228.79 458.734 230.486C458.943 230.936 459.168 231.467 458.959 231.917C458.637 232.6 457.421 232.769 456.752 232.801C455.923 232.841 455.093 232.704 454.272 232.608C453.354 232.511 452.444 232.415 451.526 232.311C450.801 232.23 450.076 232.158 449.384 231.957C448.184 231.619 447.121 230.936 446.074 230.269C444.423 229.216 442.772 228.163 441.282 226.894C440.203 225.977 439.092 224.892 437.683 224.788C437.312 224.764 436.893 224.828 436.676 225.133C436.555 225.302 436.523 225.519 436.515 225.72C436.37 227.987 437.981 230.036 439.897 231.266C441.814 232.495 444.045 233.122 446.106 234.087C446.388 234.223 446.718 234.432 446.694 234.746C446.67 235.059 446.299 235.212 445.993 235.284C444.512 235.598 442.796 235.437 441.443 234.738C440.171 234.079 438.802 233.645 437.642 232.745C437.071 232.302 436.555 231.796 435.951 231.41C435.581 231.169 435.057 231.322 434.679 231.499C434.518 232.463 435.041 233.404 435.565 234.223C436.032 234.955 436.531 235.67 437.183 236.241C439.084 237.904 441.862 238.009 444.157 239.07C444.463 239.214 444.777 239.383 444.979 239.648C445.188 239.914 445.269 240.307 445.083 240.597C444.85 240.966 444.326 241.007 443.892 240.999C442.49 240.982 441.001 241.103 439.68 240.565C438.657 240.147 437.844 239.359 436.853 238.885C436.056 238.499 434.711 238.37 435.17 239.721C435.677 241.216 436.676 242.534 437.973 243.434C440.082 244.896 442.78 245.178 445.172 246.126C445.317 246.182 445.486 246.263 445.534 246.415C445.647 246.729 445.196 246.938 444.866 246.97C442.885 247.179 441.033 247.091 439.108 246.6C438.617 246.472 437.377 245.957 437.312 246.841Z" fill="#F4AD85"/>
<path d="M484.447 152.688C489.352 152.688 494.28 152.045 498.951 150.51C502.543 149.329 505.957 147.625 509.009 145.399C511.337 143.703 513.455 141.71 515.267 139.467C516.434 138.029 517.513 136.486 518.375 134.838C518.512 134.565 518.633 134.243 518.689 134.139C518.383 134.131 517.256 134.018 517.046 134.002C516.467 133.962 515.871 133.89 515.291 133.833C514.115 133.721 513.052 133.512 511.9 133.271C510.854 133.046 509.581 132.813 508.639 132.274C507.785 131.784 507.028 131.004 506.44 130.225C505.547 129.027 505.305 127.814 505.023 126.335C504.741 124.808 504.645 123.273 504.62 121.722C504.524 117.816 504.926 113.861 504.339 109.996C504.266 109.546 498.677 109.851 498.089 109.851C495.545 109.827 492.968 109.827 490.423 109.851C488.111 109.851 478.979 109.73 478.979 109.73C478.979 109.73 478.955 112.535 478.931 113.452C478.858 116.795 478.858 119.455 478.432 122.019C478.287 123.032 478.077 124.02 477.771 125.033C476.966 127.765 476.048 130.45 473.64 131.977C471.393 133.424 468.873 133.673 466.296 133.721C466.102 133.721 465.659 133.737 465.659 133.737C465.659 133.737 465.514 134.139 465.45 134.356C464.588 137.225 464.798 140.199 465.748 143.036C468.438 151.065 476.966 152.688 484.447 152.688Z" fill="#EB9362"/>
<path opacity="0.25" d="M478.52 121.432C482.861 124.486 497.807 124.165 504.604 120.637C504.508 116.731 504.926 113.861 504.338 109.996C504.266 109.546 498.677 109.851 498.089 109.851C495.544 109.827 492.967 109.827 490.423 109.851C488.111 109.851 478.979 109.73 478.979 109.73C478.979 109.73 478.955 112.535 478.931 113.452C478.858 116.803 478.874 118.973 478.52 121.432Z" fill="#951C1F"/>
<path d="M477.94 50.4656C477.481 53.817 481.282 57.2488 483.811 58.599C489.489 61.629 496.463 60.8896 502.196 63.8391C507.608 66.628 511.941 71.5546 513.769 77.3815C515.041 81.4482 515.154 85.7641 515.83 89.9754C517.683 85.9811 518.762 81.633 518.995 77.2448C519.108 75.0427 519.543 73.5157 521.806 72.8727C524.085 72.2217 526.783 72.7763 528.868 74.0702C532.049 76.0393 532.855 79.9613 532.5 83.3851C532.307 85.2899 531.099 87.6447 529.65 88.8985C528.474 89.9111 526.791 90.5863 525.325 91.0604C524.6 97.3695 519.527 103.654 515.001 107.938C505.514 116.923 491.284 119.527 478.689 117.229C471.973 115.999 466.521 113.009 462.696 107.279C458.975 101.701 458.403 94.9584 458.766 88.4404C458.887 86.2543 461.182 62.5291 459.193 62.714C459.185 62.7059 476.491 61.0664 477.94 50.4656Z" fill="#F4AD85"/>
<path d="M494.401 85.8766C493.427 85.8766 492.637 83.2319 492.637 79.9694C492.637 76.707 493.427 74.0623 494.401 74.0623C495.375 74.0623 496.165 76.707 496.165 79.9694C496.165 83.2319 495.375 85.8766 494.401 85.8766Z" fill="#331B16"/>
<path d="M470.765 85.8766C469.791 85.8766 469.001 83.2319 469.001 79.9694C469.001 76.707 469.791 74.0623 470.765 74.0623C471.739 74.0623 472.529 76.707 472.529 79.9694C472.529 83.2319 471.739 85.8766 470.765 85.8766Z" fill="#331B16"/>
<path d="M482.031 94.902C482.031 94.902 480.477 93.8251 479.543 92.3945C479.164 91.8158 479.14 91.0845 479.414 90.4495C480.115 88.818 481.476 85.1853 481.476 81.7937C481.476 81.7937 482.595 86.0935 481.041 90.6826C481.041 90.6826 480.775 92.4347 482.031 94.902Z" fill="#C3654E"/>
<path d="M502.084 69.4972C502.084 69.4972 498.766 67.2629 497.518 66.8369C493.853 65.5832 490.044 66.4351 487.113 69.4972C491.832 68.2675 496.809 68.1952 502.084 69.4972Z" fill="#331B16"/>
<path d="M479.237 69.4972C479.237 69.4972 475.919 67.2629 474.671 66.8369C471.007 65.5832 467.197 66.4351 464.266 69.4972C468.985 68.2675 473.962 68.1952 479.237 69.4972Z" fill="#331B16"/>
<path d="M443.682 47.2027C443.682 47.2991 443.706 47.3634 443.706 47.4599C444.198 53.3027 446.42 57.0882 448.965 59.5153V59.5395C449.11 59.6841 449.223 59.7966 449.368 59.9172C449.819 60.2949 450.238 60.6244 450.664 60.954C453.966 63.357 458.234 64.2973 462.366 63.783C474.091 62.3444 478.407 56.5818 479.873 51.5185C480.372 49.9674 480.558 48.4806 480.606 47.2107C480.703 45.6355 480.558 44.4058 480.437 43.7709C480.437 43.586 480.413 43.4414 480.388 43.369C480.364 43.3449 480.364 43.3208 480.364 43.3208H443.634C443.634 43.3449 443.634 43.3449 443.634 43.369C443.634 43.5137 443.61 43.6503 443.61 43.7709C443.561 44.9925 443.586 46.1498 443.682 47.2027Z" fill="#4B2B27"/>
<path d="M484.302 109.071C488.409 109.071 492.098 107.271 493.716 104.474C493.91 104.145 493.797 103.719 493.467 103.534C493.137 103.341 492.718 103.453 492.525 103.783C491.148 106.162 487.934 107.689 484.31 107.689C484.286 107.689 484.262 107.689 484.238 107.689C480.687 107.673 477.747 106.21 476.386 103.791C476.201 103.461 475.782 103.341 475.444 103.526C475.114 103.711 474.993 104.137 475.178 104.466C476.789 107.327 480.171 109.047 484.23 109.071C484.246 109.071 484.27 109.071 484.302 109.071Z" fill="#C3654E"/>
<path opacity="0.35" d="M443.682 47.2025C443.682 47.299 443.682 47.1141 443.682 47.2025C444.842 47.5802 447.379 48.6251 449.199 48.9706C456.277 50.3369 466.714 52.5712 479.688 53.1338C502.832 54.0982 530.269 51.0603 544.193 48.183C543.839 46.3908 543.573 45.5228 542.985 43.827H542.961C542.937 43.7787 542.913 43.7546 542.889 43.7546H443.618C443.561 44.9923 443.586 46.1497 443.682 47.2025Z" fill="#453A0E"/>
<path d="M414.208 36.3365C415.786 36.3365 418.404 37.7752 419.845 38.2172C422.181 38.9003 424.516 39.5835 426.851 40.1943C455.537 47.8696 484.343 48.6974 513.882 47.9902C535.609 47.4758 557.006 43.8029 578.121 38.6914C576.213 38.4583 574.32 38.2011 572.412 37.9118C565.808 36.9473 559.269 35.7016 552.762 34.1907C548.494 33.178 544.242 32.0689 540.022 30.8473C537.236 30.0195 533.982 29.4328 531.486 27.8093C531.083 27.5521 530.705 27.2708 530.35 26.9654C528.909 25.7197 528.345 24.0721 528.111 22.3039C527.805 20.1822 527.966 17.8514 527.709 15.802C527.193 11.679 525.848 7.46765 522.611 4.66274C518.931 1.48812 513.745 0.845165 508.881 0.539759C497.389 -0.23983 485.857 -0.167497 474.365 0.708536C471.675 0.917498 468.913 1.20683 466.441 2.33201C463.823 3.55363 461.649 5.74773 460.497 8.38387C458.613 12.6435 459.249 17.8032 458.114 22.2075C457.735 23.7586 457.123 25.2214 456.108 26.5153C455.706 27.0136 455.263 27.4557 454.788 27.8575C450.399 31.7153 442.99 31.9323 437.562 32.9208C429.823 34.3353 422.044 35.4846 414.208 36.3365Z" fill="#726840"/>
<path opacity="0.11" d="M514.735 7.92578H469.879L493.789 11.0522L514.735 7.92578Z" fill="white"/>
<path d="M454.788 27.8575C471.514 32.4466 512.73 31.9082 531.486 27.8093C531.083 27.5521 530.704 27.2708 530.35 26.9654C528.909 25.7197 528.345 24.0721 528.111 22.304C504.427 26.3546 481.073 26.4511 458.114 22.2075C457.735 23.7587 457.123 25.2214 456.108 26.5153C455.706 27.0136 455.255 27.4557 454.788 27.8575Z" fill="#FCC976"/>
<path d="M485.285 232.375C484.536 232.688 483.835 233.154 483.392 233.829C482.644 234.979 482.788 236.474 482.966 237.84C483.521 242.172 482.587 248.103 485.728 251.631C487.572 253.705 490.511 254.332 493.249 254.758C502.623 256.221 512.142 256.695 521.613 256.196C526.3 255.947 530.97 255.465 535.609 254.742C537.469 254.452 540.32 254.46 541.995 253.649C543.445 252.95 543.984 250.836 544.161 249.397C544.749 244.663 543.05 239.978 542.301 235.26C541.906 232.769 541.56 229.867 539.426 228.517C537.968 227.593 536.1 227.705 534.377 227.842C519.382 229.096 504.387 230.341 489.392 231.595C488.063 231.708 486.71 231.82 485.462 232.294C485.414 232.319 485.349 232.351 485.285 232.375Z" fill="#F5FAF6"/>
<path opacity="0.15" d="M542.671 203.201C542.671 203.201 548.461 220.512 543.372 224.161C538.282 227.81 530.551 228.437 521.572 228.549C521.572 228.549 540.094 226.588 541.206 217.45C541.914 211.623 539.152 193.46 539.152 193.46C539.152 193.46 540.739 197.028 542.671 203.201Z" fill="#414141"/>
<defs>
<linearGradient id="paint0_linear" x1="429.165" y1="208.114" x2="414.43" y2="140.96" gradientUnits="userSpaceOnUse">
<stop stop-color="#F5913C"/>
<stop offset="1" stop-color="#F9AE44"/>
</linearGradient>
<linearGradient id="paint1_linear" x1="601.777" y1="201.366" x2="612.708" y2="131.837" gradientUnits="userSpaceOnUse">
<stop stop-color="#F5913C"/>
<stop offset="1" stop-color="#F9AE44"/>
</linearGradient>
<linearGradient id="paint2_linear" x1="605.168" y1="313.634" x2="622.281" y2="253.142" gradientUnits="userSpaceOnUse">
<stop stop-color="#F5913C"/>
<stop offset="1" stop-color="#F9AE44"/>
</linearGradient>
<linearGradient id="paint3_linear" x1="154.263" y1="83.8144" x2="154.263" y2="58.0304" gradientUnits="userSpaceOnUse">
<stop stop-color="#C43927"/>
<stop offset="1" stop-color="#ED4724"/>
</linearGradient>
<linearGradient id="paint4_linear" x1="457.945" y1="293.648" x2="383.414" y2="181.877" gradientUnits="userSpaceOnUse">
<stop stop-color="#6A6A72"/>
<stop offset="1" stop-color="#808088"/>
</linearGradient>
</defs>
</svg>
